<svg width="136" height="134" viewBox="0 0 136 134" fill="none" xmlns="http://www.w3.org/2000/svg" xmlns:xlink="http://www.w3.org/1999/xlink">
<g opacity="0.5">
<path d="M70.785,21.287L61.874,21.287C53.472,21.287 49.271,21.287 46.661,23.897C44.052,26.507 44.052,30.708 44.052,39.109L44.052,48.02L44.052,54.704L88.607,54.704L88.607,48.02L88.607,39.109C88.607,30.708 88.607,26.507 85.997,23.897C83.387,21.287 79.186,21.287 70.785,21.287Z" fill="#FFFFFF"/>
</g>
<path d="M72.725,38.143C68.736,35.968 63.916,35.968 59.927,38.143L38.566,49.79C34.271,52.132 31.599,56.634 31.599,61.526L31.599,83.526C31.599,88.418 34.271,92.919 38.566,95.261L59.927,106.908C63.916,109.083 68.736,109.083 72.725,106.908L94.086,95.261C98.381,92.919 101.053,88.418 101.053,83.526L101.053,61.526C101.053,56.634 98.381,52.132 94.086,49.79L72.725,38.143ZM66.327,59.159C65.061,59.159 64.215,60.678 62.522,63.715L62.084,64.501C61.603,65.364 61.362,65.795 60.987,66.08C60.612,66.365 60.145,66.471 59.211,66.682L58.36,66.874C55.072,67.618 53.428,67.99 53.037,69.248C52.646,70.506 53.767,71.816 56.008,74.437L56.588,75.115C57.225,75.86 57.543,76.232 57.687,76.693C57.83,77.154 57.782,77.651 57.686,78.644L57.598,79.549C57.259,83.046 57.09,84.795 58.113,85.572C59.137,86.349 60.677,85.64 63.755,84.223L64.551,83.856C65.426,83.454 65.863,83.252 66.327,83.252C66.791,83.252 67.228,83.454 68.103,83.856L68.899,84.223C71.978,85.64 73.517,86.349 74.541,85.572C75.564,84.795 75.395,83.046 75.056,79.549L74.969,78.644C74.872,77.651 74.824,77.154 74.967,76.693C75.111,76.232 75.429,75.86 76.066,75.115L76.646,74.437C78.887,71.816 80.008,70.506 79.617,69.248C79.226,67.99 77.582,67.618 74.294,66.874L73.444,66.682C72.509,66.471 72.042,66.365 71.667,66.08C71.292,65.795 71.051,65.364 70.57,64.501L70.132,63.715C68.439,60.678 67.593,59.159 66.327,59.159Z" clip-rule="evenodd" fill-rule="evenodd" fill="#FFFFFF"/>
</svg>
