<svg width="38" height="46" viewBox="0 0 38 46" fill="none" xmlns="http://www.w3.org/2000/svg" xmlns:xlink="http://www.w3.org/1999/xlink">
<path d="M14.246,39.913C15.306,41.095 16.667,41.744 18.08,41.744L18.082,41.744C19.501,41.744 20.868,41.095 21.931,39.911C22.5,39.283 23.47,39.232 24.099,39.799C24.729,40.366 24.78,41.338 24.213,41.967C22.559,43.803 20.383,44.814 18.082,44.814L18.078,44.814C15.783,44.812 13.611,43.801 11.963,41.965C11.396,41.336 11.447,40.364 12.078,39.799C12.708,39.23 13.679,39.281 14.246,39.913ZM18.182,0.801C27.281,0.801 33.394,7.888 33.394,14.506C33.394,17.911 34.26,19.354 35.179,20.885C36.088,22.396 37.118,24.112 37.118,27.354C36.404,35.639 27.754,36.315 18.182,36.315C8.609,36.315 -0.042,35.639 -0.748,27.485C-0.754,24.112 0.276,22.396 1.185,20.885L1.505,20.345C2.295,18.987 2.97,17.51 2.97,14.506C2.97,7.888 9.082,0.801 18.182,0.801ZM18.182,3.871C11.027,3.871 6.04,9.477 6.04,14.506C6.04,18.762 4.859,20.73 3.815,22.466C2.978,23.86 2.317,24.961 2.317,27.354C2.658,31.215 5.207,33.244 18.182,33.244C31.085,33.244 33.714,31.125 34.053,27.221C34.047,24.961 33.386,23.86 32.549,22.466C31.505,20.73 30.324,18.762 30.324,14.506C30.324,9.477 25.337,3.871 18.182,3.871Z" clip-rule="evenodd" fill-rule="evenodd" fill="#44624A"/>
</svg>
