<svg width="38" height="46" viewBox="0 0 38 46" fill="none" xmlns="http://www.w3.org/2000/svg" xmlns:xlink="http://www.w3.org/1999/xlink">
<path d="M14.245,39.913C15.305,41.095 16.666,41.744 18.079,41.744L18.081,41.744C19.5,41.744 20.867,41.095 21.93,39.911C22.499,39.283 23.469,39.232 24.098,39.799C24.728,40.366 24.779,41.338 24.212,41.967C22.558,43.803 20.382,44.814 18.081,44.814L18.077,44.814C15.782,44.812 13.61,43.801 11.962,41.965C11.395,41.336 11.446,40.364 12.077,39.799C12.707,39.23 13.678,39.281 14.245,39.913ZM18.181,0.801C27.28,0.801 33.393,7.888 33.393,14.506C33.393,17.911 34.259,19.354 35.178,20.885C36.087,22.396 37.117,24.112 37.117,27.354C36.403,35.639 27.753,36.315 18.181,36.315C8.608,36.315 -0.043,35.639 -0.749,27.485C-0.755,24.112 0.275,22.396 1.184,20.885L1.504,20.345C2.294,18.987 2.969,17.51 2.969,14.506C2.969,7.888 9.081,0.801 18.181,0.801ZM18.181,3.871C11.026,3.871 6.039,9.477 6.039,14.506C6.039,18.762 4.858,20.73 3.814,22.466C2.977,23.86 2.316,24.961 2.316,27.354C2.657,31.215 5.206,33.244 18.181,33.244C31.084,33.244 33.713,31.125 34.052,27.221C34.046,24.961 33.385,23.86 32.548,22.466C31.504,20.73 30.323,18.762 30.323,14.506C30.323,9.477 25.336,3.871 18.181,3.871Z" clip-rule="evenodd" fill-rule="evenodd" fill="#44624A"/>
</svg>
