<svg width="330" height="564" viewBox="0 0 330 564" fill="none" xmlns="http://www.w3.org/2000/svg" xmlns:xlink="http://www.w3.org/1999/xlink">
<path d="M277.342,11.163C275.374,12.167 274.593,14.577 275.597,16.544C276.601,18.512 279.011,19.293 280.978,18.289L277.342,11.163ZM301.77,3.186L303.588,-0.377C302.446,-0.96 301.094,-0.96 299.952,-0.377L301.77,3.186ZM322.562,18.289C324.529,19.293 326.939,18.512 327.943,16.544C328.947,14.577 328.166,12.167 326.198,11.163L322.562,18.289ZM280.978,18.289L303.588,6.749L299.952,-0.377L277.342,11.163L280.978,18.289ZM299.952,6.749L322.562,18.289L326.198,11.163L303.588,-0.377L299.952,6.749Z" transform="rotate(-180 301.77 8.956)" fill="#0060FF"/>
</svg>
