<svg width="30" height="28" viewBox="0 0 30 28" fill="none" xmlns="http://www.w3.org/2000/svg" xmlns:xlink="http://www.w3.org/1999/xlink">
<path d="M3.5,6.667L24.5,6.667L24.5,2.667L3.5,2.667L3.5,6.667ZM24.5,6.667C24.684,6.667 24.834,6.816 24.834,7L28.834,7C28.834,4.607 26.894,2.667 24.5,2.667L24.5,6.667ZM24.834,7L24.834,21L28.834,21L28.834,7L24.834,7ZM24.834,21C24.834,21.184 24.684,21.334 24.5,21.334L24.5,25.334C26.894,25.334 28.834,23.394 28.834,21L24.834,21ZM24.5,21.334L3.5,21.334L3.5,25.334L24.5,25.334L24.5,21.334ZM3.5,21.334C3.316,21.334 3.167,21.184 3.167,21L-0.833,21C-0.833,23.394 1.107,25.334 3.5,25.334L3.5,21.334ZM3.167,21L3.167,7L-0.833,7L-0.833,21L3.167,21ZM3.167,7C3.167,6.816 3.316,6.667 3.5,6.667L3.5,2.667C1.107,2.667 -0.833,4.607 -0.833,7L3.167,7Z" fill="#9EA8BD"/>
<line x1="1.167" y1="9.667" x2="26.834" y2="9.667" stroke="#9EA8BD" stroke-width="2" stroke-miterlimit="3.999327" stroke-linecap="round" stroke-linejoin="round"/>
</svg>
