<svg width="46" height="46" viewBox="0 0 46 46" fill="none" xmlns="http://www.w3.org/2000/svg" xmlns:xlink="http://www.w3.org/1999/xlink">
<path d="M6.146,10.834L38.99,10.834L38.99,4.578L6.146,4.578L6.146,10.834ZM38.99,10.834C39.278,10.834 39.512,11.067 39.512,11.355L45.768,11.355C45.768,7.612 42.733,4.578 38.99,4.578L38.99,10.834ZM39.512,11.355L39.512,33.251L45.768,33.251L45.768,11.355L39.512,11.355ZM39.512,33.251C39.512,33.539 39.278,33.773 38.99,33.773L38.99,40.029C42.733,40.029 45.768,36.994 45.768,33.251L39.512,33.251ZM38.99,33.773L6.146,33.773L6.146,40.029L38.99,40.029L38.99,33.773ZM6.146,33.773C5.858,33.773 5.625,33.539 5.625,33.251L-0.631,33.251C-0.631,36.994 2.403,40.029 6.146,40.029L6.146,33.773ZM5.625,33.251L5.625,11.355L-0.631,11.355L-0.631,33.251L5.625,33.251ZM5.625,11.355C5.625,11.067 5.858,10.834 6.146,10.834L6.146,4.578C2.403,4.578 -0.631,7.612 -0.631,11.355L5.625,11.355Z" fill="#9EA8BD"/>
<line x1="2.497" y1="15.527" x2="42.64" y2="15.527" stroke="#9EA8BD" stroke-width="3.128" stroke-miterlimit="3.999327" stroke-linecap="round" stroke-linejoin="round"/>
</svg>
