<svg width="144" height="198" viewBox="0 0 144 198" fill="none" xmlns="http://www.w3.org/2000/svg" xmlns:xlink="http://www.w3.org/1999/xlink">
<path d="M129.333,63.755C129.333,96.032 103.664,122.198 71.999,122.198C40.335,122.198 14.666,96.032 14.666,63.755C14.666,31.477 40.335,5.311 71.999,5.311C103.664,5.311 129.333,31.477 129.333,63.755Z" fill="#DCA16A"/>
<path d="M133.58,63.753C133.58,98.422 106.009,126.527 71.999,126.527C37.99,126.527 10.419,98.422 10.419,63.753C10.419,29.085 37.99,0.98 71.999,0.98C106.009,0.98 133.58,29.085 133.58,63.753ZM71.999,122.197C103.664,122.197 129.333,96.031 129.333,63.753C129.333,31.476 103.664,5.31 71.999,5.31C40.335,5.31 14.666,31.476 14.666,63.753C14.666,96.031 40.335,122.197 71.999,122.197Z" clip-rule="evenodd" fill-rule="evenodd" fill="#C38144"/>
<path d="M72,7.474C73.173,7.474 74.123,8.443 74.123,9.639C74.123,40.721 49.405,65.918 18.913,65.918C17.741,65.918 16.79,64.949 16.79,63.753C16.79,62.558 17.741,61.589 18.913,61.589C47.06,61.589 69.876,38.33 69.876,9.639C69.876,8.443 70.827,7.474 72,7.474Z" clip-rule="evenodd" fill-rule="evenodd" transform="rotate(-360 45.457 36.696)" fill="#F0B57F"/>
<path d="M125.086,61.59C126.259,61.59 127.21,62.559 127.21,63.754C127.21,94.837 102.491,120.034 72,120.034C70.827,120.034 69.876,119.065 69.876,117.869C69.876,116.674 70.827,115.705 72,115.705C100.146,115.705 122.963,92.446 122.963,63.754C122.963,62.559 123.913,61.59 125.086,61.59Z" clip-rule="evenodd" fill-rule="evenodd" fill="#CF945D"/>
<path d="M114.468,63.755C114.468,87.664 95.454,107.046 71.999,107.046C48.544,107.046 29.53,87.664 29.53,63.755C29.53,39.845 48.544,20.463 71.999,20.463C95.454,20.463 114.468,39.845 114.468,63.755Z" fill="#F7BA82"/>
<path d="M118.716,63.754C118.716,90.054 97.8,111.375 72,111.375C46.199,111.375 25.284,90.054 25.284,63.754C25.284,37.453 46.199,16.133 72,16.133C97.8,16.133 118.716,37.453 118.716,63.754ZM72,107.046C95.455,107.046 114.469,87.663 114.469,63.754C114.469,39.844 95.455,20.462 72,20.462C48.545,20.462 29.531,39.844 29.531,63.754C29.531,87.663 48.545,107.046 72,107.046Z" clip-rule="evenodd" fill-rule="evenodd" fill="#C38144"/>
<path d="M110.222,65.918C90.285,65.918 74.123,82.393 74.123,102.716C74.123,103.912 73.172,104.881 72,104.881C70.827,104.881 69.876,103.912 69.876,102.716C69.876,80.002 87.94,61.589 110.222,61.589C111.395,61.589 112.345,62.558 112.345,63.754C112.345,64.949 111.395,65.918 110.222,65.918Z" clip-rule="evenodd" fill-rule="evenodd" transform="rotate(-360 91.111 83.235)" fill="#E6A66C"/>
<path d="M72,26.956C52.063,26.956 35.901,43.431 35.901,63.754C35.901,64.95 34.95,65.919 33.778,65.919C32.605,65.919 31.654,64.95 31.654,63.754C31.654,41.04 49.717,22.627 72,22.627C73.172,22.627 74.123,23.596 74.123,24.792C74.123,25.987 73.172,26.956 72,26.956Z" clip-rule="evenodd" fill-rule="evenodd" fill="#FFD5AE"/>
<path d="M71.183,187.098L60.032,192.567C58.817,193.163 57.389,192.296 57.389,190.965L57.389,166.989C57.389,165.999 58.206,165.197 59.215,165.197L84.784,165.197C85.793,165.197 86.611,165.999 86.611,166.989L86.611,190.965C86.611,192.296 85.182,193.163 83.967,192.567L72.816,187.098C72.302,186.845 71.697,186.845 71.183,187.098Z" transform="rotate(180 72 122.197)" fill="#C52229"/>
<path d="M71.183,57.296L60.032,51.827C58.817,51.231 57.389,52.097 57.389,53.429L57.389,77.405C57.389,78.395 58.206,79.197 59.215,79.197L84.784,79.197C85.793,79.197 86.611,78.395 86.611,77.405L86.611,53.429C86.611,52.097 85.182,51.231 83.967,51.827L72.816,57.296C72.302,57.548 71.697,57.548 71.183,57.296Z" transform="rotate(180 72 122.197)" fill="#C52229"/>
<path d="M72,190.704L61.666,195.772C58.023,197.559 53.736,194.961 53.736,190.965L53.736,166.989C53.736,164.02 56.189,161.614 59.215,161.614L84.785,161.614C87.811,161.614 90.264,164.02 90.264,166.989L90.264,190.965C90.264,194.961 85.977,197.559 82.334,195.772L72,190.704ZM72.815,190.304C72.815,190.304 72.816,190.303 72.817,190.303L72,188.7L72.817,190.303L72.815,190.304ZM72,53.691L61.666,48.622C58.023,46.835 53.736,49.434 53.736,53.43L53.736,77.406C53.736,80.374 56.189,82.781 59.215,82.781L84.785,82.781C87.811,82.781 90.264,80.374 90.264,77.406L90.264,53.43C90.264,49.434 85.977,46.835 82.334,48.622L72,53.691ZM60.032,51.827L71.183,57.297C71.697,57.549 72.303,57.549 72.817,57.297L83.968,51.827C85.182,51.231 86.611,52.098 86.611,53.43L86.611,77.406C86.611,78.395 85.793,79.197 84.785,79.197L59.215,79.197C58.207,79.197 57.389,78.395 57.389,77.406L57.389,53.43C57.389,52.098 58.818,51.231 60.032,51.827ZM60.032,192.567L71.183,187.098C71.697,186.846 72.303,186.846 72.817,187.098L83.968,192.567C85.182,193.163 86.611,192.297 86.611,190.965L86.611,166.989C86.611,165.999 85.793,165.197 84.785,165.197L59.215,165.197C58.207,165.197 57.389,165.999 57.389,166.989L57.389,190.965C57.389,192.297 58.818,193.163 60.032,192.567Z" clip-rule="evenodd" fill-rule="evenodd" transform="rotate(180 72 122.197)" fill="#9B0F15"/>
<path d="M4.192,109.239C4.52,108.709 5.093,108.387 5.708,108.387L13.323,108.387C14.312,108.387 15.114,109.204 15.114,110.213C15.114,111.222 14.312,112.039 13.323,112.039L8.551,112.039L12.251,119.927C12.678,120.837 12.301,121.927 11.408,122.362C10.515,122.798 9.446,122.413 9.019,121.503L4.092,111.001C3.826,110.435 3.864,109.77 4.192,109.239Z" clip-rule="evenodd" fill-rule="evenodd" fill="#DF3840"/>
<path d="M84.784,64.726L59.215,64.726C58.206,64.726 57.389,65.528 57.389,66.517L57.389,163.267C57.389,164.257 58.206,165.059 59.215,165.059L84.784,165.059C85.793,165.059 86.611,164.257 86.611,163.267L86.611,66.517C86.611,65.528 85.793,64.726 84.784,64.726Z" transform="rotate(180 72 114.892)" fill="#F1333B"/>
<path d="M59.215,61.143L84.785,61.143C87.811,61.143 90.264,63.549 90.264,66.518L90.264,163.268C90.264,166.236 87.811,168.643 84.785,168.643L59.215,168.643C56.189,168.643 53.736,166.236 53.736,163.268L53.736,66.518C53.736,63.549 56.189,61.143 59.215,61.143ZM59.215,64.726L84.785,64.726C85.793,64.726 86.611,65.528 86.611,66.518L86.611,163.268C86.611,164.257 85.793,165.059 84.785,165.059L59.215,165.059C58.207,165.059 57.389,164.257 57.389,163.268L57.389,66.518C57.389,65.528 58.207,64.726 59.215,64.726Z" clip-rule="evenodd" fill-rule="evenodd" transform="rotate(180 72 114.893)" fill="#9B0F15"/>
<path d="M119.044,113.761C119.044,114.775 118.226,115.598 117.217,115.598C116.208,115.598 115.39,114.775 115.39,113.761C115.39,112.746 116.208,111.924 117.217,111.924C118.226,111.924 119.044,112.746 119.044,113.761Z" transform="rotate(180 117.217 113.761)" fill="#DB1B24"/>
<path d="M112.5,112.583C112.5,113.845 111.482,114.868 110.227,114.868C108.972,114.868 107.955,113.845 107.955,112.583C107.955,111.321 108.972,110.298 110.227,110.298C111.482,110.298 112.5,111.321 112.5,112.583Z" transform="rotate(180 110.227 112.583)" fill="#DB1B24"/>
<path d="M114.477,118.916C114.477,119.547 113.968,120.058 113.341,120.058C112.713,120.058 112.205,119.547 112.205,118.916C112.205,118.285 112.713,117.773 113.341,117.773C113.968,117.773 114.477,118.285 114.477,118.916Z" transform="rotate(180 113.341 118.916)" fill="#DB1B24"/>
<path d="M112.506,106.898C112.506,107.529 111.997,108.041 111.37,108.041C110.742,108.041 110.234,107.529 110.234,106.898C110.234,106.267 110.742,105.755 111.37,105.755C111.997,105.755 112.506,106.267 112.506,106.898Z" transform="rotate(180 111.37 106.898)" fill="#DB1B24"/>
<path d="M106.502,117.779C106.502,118.41 105.993,118.921 105.366,118.921C104.738,118.921 104.229,118.41 104.229,117.779C104.229,117.148 104.738,116.636 105.366,116.636C105.993,116.636 106.502,117.148 106.502,117.779Z" transform="rotate(180 105.366 117.779)" fill="#DB1B24"/>
<path d="M105.36,111.933C105.36,112.564 104.851,113.076 104.223,113.076C103.596,113.076 103.087,112.564 103.087,111.933C103.087,111.302 103.596,110.791 104.223,110.791C104.851,110.791 105.36,111.302 105.36,111.933Z" transform="rotate(180 104.223 111.933)" fill="#DB1B24"/>
<path d="M97.571,125.115C97.571,125.746 97.062,126.257 96.434,126.257C95.807,126.257 95.298,125.746 95.298,125.115C95.298,124.484 95.807,123.972 96.434,123.972C97.062,123.972 97.571,124.484 97.571,125.115Z" transform="rotate(180 96.434 125.115)" fill="#DB1B24"/>
<path d="M120.302,120.777C120.302,121.408 119.794,121.919 119.166,121.919C118.539,121.919 118.03,121.408 118.03,120.777C118.03,120.146 118.539,119.634 119.166,119.634C119.794,119.634 120.302,120.146 120.302,120.777Z" transform="rotate(180 119.166 120.777)" fill="#DB1B24"/>
<path d="M110.217,122.552C110.217,123.579 109.389,124.412 108.368,124.412C107.346,124.412 106.519,123.579 106.519,122.552C106.519,121.525 107.346,120.693 108.368,120.693C109.389,120.693 110.217,121.525 110.217,122.552Z" transform="rotate(180 108.368 122.552)" fill="#DB1B24"/>
<path d="M118.192,124.4C118.192,125.427 117.364,126.259 116.343,126.259C115.322,126.259 114.494,125.427 114.494,124.4C114.494,123.373 115.322,122.541 116.343,122.541C117.364,122.541 118.192,123.373 118.192,124.4Z" transform="rotate(180 116.343 124.4)" fill="#DB1B24"/>
<path d="M101.928,120.765C101.928,121.792 101.1,122.625 100.079,122.625C99.058,122.625 98.23,121.792 98.23,120.765C98.23,119.738 99.058,118.906 100.079,118.906C101.1,118.906 101.928,119.738 101.928,120.765Z" transform="rotate(180 100.079 120.765)" fill="#DB1B24"/>
<path d="M104.217,125.675C104.217,126.306 103.709,126.818 103.081,126.818C102.454,126.818 101.945,126.306 101.945,125.675C101.945,125.044 102.454,124.533 103.081,124.533C103.709,124.533 104.217,125.044 104.217,125.675Z" transform="rotate(180 103.081 125.675)" fill="#DB1B24"/>
<path d="M22.953,102.906C22.953,101.898 23.755,101.08 24.745,101.08L91.932,101.08C92.922,101.08 93.724,101.898 93.724,102.906C93.724,103.915 92.922,104.733 91.932,104.733L26.536,104.733L26.536,117.517C26.536,118.526 25.734,119.344 24.745,119.344C23.755,119.344 22.953,118.526 22.953,117.517L22.953,102.906Z" clip-rule="evenodd" fill-rule="evenodd" fill="#FE666D"/>
<path d="M67.391,59.768L70.864,59.768C72.518,59.768 73.743,59.347 74.54,58.504C75.337,57.661 75.735,56.542 75.735,55.148C75.735,53.799 75.337,52.749 74.54,51.998C73.758,51.247 72.676,50.872 71.293,50.872C70.045,50.872 69,51.224 68.158,51.929C67.316,52.619 66.895,53.523 66.895,54.642L60.378,54.642C60.378,52.895 60.836,51.332 61.753,49.952C62.686,48.558 63.979,47.47 65.632,46.688C67.301,45.906 69.135,45.516 71.135,45.516C74.608,45.516 77.329,46.366 79.298,48.067C81.268,49.753 82.253,52.083 82.253,55.056C82.253,56.588 81.794,57.998 80.877,59.286C79.96,60.573 78.757,61.561 77.269,62.251C79.118,62.925 80.494,63.937 81.396,65.285C82.313,66.634 82.771,68.228 82.771,70.067C82.771,73.04 81.704,75.423 79.569,77.216C77.449,79.009 74.638,79.906 71.135,79.906C67.857,79.906 65.174,79.025 63.084,77.262C61.009,75.5 59.972,73.17 59.972,70.274L66.489,70.274C66.489,71.531 66.948,72.557 67.865,73.354C68.797,74.151 69.94,74.55 71.293,74.55C72.841,74.55 74.051,74.136 74.923,73.308C75.811,72.465 76.254,71.354 76.254,69.975C76.254,66.634 74.45,64.964 70.842,64.964L67.391,64.964L67.391,59.768Z" fill="#FFD5AE"/>
<path d="M63.727,58.565L60.378,58.565C58.252,58.565 56.529,56.808 56.529,54.641C56.529,52.15 57.197,49.812 58.567,47.751L58.573,47.743C59.935,45.704 61.795,44.177 64.013,43.128L64.025,43.122C66.242,42.084 68.63,41.592 71.135,41.592C75.199,41.592 78.908,42.59 81.78,45.068C84.739,47.604 86.101,51.1 86.101,55.055C86.101,57.449 85.366,59.66 83.991,61.59C83.902,61.715 83.811,61.838 83.719,61.959C84.021,62.304 84.305,62.671 84.567,63.062C85.978,65.142 86.62,67.534 86.62,70.067C86.62,74.136 85.094,77.656 82.022,80.239C79.042,82.758 75.284,83.829 71.135,83.829C67.156,83.829 63.546,82.744 60.63,80.285L60.62,80.276C57.617,77.725 56.123,74.265 56.123,70.273C56.123,68.107 57.846,66.35 59.972,66.35L63.79,66.35C63.63,65.919 63.542,65.451 63.542,64.963L63.542,59.768C63.542,59.348 63.607,58.944 63.727,58.565ZM70.091,68.886C70.25,69.318 70.338,69.785 70.338,70.273C70.338,70.306 70.339,70.331 70.341,70.349C70.344,70.352 70.348,70.356 70.351,70.359C70.512,70.492 70.751,70.626 71.293,70.626C71.736,70.626 72.001,70.566 72.138,70.519C72.252,70.48 72.289,70.447 72.299,70.438M70.091,68.886L70.842,68.886C71.798,68.886 72.188,69.054 72.294,69.112C72.297,69.118 72.299,69.125 72.302,69.134C72.338,69.234 72.405,69.489 72.405,69.975C72.405,70.232 72.365,70.343 72.356,70.364C72.351,70.377 72.347,70.383 72.344,70.388C72.34,70.394 72.327,70.411 72.299,70.438M79.569,77.216C81.704,75.423 82.771,73.04 82.771,70.067C82.771,68.227 82.313,66.634 81.396,65.285C81.247,65.063 81.086,64.85 80.912,64.646C80.028,63.612 78.813,62.814 77.269,62.251C78.661,61.605 79.803,60.699 80.695,59.531C80.757,59.45 80.818,59.368 80.877,59.285C81.794,57.998 82.253,56.588 82.253,55.055C82.253,52.082 81.268,49.753 79.298,48.067C77.329,46.366 74.608,45.515 71.135,45.515C69.135,45.515 67.301,45.906 65.632,46.688C63.978,47.469 62.685,48.557 61.753,49.952C61.588,50.201 61.437,50.457 61.301,50.718C60.685,51.902 60.378,53.21 60.378,54.641L66.895,54.641C66.895,53.523 67.316,52.618 68.158,51.929C69,51.224 70.045,50.871 71.293,50.871C72.676,50.871 73.758,51.247 74.54,51.998C75.337,52.749 75.735,53.799 75.735,55.147C75.735,56.542 75.337,57.661 74.54,58.503C73.743,59.346 72.518,59.768 70.864,59.768L67.391,59.768L67.391,64.963L70.842,64.963C74.45,64.963 76.254,66.634 76.254,69.975C76.254,71.354 75.81,72.465 74.923,73.308C74.051,74.135 72.841,74.549 71.293,74.549C69.94,74.549 68.797,74.151 67.865,73.354C66.948,72.557 66.489,71.53 66.489,70.273L59.972,70.273C59.972,71.723 60.232,73.031 60.752,74.197C61.27,75.36 62.048,76.382 63.084,77.262C65.174,79.024 67.857,79.905 71.135,79.905C74.638,79.905 77.449,79.009 79.569,77.216ZM70.56,55.844C70.657,55.537 70.717,55.213 70.737,54.878C70.839,54.835 71.007,54.795 71.293,54.795C71.599,54.795 71.78,54.831 71.867,54.856C71.877,54.918 71.886,55.012 71.886,55.147C71.886,55.465 71.841,55.63 71.819,55.693C71.813,55.708 71.808,55.721 71.804,55.731C71.8,55.732 71.797,55.733 71.793,55.734C71.67,55.777 71.383,55.844 70.864,55.844L70.56,55.844Z" clip-rule="evenodd" fill-rule="evenodd" fill="#C28044"/>
</svg>
