<svg width="72" height="102" viewBox="0 0 72 102" fill="none" xmlns="http://www.w3.org/2000/svg" xmlns:xlink="http://www.w3.org/1999/xlink">
<path d="M35.791,46.243L35.791,25.213L54.321,25.213C55.52,17.396 58.029,9.998 61.605,3.259C56.973,1.071 51.79,-0.16 46.31,-0.16C26.471,-0.16 10.395,15.923 10.395,35.734C10.395,55.555 26.471,71.605 46.31,71.605C51.768,71.605 56.951,70.385 61.583,68.208C58.007,61.458 55.509,54.082 54.321,46.243L35.791,46.243Z" clip-rule="evenodd" fill-rule="evenodd" transform="rotate(180 36 35.723)" fill="#005791"/>
<path d="M47.818,70.055C47.818,57.511 41.37,46.473 31.599,40.042C26.857,49.002 24.161,59.237 24.161,70.087C24.161,80.916 26.846,91.118 31.588,100.067C41.359,93.647 47.818,82.62 47.818,70.055Z" clip-rule="evenodd" fill-rule="evenodd" transform="rotate(180 35.99 70.054)" fill="#D71147"/>
</svg>
