<svg width="178" height="154" viewBox="0 0 178 154" fill="none" xmlns="http://www.w3.org/2000/svg" xmlns:xlink="http://www.w3.org/1999/xlink">
<path d="M153.877,55.845L76.577,23.771C73.321,22.419 69.641,23.014 66.976,25.321C64.31,27.629 63.195,31.185 64.067,34.602L70.947,61.583L104.634,61.583C106.184,61.583 107.441,62.84 107.441,64.39C107.441,65.941 106.184,67.198 104.634,67.198L70.947,67.198L64.067,94.179C63.195,97.596 64.31,101.152 66.976,103.46C69.647,105.772 73.326,106.359 76.577,105.01L153.877,72.936C157.396,71.475 159.583,68.201 159.583,64.39C159.583,60.58 157.396,57.306 153.877,55.845Z" transform="rotate(-53.579 111.679 64.39)" fill="#41BE90"/>
<line x1="14.611" y1="97.462" x2="59.084" y2="75.007" stroke="#41BE90" stroke-width="2.731" stroke-miterlimit="3.999327" stroke-linecap="round"/>
<line x1="33.476" y1="100.816" x2="64.265" y2="85.271" stroke="#FBA333" stroke-width="2.731" stroke-miterlimit="3.999327" stroke-linecap="round"/>
<line x1="50.63" y1="105.033" x2="69.446" y2="95.533" stroke="#41BE90" stroke-width="2.731" stroke-miterlimit="3.999327" stroke-linecap="round"/>
</svg>
