<svg width="70" height="72" viewBox="0 0 70 72" fill="none" xmlns="http://www.w3.org/2000/svg" xmlns:xlink="http://www.w3.org/1999/xlink">
<path d="M39.802,0.249C41.117,-0.082 42.587,0.214 43.627,1.097C45.376,2.482 45.678,5.299 44.249,7.018C41.498,10.222 38.737,13.417 35.983,16.618C35.264,17.464 34.088,17.892 32.995,17.696C31.893,17.529 30.921,16.735 30.524,15.699C30.138,14.748 30.255,13.622 30.808,12.761C32.913,9.298 35.017,5.835 37.115,2.368C37.677,1.335 38.658,0.54 39.802,0.249Z" transform="rotate(0 37.726 8.93)" fill="#EB2D4B"/>
<path d="M42.284,13.564C43.343,13.201 44.604,13.472 45.37,14.303C45.84,14.784 46.109,15.438 46.16,16.106C46.603,20.749 47.052,25.391 47.491,30.034C47.639,31.334 47.196,32.699 46.236,33.604C44.879,34.989 42.536,35.2 40.93,34.13C39.633,33.295 38.849,31.725 39.009,30.185C39.463,25.442 39.914,20.698 40.375,15.955C40.482,14.876 41.264,13.915 42.284,13.564Z" transform="rotate(0 43.254 24.107)" fill="#EB2D4B"/>
<path d="M3.049,13.729C4.776,13.255 6.767,13.959 7.732,15.485C9.909,19.065 12.079,22.651 14.257,26.233C14.69,26.924 14.873,27.778 14.705,28.581C14.516,29.696 13.68,30.664 12.611,31.025C11.393,31.469 9.924,31.093 9.089,30.097C6.357,26.921 3.619,23.751 0.888,20.575C-0.377,19.105 -0.417,16.76 0.788,15.243C1.351,14.51 2.156,13.966 3.049,13.729Z" transform="rotate(0 7.339 22.396)" fill="#EB2D4B"/>
<path d="M15.347,16.514C15.871,16.342 16.439,16.342 16.973,16.462C21.606,17.498 26.244,18.511 30.874,19.556C32.947,20.041 34.391,22.259 34.005,24.352C33.741,26.327 31.919,27.922 29.932,27.953C29.27,27.982 28.613,27.828 28.011,27.565C23.697,25.689 19.382,23.816 15.068,21.943C14,21.494 13.298,20.344 13.345,19.192C13.36,17.996 14.207,16.872 15.347,16.514Z" transform="rotate(0 23.705 22.167)" fill="#EB2D4B"/>
<path d="M52.093,28.206C53.201,27.796 54.342,28.259 55.433,28.489C58.945,29.318 62.458,30.144 65.972,30.97C66.839,31.17 67.652,31.626 68.238,32.301C69.176,33.33 69.537,34.841 69.184,36.188C68.903,37.376 68.062,38.405 66.976,38.953C65.873,39.509 64.532,39.558 63.394,39.076C59.534,37.45 55.667,35.837 51.807,34.211C50.649,33.714 49.86,32.473 49.914,31.211C49.905,29.879 50.827,28.618 52.093,28.206Z" transform="rotate(0 59.614 33.725)" fill="#EB2D4B"/>
<path d="M18.1,30.22C20.025,29.718 22.186,30.769 22.985,32.586C23.669,34.054 23.427,35.901 22.364,37.127C19.366,40.521 16.365,43.914 13.366,47.308C13.027,47.693 12.702,48.111 12.251,48.373C11.144,49.062 9.564,48.89 8.665,47.932C7.763,47.056 7.562,45.573 8.183,44.482C10.59,40.395 12.997,36.309 15.412,32.225C15.983,31.223 16.979,30.481 18.1,30.22Z" transform="rotate(0 15.597 39.443)" fill="#EB2D4B"/>
<path d="M53.688,38.258C54.811,37.962 56.104,38.388 56.777,39.349C57.506,40.316 57.522,41.743 56.831,42.735C56.514,43.208 56.043,43.558 55.523,43.779C51.245,45.633 46.966,47.491 42.69,49.352C41.485,49.902 40.024,49.869 38.86,49.235C37.485,48.506 36.581,46.982 36.627,45.424C36.609,43.522 38.038,41.734 39.893,41.325C44.491,40.299 49.092,39.288 53.688,38.258Z" transform="rotate(0 46.981 43.952)" fill="#EB2D4B"/>
<path d="M24.72,43.753C26.484,43.201 28.566,43.926 29.543,45.51C31.978,49.616 34.394,53.735 36.822,57.846C37.324,58.678 37.375,59.762 36.948,60.636C36.503,61.573 35.516,62.23 34.475,62.255C33.621,62.312 32.758,61.952 32.182,61.326C29.347,58.11 26.503,54.905 23.668,51.691C22.919,50.849 22.05,50.011 21.819,48.86C21.242,46.74 22.598,44.334 24.72,43.753Z" transform="rotate(0 29.461 52.915)" fill="#EB2D4B"/>
<path d="M16.834,49.912C18.443,49.506 20.233,50.556 20.651,52.161C21.114,53.648 20.318,55.398 18.878,56.006C14.988,57.639 11.097,59.274 7.202,60.898C5.438,61.629 3.231,60.989 2.153,59.406C1.281,58.195 1.125,56.515 1.748,55.16C2.269,53.979 3.364,53.085 4.618,52.786C8.69,51.83 12.762,50.868 16.834,49.912Z" transform="rotate(0 11.077 55.512)" fill="#EB2D4B"/>
<path d="M42.454,51.964C43.465,51.695 44.597,51.966 45.383,52.654C46.048,53.223 46.444,54.077 46.487,54.95C46.791,58.654 47.099,62.356 47.408,66.059C47.467,66.745 47.546,67.433 47.49,68.121C47.368,69.358 46.642,70.509 45.605,71.186C44.408,71.987 42.794,72.102 41.486,71.505C39.918,70.815 38.877,69.106 39,67.395C39.305,63.63 39.628,59.867 39.934,56.104C40.028,55.278 39.971,54.401 40.365,53.642C40.772,52.812 41.555,52.184 42.454,51.964Z" transform="rotate(0 43.25 61.872)" fill="#EB2D4B"/>
</svg>
