<svg width="184" height="188" viewBox="0 0 184 188" fill="none" xmlns="http://www.w3.org/2000/svg" xmlns:xlink="http://www.w3.org/1999/xlink">
<path d="M176.667,93.432C176.667,141.473 138.462,180.418 91.333,180.418C44.205,180.418 6,141.473 6,93.432C6,45.39 44.205,6.445 91.333,6.445C138.462,6.445 176.667,45.39 176.667,93.432Z" fill="#FFBB0D"/>
<path d="M182.988,93.432C182.988,145.032 141.953,186.861 91.333,186.861C40.714,186.861 -0.321,145.032 -0.321,93.432C-0.321,41.832 40.714,0.002 91.333,0.002C141.953,0.002 182.988,41.832 182.988,93.432ZM91.333,180.418C138.462,180.418 176.667,141.473 176.667,93.432C176.667,45.391 138.462,6.445 91.333,6.445C44.205,6.445 6,45.391 6,93.432C6,141.473 44.205,180.418 91.333,180.418Z" clip-rule="evenodd" fill-rule="evenodd" fill="#E89B05"/>
<path d="M91.333,9.668C93.079,9.668 94.494,11.11 94.494,12.89C94.494,59.152 57.704,96.654 12.321,96.654C10.575,96.654 9.16,95.212 9.16,93.433C9.16,91.653 10.575,90.211 12.321,90.211C54.213,90.211 88.173,55.593 88.173,12.89C88.173,11.11 89.588,9.668 91.333,9.668Z" clip-rule="evenodd" fill-rule="evenodd" transform="rotate(-360 51.827 53.161)" fill="#E8AA0A"/>
<path d="M170.346,90.209C172.091,90.209 173.506,91.651 173.506,93.431C173.506,139.693 136.716,177.195 91.333,177.195C89.588,177.195 88.173,175.753 88.173,173.974C88.173,172.194 89.588,170.752 91.333,170.752C133.225,170.752 167.185,136.134 167.185,93.431C167.185,91.651 168.6,90.209 170.346,90.209Z" clip-rule="evenodd" fill-rule="evenodd" fill="#E8AA0A"/>
<path d="M154.543,93.432C154.543,129.018 126.243,157.867 91.333,157.867C56.423,157.867 28.123,129.018 28.123,93.432C28.123,57.846 56.423,28.998 91.333,28.998C126.243,28.998 154.543,57.846 154.543,93.432Z" fill="#FFDD28"/>
<path d="M160.864,93.432C160.864,132.577 129.734,164.31 91.333,164.31C52.932,164.31 21.802,132.577 21.802,93.432C21.802,54.288 52.932,22.555 91.333,22.555C129.734,22.555 160.864,54.288 160.864,93.432ZM91.333,157.867C126.243,157.867 154.543,129.018 154.543,93.432C154.543,57.846 126.243,28.998 91.333,28.998C56.423,28.998 28.123,57.846 28.123,93.432C28.123,129.018 56.423,157.867 91.333,157.867Z" clip-rule="evenodd" fill-rule="evenodd" fill="#E89B05"/>
<path d="M148.222,96.654C118.549,96.654 94.494,121.175 94.494,151.423C94.494,153.202 93.079,154.644 91.333,154.644C89.588,154.644 88.173,153.202 88.173,151.423C88.173,117.616 115.058,90.21 148.222,90.21C149.967,90.21 151.382,91.653 151.382,93.432C151.382,95.211 149.967,96.654 148.222,96.654Z" clip-rule="evenodd" fill-rule="evenodd" transform="rotate(-360 119.778 122.427)" fill="#ECC704"/>
<path d="M91.333,38.662C61.66,38.662 37.605,63.183 37.605,93.431C37.605,95.211 36.19,96.653 34.444,96.653C32.699,96.653 31.284,95.211 31.284,93.431C31.284,59.625 58.169,32.219 91.333,32.219C93.079,32.219 94.494,33.661 94.494,35.44C94.494,37.22 93.079,38.662 91.333,38.662Z" clip-rule="evenodd" fill-rule="evenodd" fill="#FFEF9C"/>
</svg>
