<svg width="224" height="224" viewBox="0 0 224 224" fill="none" xmlns="http://www.w3.org/2000/svg" xmlns:xlink="http://www.w3.org/1999/xlink">
<g opacity="0.8" filter="url(#filter430_5646)">
<circle cx="111.07" cy="111.372" r="100.79" transform="rotate(-12.322 111.07 111.372)" fill="#FFFFFF"/>
</g>
<g filter="url(#filter430_5647)">
<circle cx="111.07" cy="111.371" r="78.743" transform="rotate(-12.322 111.07 111.371)" fill="#FFFFFF"/>
</g>
<path d="M92.334,111.456C101.016,111.456 108.043,104.367 108.043,95.609C108.043,86.851 101.016,79.762 92.334,79.762C83.652,79.762 76.625,86.851 76.625,95.609C76.625,104.367 83.652,111.456 92.334,111.456ZM103.106,115.983L101.942,115.983C99.024,117.398 95.784,118.247 92.334,118.247C88.883,118.247 85.657,117.398 82.726,115.983L81.562,115.983C72.641,115.983 65.404,123.284 65.404,132.283L65.404,136.358C65.404,140.107 68.419,143.15 72.136,143.15L112.531,143.15C116.248,143.15 119.264,140.107 119.264,136.358L119.264,132.283C119.264,123.284 112.026,115.983 103.106,115.983ZM132.729,111.456C140.162,111.456 146.194,105.372 146.194,97.873C146.194,90.374 140.162,84.29 132.729,84.29C125.295,84.29 119.264,90.374 119.264,97.873C119.264,105.372 125.295,111.456 132.729,111.456ZM139.461,115.983L138.928,115.983C136.979,116.663 134.917,117.115 132.729,117.115C130.541,117.115 128.479,116.663 126.529,115.983L125.996,115.983C123.135,115.983 120.498,116.818 118.184,118.162C121.606,121.884 123.752,126.822 123.752,132.283L123.752,137.716C123.752,138.028 123.682,138.325 123.668,138.622L148.438,138.622C152.155,138.622 155.17,135.58 155.17,131.83C155.17,123.072 148.143,115.983 139.461,115.983L139.461,115.983Z" transform="rotate(-12.322 110.287 111.456)" fill="#2C93F1"/>
<defs>
<filter id="filter430_5646" x="-45.14753" y="-44.845515" width="201.410031" height="201.410031" filterUnits="userSpaceOnUse" color-interpolation-filters="sRGB">
<feFlood flood-opacity="0" result="BackgroundImageFix"/>
<feColorMatrix in="SourceAlpha" type="matrix" values="0 0 0 0 0 0 0 0 0 0 0 0 0 0 0 0 0 0 127 0" result="hardAlpha"/>
<feMorphology radius="0" operator="dilate" in="SourceAlpha" result="0dropshadow"/>
<feOffset dx="0" dy="9.415094"/>
<feGaussianBlur stdDeviation="22.596226"/>
<feComposite in2="hardAlpha" operator="out"/>
<feColorMatrix type="matrix" values="0 0 0 0 0.156863 0 0 0 0 0.168627 0 0 0 0 0.435294 0 0 0 0.15 0"/>
<feBlend mode="normal" in2="BackgroundImageFix" result="0dropshadow"/>
<feBlend mode="normal" in="SourceGraphic" in2="0dropshadow" result="shape"/>
</filter>
<filter id="filter430_5647" x="-20.86042" y="-20.559468" width="177.123278" height="177.123278" filterUnits="userSpaceOnUse" color-interpolation-filters="sRGB">
<feFlood flood-opacity="0" result="BackgroundImageFix"/>
<feColorMatrix in="SourceAlpha" type="matrix" values="0 0 0 0 0 0 0 0 0 0 0 0 0 0 0 0 0 0 127 0" result="hardAlpha"/>
<feMorphology radius="0" operator="dilate" in="SourceAlpha" result="0dropshadow"/>
<feOffset dx="0" dy="9.415094"/>
<feGaussianBlur stdDeviation="22.596226"/>
<feComposite in2="hardAlpha" operator="out"/>
<feColorMatrix type="matrix" values="0 0 0 0 0.156863 0 0 0 0 0.168627 0 0 0 0 0.435294 0 0 0 0.15 0"/>
<feBlend mode="normal" in2="BackgroundImageFix" result="0dropshadow"/>
<feBlend mode="normal" in="SourceGraphic" in2="0dropshadow" result="shape"/>
</filter>
</defs>
</svg>
