<svg width="186" height="664" viewBox="0 0 186 664" fill="none" xmlns="http://www.w3.org/2000/svg" xmlns:xlink="http://www.w3.org/1999/xlink">
<g opacity="0.8" filter="url(#filter430_5332)">
<circle cx="93" cy="571" r="93" fill="#F9F9F9"/>
</g>
<g filter="url(#filter430_5333)">
<circle cx="93" cy="571" r="73" fill="#F9F9F9"/>
</g>
<path d="M133.105,36.814C130.694,35.037 127.28,34.468 124.406,35.364C123.636,35.605 122.92,35.942 122.28,36.367C120.645,37.451 117.017,40.705 114.142,43.926L114.142,19.102C114.142,16.992 113.181,14.929 111.503,13.443C109.839,11.968 107.652,11.172 105.357,11.211C104.315,11.227 103.316,11.414 102.394,11.739L102.394,9.315C102.394,7.018 101.347,4.774 99.52,3.155C97.71,1.55 95.341,0.686 92.836,0.727C87.841,0.805 83.763,4.466 83.614,8.941C82.532,8.499 81.357,8.251 80.14,8.218C77.603,8.151 75.09,9.036 73.247,10.649C71.443,12.228 70.449,14.313 70.449,16.513L70.442,18.864C69.664,18.634 68.833,18.507 67.97,18.507C63.614,18.507 60.07,21.702 60.07,25.63L60.073,61.715L60.08,61.886C60.444,66.622 61.543,70.676 63.348,73.938C65.04,76.996 67.401,79.458 70.364,81.256C76.197,84.795 83.401,85.249 89.026,85.249C100.072,85.249 110.009,80.297 114.979,72.322C115.583,71.443 117.176,69.185 118.896,66.749C120.571,64.376 122.129,62.189 123.503,60.26C124.259,59.199 124.946,58.235 125.542,57.394C127.764,54.26 130.132,51.222 132.581,48.364C133.489,47.303 133.769,47.016 133.833,46.953C134.979,45.825 135.701,44.444 135.922,42.959C136.268,40.629 135.241,38.389 133.105,36.814ZM130.472,42.301C130.401,42.776 130.162,43.226 129.779,43.603C129.579,43.799 129.223,44.173 128.23,45.333C125.682,48.307 123.219,51.466 120.909,54.723C120.314,55.562 119.63,56.522 118.876,57.581C117.499,59.514 115.939,61.706 114.258,64.087C112.498,66.58 110.868,68.889 110.272,69.758L110.21,69.853C106.221,76.291 98.105,80.291 89.027,80.291C84.183,80.291 78.033,79.933 73.435,77.143C68.743,74.297 66.171,69.222 65.572,61.628L65.569,25.63C65.569,24.437 66.646,23.465 67.97,23.465C69.302,23.465 70.385,24.437 70.385,25.63L70.385,39.134C70.385,39.174 70.39,39.213 70.392,39.253C70.395,39.297 70.395,39.341 70.4,39.385C70.404,39.425 70.412,39.463 70.419,39.501C70.426,39.544 70.431,39.588 70.44,39.632C70.45,39.67 70.462,39.708 70.473,39.746C70.485,39.787 70.494,39.829 70.508,39.869C70.521,39.908 70.538,39.945 70.554,39.982C70.569,40.02 70.583,40.059 70.601,40.096C70.618,40.134 70.638,40.169 70.658,40.205C70.677,40.242 70.695,40.278 70.716,40.314C70.736,40.349 70.761,40.382 70.784,40.416C70.807,40.451 70.829,40.485 70.853,40.518C70.878,40.551 70.906,40.582 70.932,40.614C70.959,40.646 70.983,40.679 71.011,40.709C71.039,40.739 71.07,40.767 71.098,40.796C71.128,40.826 71.157,40.857 71.188,40.886C71.219,40.913 71.251,40.937 71.283,40.964C71.316,40.991 71.349,41.02 71.384,41.046C71.417,41.07 71.452,41.092 71.486,41.115C71.522,41.14 71.557,41.166 71.595,41.189C71.63,41.21 71.667,41.228 71.703,41.248C71.742,41.269 71.781,41.293 71.821,41.313C71.858,41.331 71.898,41.346 71.936,41.363C71.977,41.382 72.019,41.401 72.062,41.418C72.101,41.433 72.143,41.445 72.183,41.458C72.227,41.473 72.27,41.489 72.314,41.502C72.356,41.513 72.401,41.522 72.444,41.532C72.489,41.542 72.532,41.555 72.577,41.563C72.623,41.571 72.669,41.576 72.715,41.582C72.76,41.588 72.805,41.596 72.85,41.601C72.896,41.605 72.943,41.605 72.99,41.607C73.036,41.609 73.081,41.614 73.128,41.614C73.13,41.614 73.133,41.614 73.135,41.614C73.23,41.614 73.324,41.609 73.416,41.601C73.456,41.598 73.496,41.59 73.536,41.585C73.586,41.578 73.639,41.573 73.689,41.564C73.742,41.554 73.792,41.54 73.844,41.528C73.88,41.519 73.917,41.513 73.952,41.503C74.009,41.487 74.065,41.467 74.121,41.447C74.148,41.438 74.177,41.43 74.204,41.42C74.26,41.398 74.313,41.373 74.367,41.349C74.392,41.338 74.419,41.328 74.445,41.316C74.495,41.291 74.542,41.263 74.59,41.236C74.617,41.221 74.645,41.208 74.671,41.191C74.715,41.165 74.757,41.135 74.799,41.105C74.827,41.086 74.856,41.069 74.882,41.049C74.922,41.021 74.957,40.988 74.995,40.957C75.022,40.935 75.051,40.913 75.078,40.89C75.113,40.859 75.143,40.825 75.175,40.793C75.202,40.766 75.231,40.741 75.256,40.714C75.284,40.682 75.31,40.648 75.337,40.616C75.363,40.585 75.39,40.555 75.414,40.523C75.439,40.49 75.459,40.456 75.482,40.421C75.505,40.387 75.53,40.354 75.552,40.319C75.572,40.284 75.59,40.248 75.609,40.213C75.628,40.176 75.65,40.14 75.667,40.102C75.685,40.066 75.698,40.028 75.713,39.991C75.729,39.953 75.746,39.915 75.76,39.875C75.773,39.837 75.783,39.798 75.793,39.759C75.805,39.719 75.818,39.679 75.828,39.637C75.837,39.599 75.842,39.558 75.848,39.518C75.856,39.476 75.865,39.434 75.87,39.392C75.875,39.352 75.875,39.31 75.877,39.27C75.88,39.227 75.885,39.185 75.885,39.141L75.949,16.52C75.949,15.666 76.35,14.844 77.078,14.207C77.86,13.522 78.919,13.144 79.978,13.174C81.962,13.228 83.576,14.784 83.576,16.647L83.607,39.003C83.607,39.049 83.612,39.092 83.615,39.136C83.617,39.176 83.617,39.216 83.622,39.255C83.627,39.301 83.637,39.346 83.645,39.391C83.651,39.428 83.655,39.465 83.663,39.501C83.675,39.55 83.69,39.598 83.705,39.646C83.714,39.677 83.721,39.708 83.731,39.739C83.749,39.79 83.772,39.84 83.793,39.891C83.804,39.916 83.812,39.942 83.823,39.966C83.849,40.02 83.878,40.072 83.908,40.124C83.919,40.143 83.928,40.164 83.939,40.182C83.971,40.236 84.008,40.287 84.044,40.337C84.055,40.354 84.065,40.371 84.077,40.387C84.115,40.438 84.157,40.485 84.198,40.533C84.211,40.548 84.222,40.563 84.235,40.578C84.282,40.628 84.332,40.676 84.383,40.723C84.393,40.734 84.402,40.744 84.413,40.754C84.465,40.801 84.521,40.845 84.577,40.888C84.588,40.896 84.597,40.905 84.608,40.914C84.664,40.955 84.723,40.993 84.782,41.031C84.795,41.039 84.807,41.048 84.82,41.056C84.88,41.093 84.943,41.126 85.006,41.158C85.019,41.165 85.032,41.173 85.046,41.18C85.112,41.212 85.18,41.24 85.249,41.268C85.262,41.273 85.274,41.28 85.287,41.285C85.357,41.311 85.429,41.334 85.502,41.356C85.515,41.359 85.526,41.364 85.539,41.368C85.611,41.388 85.685,41.404 85.759,41.419C85.774,41.422 85.788,41.426 85.803,41.429C85.982,41.462 86.167,41.48 86.357,41.48C86.358,41.48 86.359,41.48 86.361,41.48C86.409,41.48 86.456,41.475 86.503,41.473C86.549,41.471 86.595,41.471 86.64,41.467C86.69,41.462 86.738,41.453 86.787,41.446C86.829,41.44 86.871,41.437 86.913,41.429C86.962,41.42 87.01,41.407 87.059,41.395C87.098,41.386 87.138,41.378 87.176,41.368C87.225,41.354 87.273,41.337 87.321,41.32C87.356,41.308 87.394,41.298 87.429,41.284C87.478,41.265 87.526,41.242 87.574,41.221C87.605,41.207 87.638,41.195 87.669,41.18C87.716,41.157 87.761,41.13 87.807,41.104C87.836,41.088 87.867,41.073 87.896,41.055C87.939,41.029 87.98,40.999 88.021,40.97C88.05,40.951 88.079,40.933 88.107,40.912C88.147,40.883 88.184,40.85 88.222,40.819C88.248,40.797 88.276,40.776 88.303,40.752C88.338,40.72 88.37,40.685 88.404,40.652C88.429,40.627 88.456,40.603 88.48,40.576C88.51,40.543 88.537,40.507 88.565,40.473C88.589,40.443 88.615,40.415 88.638,40.385C88.664,40.351 88.685,40.315 88.709,40.28C88.731,40.247 88.755,40.214 88.775,40.181C88.797,40.145 88.814,40.108 88.833,40.072C88.853,40.036 88.874,40.001 88.891,39.964C88.908,39.928 88.921,39.891 88.935,39.854C88.952,39.815 88.97,39.776 88.983,39.736C88.996,39.697 89.006,39.658 89.017,39.619C89.028,39.579 89.042,39.539 89.051,39.499C89.06,39.458 89.065,39.416 89.072,39.376C89.078,39.334 89.088,39.294 89.092,39.252C89.097,39.21 89.097,39.168 89.099,39.125C89.102,39.083 89.106,39.043 89.106,39L89.106,9.196C89.106,7.292 90.823,5.718 92.932,5.685C93.95,5.672 94.916,6.026 95.667,6.691C96.448,7.383 96.895,8.34 96.895,9.315L96.895,39.137C96.895,39.182 96.9,39.226 96.903,39.27C96.905,39.31 96.905,39.35 96.91,39.389C96.915,39.433 96.925,39.475 96.932,39.519C96.939,39.558 96.943,39.597 96.952,39.635C96.962,39.679 96.976,39.721 96.988,39.763C96.999,39.8 97.007,39.837 97.02,39.873C97.036,39.919 97.056,39.963 97.074,40.007C97.087,40.038 97.098,40.07 97.112,40.1C97.134,40.147 97.16,40.191 97.185,40.236C97.199,40.263 97.212,40.291 97.228,40.317C97.255,40.363 97.287,40.406 97.317,40.45C97.334,40.473 97.348,40.498 97.366,40.521C97.399,40.565 97.435,40.607 97.472,40.649C97.49,40.67 97.505,40.692 97.524,40.712C97.564,40.756 97.608,40.797 97.652,40.839C97.669,40.855 97.684,40.872 97.701,40.888C97.746,40.929 97.795,40.966 97.844,41.004C97.862,41.019 97.878,41.034 97.897,41.048C97.951,41.088 98.008,41.125 98.065,41.162C98.08,41.171 98.093,41.181 98.108,41.191C98.17,41.228 98.234,41.262 98.299,41.295C98.311,41.301 98.322,41.309 98.334,41.315C98.406,41.349 98.479,41.38 98.554,41.41C98.561,41.413 98.567,41.417 98.575,41.419C98.653,41.449 98.733,41.475 98.814,41.498C98.818,41.5 98.823,41.501 98.828,41.502C98.999,41.551 99.177,41.584 99.361,41.601C99.362,41.601 99.363,41.601 99.364,41.601C99.456,41.609 99.55,41.614 99.645,41.614C99.646,41.614 99.647,41.614 99.648,41.614C99.697,41.614 99.745,41.609 99.793,41.607C99.838,41.605 99.883,41.605 99.928,41.601C99.978,41.596 100.028,41.587 100.078,41.58C100.119,41.575 100.16,41.571 100.201,41.563C100.254,41.553 100.306,41.539 100.358,41.527C100.393,41.518 100.43,41.512 100.464,41.502C100.52,41.486 100.573,41.467 100.628,41.448C100.657,41.438 100.687,41.429 100.716,41.418C100.772,41.397 100.824,41.373 100.878,41.348C100.904,41.337 100.931,41.327 100.957,41.314C101.009,41.288 101.059,41.259 101.11,41.23C101.134,41.217 101.159,41.204 101.184,41.19C101.235,41.159 101.283,41.124 101.332,41.09C101.352,41.075 101.374,41.062 101.395,41.047C101.443,41.011 101.488,40.972 101.534,40.933C101.553,40.917 101.573,40.903 101.59,40.887C101.634,40.847 101.676,40.805 101.716,40.761C101.733,40.745 101.751,40.728 101.768,40.711C101.807,40.668 101.843,40.622 101.879,40.577C101.894,40.558 101.911,40.54 101.926,40.52C101.959,40.475 101.99,40.428 102.02,40.381C102.034,40.359 102.05,40.338 102.064,40.316C102.092,40.268 102.117,40.218 102.142,40.169C102.154,40.145 102.168,40.123 102.179,40.099C102.202,40.051 102.221,40 102.24,39.951C102.25,39.924 102.263,39.899 102.272,39.871C102.288,39.824 102.3,39.774 102.313,39.726C102.321,39.695 102.332,39.664 102.339,39.633C102.35,39.586 102.356,39.536 102.364,39.488C102.369,39.454 102.377,39.421 102.381,39.387C102.386,39.342 102.386,39.296 102.389,39.249C102.391,39.211 102.395,39.174 102.395,39.134L102.395,18.672C102.574,17.288 103.876,16.193 105.453,16.168C106.263,16.156 107.046,16.444 107.65,16.979C108.282,17.539 108.645,18.313 108.645,19.102L108.645,48.365L108.646,48.476C108.661,50.082 109.831,51.44 111.557,51.854C113.271,52.264 115.023,51.615 115.924,50.223L115.941,50.196C118.097,46.8 123.858,41.477 125.54,40.362C125.735,40.232 125.958,40.128 126.205,40.051C127.301,39.71 128.675,39.951 129.626,40.653C130.074,40.984 130.585,41.538 130.472,42.301Z" fill="#F48C06"/>
<defs>
<filter id="filter430_5332" x="-34" y="444" width="161" height="161" filterUnits="userSpaceOnUse" color-interpolation-filters="sRGB">
<feFlood flood-opacity="0" result="BackgroundImageFix"/>
<feColorMatrix in="SourceAlpha" type="matrix" values="0 0 0 0 0 0 0 0 0 0 0 0 0 0 0 0 0 0 127 0" result="hardAlpha"/>
<feMorphology radius="0" operator="dilate" in="SourceAlpha" result="0dropshadow"/>
<feOffset dx="2" dy="10"/>
<feGaussianBlur stdDeviation="17"/>
<feComposite in2="hardAlpha" operator="out"/>
<feColorMatrix type="matrix" values="0 0 0 0 0.058824 0 0 0 0 0.07451 0 0 0 0 0.152941 0 0 0 0.15 0"/>
<feBlend mode="normal" in2="BackgroundImageFix" result="0dropshadow"/>
<feBlend mode="normal" in="SourceGraphic" in2="0dropshadow" result="shape"/>
</filter>
<filter id="filter430_5333" x="-14" y="464" width="141" height="141" filterUnits="userSpaceOnUse" color-interpolation-filters="sRGB">
<feFlood flood-opacity="0" result="BackgroundImageFix"/>
<feColorMatrix in="SourceAlpha" type="matrix" values="0 0 0 0 0 0 0 0 0 0 0 0 0 0 0 0 0 0 127 0" result="hardAlpha"/>
<feMorphology radius="0" operator="dilate" in="SourceAlpha" result="0dropshadow"/>
<feOffset dx="2" dy="10"/>
<feGaussianBlur stdDeviation="17"/>
<feComposite in2="hardAlpha" operator="out"/>
<feColorMatrix type="matrix" values="0 0 0 0 0.058824 0 0 0 0 0.07451 0 0 0 0 0.152941 0 0 0 0.15 0"/>
<feBlend mode="normal" in2="BackgroundImageFix" result="0dropshadow"/>
<feBlend mode="normal" in="SourceGraphic" in2="0dropshadow" result="shape"/>
</filter>
</defs>
</svg>
