<svg width="132" height="186" viewBox="0 0 132 186" fill="none" xmlns="http://www.w3.org/2000/svg" xmlns:xlink="http://www.w3.org/1999/xlink">
<path d="M50.721,6.972C50.721,4.993 52.356,3.388 54.374,3.388L76.29,3.388C78.308,3.388 79.943,4.993 79.943,6.972L79.943,96.555C79.943,98.534 78.308,100.138 76.29,100.138L54.374,100.138C52.356,100.138 50.721,98.534 50.721,96.555L50.721,6.972Z" transform="rotate(180 65.332 51.763)" fill="#C52229"/>
<path d="M54.374,-0.195L76.291,-0.195C80.325,-0.195 83.596,3.014 83.596,6.972L83.596,96.555C83.596,100.513 80.325,103.722 76.291,103.722L54.374,103.722C50.339,103.722 47.069,100.513 47.069,96.555L47.069,6.972C47.069,3.014 50.339,-0.195 54.374,-0.195ZM54.374,3.389C52.357,3.389 50.721,4.993 50.721,6.972L50.721,96.555C50.721,98.534 52.357,100.139 54.374,100.139L76.291,100.139C78.308,100.139 79.944,98.534 79.944,96.555L79.944,6.972C79.944,4.993 78.308,3.389 76.291,3.389L54.374,3.389Z" clip-rule="evenodd" fill-rule="evenodd" transform="rotate(180 65.332 51.764)" fill="#9B0F15"/>
<path d="M20.213,38.979C20.213,37.97 21.015,37.152 22.005,37.152L109.676,37.152C110.665,37.152 111.467,37.97 111.467,38.979C111.467,39.987 110.665,40.805 109.676,40.805L22.005,40.805C21.015,40.805 20.213,39.987 20.213,38.979Z" clip-rule="evenodd" fill-rule="evenodd" fill="#DF3840"/>
<path d="M19.532,49.596C19.532,48.587 20.335,47.77 21.324,47.77L108.995,47.77C109.985,47.77 110.787,48.587 110.787,49.596C110.787,50.605 109.985,51.422 108.995,51.422L21.324,51.422C20.335,51.422 19.532,50.605 19.532,49.596Z" clip-rule="evenodd" fill-rule="evenodd" fill="#AF1B22"/>
<path d="M19.532,42.86C19.532,41.851 20.335,41.033 21.324,41.033L108.995,41.033C109.985,41.033 110.787,41.851 110.787,42.86C110.787,43.868 109.985,44.686 108.995,44.686L21.324,44.686C20.335,44.686 19.532,43.868 19.532,42.86Z" clip-rule="evenodd" fill-rule="evenodd" fill="#AF1B22"/>
<path d="M19.532,56.215C19.532,55.206 20.335,54.389 21.324,54.389L108.995,54.389C109.985,54.389 110.787,55.206 110.787,56.215C110.787,57.224 109.985,58.041 108.995,58.041L21.324,58.041C20.335,58.041 19.532,57.224 19.532,56.215Z" clip-rule="evenodd" fill-rule="evenodd" fill="#AF1B22"/>
<path d="M20.213,62.266C20.213,61.257 21.015,60.439 22.005,60.439L109.676,60.439C110.665,60.439 111.467,61.257 111.467,62.266C111.467,63.274 110.665,64.092 109.676,64.092L22.005,64.092C21.015,64.092 20.213,63.274 20.213,62.266Z" clip-rule="evenodd" fill-rule="evenodd" fill="#AF1B22"/>
<path d="M28.464,36.434C28.464,34.435 30.084,32.815 32.082,32.815L53.791,32.815C55.789,32.815 57.409,34.435 57.409,36.434L57.409,123.71C57.409,125.708 55.789,127.328 53.791,127.328L32.082,127.328C30.084,127.328 28.464,125.708 28.464,123.71L28.464,36.434Z" transform="rotate(268.901 42.936 80.072)" fill="#F1333B"/>
<path d="M32.082,29.197L53.791,29.197C57.788,29.197 61.027,32.437 61.027,36.433L61.027,123.709C61.027,127.706 57.788,130.946 53.791,130.946L32.082,130.946C28.085,130.946 24.845,127.706 24.845,123.709L24.845,36.433C24.845,32.437 28.085,29.197 32.082,29.197ZM32.082,32.815C30.084,32.815 28.464,34.435 28.464,36.433L28.464,123.709C28.464,125.707 30.084,127.327 32.082,127.327L53.791,127.327C55.789,127.327 57.409,125.707 57.409,123.709L57.409,36.433C57.409,34.435 55.789,32.815 53.791,32.815L32.082,32.815Z" clip-rule="evenodd" fill-rule="evenodd" transform="rotate(268.901 42.936 80.071)" fill="#9B0F15"/>
<path d="M73.562,37.122C73.534,35.105 75.162,33.454 77.18,33.454L98.888,33.454C100.867,33.454 102.479,35.044 102.506,37.023L103.686,123.02C103.714,125.037 102.086,126.687 100.068,126.687L78.36,126.687C76.381,126.687 74.769,125.098 74.742,123.119L73.562,37.122Z" transform="rotate(91.099 88.624 80.071)" fill="#F1333B"/>
<path d="M77.18,29.836L98.888,29.836C102.846,29.836 106.07,33.016 106.124,36.973L107.304,122.97C107.359,127.005 104.104,130.305 100.068,130.305L78.36,130.305C74.402,130.305 71.178,127.126 71.124,123.168L69.944,37.172C69.889,33.137 73.144,29.836 77.18,29.836ZM77.18,33.454C75.162,33.454 73.534,35.105 73.562,37.122L74.742,123.119C74.769,125.097 76.381,126.687 78.36,126.687L100.068,126.687C102.086,126.687 103.714,125.037 103.686,123.019L102.506,37.023C102.479,35.044 100.867,33.454 98.888,33.454L77.18,33.454Z" clip-rule="evenodd" fill-rule="evenodd" transform="rotate(91.099 88.624 80.071)" fill="#9B0F15"/>
<path d="M111.049,40.193C111.752,40.903 111.757,42.059 111.061,42.776L74.443,80.445C73.747,81.161 72.612,81.167 71.909,80.457C71.207,79.747 71.201,78.59 71.898,77.874L108.515,40.205C109.212,39.488 110.346,39.483 111.049,40.193Z" clip-rule="evenodd" fill-rule="evenodd" fill="#FE666D"/>
<path d="M2.701,55.494C3.4,54.781 4.535,54.781 5.234,55.494L28.526,79.237C29.226,79.95 29.226,81.106 28.526,81.82C27.826,82.533 26.692,82.533 25.992,81.82L2.701,58.077C2.001,57.364 2.001,56.207 2.701,55.494Z" clip-rule="evenodd" fill-rule="evenodd" fill="#FE666D"/>
<path d="M118.879,49.374C118.879,50.398 118.069,51.229 117.069,51.229C116.07,51.229 115.26,50.398 115.26,49.374C115.26,48.349 116.07,47.519 117.069,47.519C118.069,47.519 118.879,48.349 118.879,49.374Z" transform="rotate(91.099 117.069 49.374)" fill="#DB1B24"/>
<path d="M113.562,53.58C113.562,54.854 112.554,55.887 111.311,55.887C110.067,55.887 109.06,54.854 109.06,53.58C109.06,52.306 110.067,51.273 111.311,51.273C112.554,51.273 113.562,52.306 113.562,53.58Z" transform="rotate(91.099 111.311 53.58)" fill="#DB1B24"/>
<path d="M119.03,55.813C119.03,56.45 118.526,56.966 117.905,56.966C117.283,56.966 116.779,56.45 116.779,55.813C116.779,55.175 117.283,54.659 117.905,54.659C118.526,54.659 119.03,55.175 119.03,55.813Z" transform="rotate(91.099 117.905 55.813)" fill="#DB1B24"/>
<path d="M106.124,71.242C106.124,71.879 105.62,72.396 104.998,72.396C104.377,72.396 103.873,71.879 103.873,71.242C103.873,70.605 104.377,70.089 104.998,70.089C105.62,70.089 106.124,70.605 106.124,71.242Z" transform="rotate(91.099 104.998 71.242)" fill="#DB1B24"/>
<path d="M112.603,60.758C112.603,61.395 112.099,61.912 111.477,61.912C110.856,61.912 110.352,61.395 110.352,60.758C110.352,60.121 110.856,59.604 111.477,59.604C112.099,59.604 112.603,60.121 112.603,60.758Z" transform="rotate(91.099 111.477 60.758)" fill="#DB1B24"/>
<path d="M106.104,77.533C106.104,78.17 105.6,78.687 104.978,78.687C104.357,78.687 103.853,78.17 103.853,77.533C103.853,76.896 104.357,76.38 104.978,76.38C105.6,76.38 106.104,76.896 106.104,77.533Z" transform="rotate(91.099 104.978 77.533)" fill="#DB1B24"/>
<path d="M107.74,59.371C107.74,60.008 107.236,60.525 106.614,60.525C105.992,60.525 105.489,60.008 105.489,59.371C105.489,58.734 105.992,58.217 106.614,58.217C107.236,58.217 107.74,58.734 107.74,59.371Z" transform="rotate(91.099 106.614 59.371)" fill="#DB1B24"/>
<path d="M111.375,72.383C111.375,73.02 110.871,73.537 110.249,73.537C109.627,73.537 109.124,73.02 109.124,72.383C109.124,71.746 109.627,71.229 110.249,71.229C110.871,71.229 111.375,71.746 111.375,72.383Z" transform="rotate(91.099 110.249 72.383)" fill="#DB1B24"/>
<path d="M124.44,52.932C124.44,53.569 123.936,54.085 123.315,54.085C122.693,54.085 122.189,53.569 122.189,52.932C122.189,52.295 122.693,51.778 123.315,51.778C123.936,51.778 124.44,52.295 124.44,52.932Z" transform="rotate(91.099 123.315 52.932)" fill="#DB1B24"/>
<path d="M118.742,61.97C118.742,63.007 117.922,63.848 116.91,63.848C115.898,63.848 115.078,63.007 115.078,61.97C115.078,60.933 115.898,60.093 116.91,60.093C117.922,60.093 118.742,60.933 118.742,61.97Z" transform="rotate(91.099 116.91 61.97)" fill="#DB1B24"/>
<path d="M125.664,57.529C125.664,58.566 124.844,59.406 123.832,59.406C122.821,59.406 122,58.566 122,57.529C122,56.492 122.821,55.651 123.832,55.651C124.844,55.651 125.664,56.492 125.664,57.529Z" transform="rotate(91.099 123.832 57.529)" fill="#DB1B24"/>
<path d="M111.641,66.681C111.641,67.718 110.821,68.559 109.809,68.559C108.798,68.559 107.978,67.718 107.978,66.681C107.978,65.644 108.798,64.804 109.809,64.804C110.821,64.804 111.641,65.644 111.641,66.681Z" transform="rotate(91.099 109.809 66.681)" fill="#DB1B24"/>
<path d="M116.464,67.988C116.464,68.625 115.96,69.142 115.339,69.142C114.717,69.142 114.213,68.625 114.213,67.988C114.213,67.351 114.717,66.835 115.339,66.835C115.96,66.835 116.464,67.351 116.464,67.988Z" transform="rotate(91.099 115.339 67.988)" fill="#DB1B24"/>
<path d="M114.375,132.804C114.375,160.039 92.717,182.116 66,182.116C39.283,182.116 17.625,160.039 17.625,132.804C17.625,105.57 39.283,83.492 66,83.492C92.717,83.492 114.375,105.57 114.375,132.804Z" fill="#FFBB0D"/>
<path d="M117.959,132.805C117.959,162.056 94.696,185.769 66,185.769C37.305,185.769 14.042,162.056 14.042,132.805C14.042,103.553 37.305,79.84 66,79.84C94.696,79.84 117.959,103.553 117.959,132.805ZM66,182.117C92.717,182.117 114.375,160.039 114.375,132.805C114.375,105.57 92.717,83.493 66,83.493C39.284,83.493 17.625,105.57 17.625,132.805C17.625,160.039 39.284,182.117 66,182.117Z" clip-rule="evenodd" fill-rule="evenodd" fill="#E89B05"/>
<path d="M66,85.319C66.99,85.319 67.792,86.136 67.792,87.145C67.792,113.371 46.936,134.631 21.209,134.631C20.219,134.631 19.417,133.813 19.417,132.804C19.417,131.796 20.219,130.978 21.209,130.978C44.957,130.978 64.209,111.353 64.209,87.145C64.209,86.136 65.011,85.319 66,85.319Z" clip-rule="evenodd" fill-rule="evenodd" transform="rotate(-360 43.604 109.975)" fill="#E8AA0A"/>
<path d="M110.792,130.979C111.781,130.979 112.583,131.796 112.583,132.805C112.583,159.031 91.727,180.291 66,180.291C65.01,180.291 64.208,179.473 64.208,178.464C64.208,177.456 65.01,176.638 66,176.638C89.748,176.638 109,157.013 109,132.805C109,131.796 109.802,130.979 110.792,130.979Z" clip-rule="evenodd" fill-rule="evenodd" fill="#E8AA0A"/>
<path d="M101.834,132.805C101.834,152.978 85.791,169.332 66,169.332C46.21,169.332 30.167,152.978 30.167,132.805C30.167,112.631 46.21,96.277 66,96.277C85.791,96.277 101.834,112.631 101.834,132.805Z" fill="#FFDD28"/>
<path d="M105.417,132.805C105.417,154.996 87.769,172.985 66,172.985C44.231,172.985 26.583,154.996 26.583,132.805C26.583,110.614 44.231,92.625 66,92.625C87.769,92.625 105.417,110.614 105.417,132.805ZM66,169.333C85.79,169.333 101.833,152.979 101.833,132.805C101.833,112.632 85.79,96.278 66,96.278C46.21,96.278 30.167,112.632 30.167,132.805C30.167,152.979 46.21,169.333 66,169.333Z" clip-rule="evenodd" fill-rule="evenodd" fill="#E89B05"/>
<path d="M98.25,134.631C81.429,134.631 67.792,148.532 67.792,165.679C67.792,166.688 66.99,167.506 66,167.506C65.011,167.506 64.209,166.688 64.209,165.679C64.209,146.515 79.45,130.978 98.25,130.978C99.24,130.978 100.042,131.796 100.042,132.805C100.042,133.813 99.24,134.631 98.25,134.631Z" clip-rule="evenodd" fill-rule="evenodd" transform="rotate(-360 82.125 149.242)" fill="#ECC704"/>
<path d="M66,101.756C49.178,101.756 35.542,115.657 35.542,132.805C35.542,133.813 34.739,134.631 33.75,134.631C32.76,134.631 31.958,133.813 31.958,132.805C31.958,113.64 47.199,98.104 66,98.104C66.989,98.104 67.792,98.921 67.792,99.93C67.792,100.939 66.989,101.756 66,101.756Z" clip-rule="evenodd" fill-rule="evenodd" fill="#FFEF9C"/>
<path d="M46.292,128.054L58.609,125.497L62.305,119.105L66,112.713L73.391,125.497L85.708,128.054L75.854,138.282L78.318,151.067L66,144.674L53.682,151.067L56.146,138.282L46.292,128.054Z" fill="#FFEF9C"/>
<path d="M58.609,125.498L66,112.713L73.39,125.498L85.708,128.055L75.854,138.283L78.317,151.067L66,144.675L53.682,151.067L56.146,138.283L46.291,128.055L58.609,125.498ZM52.265,139.468L43.735,130.614C42.815,129.659 42.481,128.267 42.865,126.987C43.249,125.706 44.289,124.743 45.576,124.476L56.332,122.243L62.913,110.859C63.557,109.745 64.731,109.061 66,109.061C67.269,109.061 68.443,109.745 69.087,110.859L75.668,122.243L86.423,124.476C87.71,124.743 88.751,125.706 89.135,126.987C89.519,128.267 89.185,129.659 88.265,130.614L79.734,139.468L81.834,150.363C82.098,151.735 81.571,153.139 80.477,153.982C79.383,154.824 77.914,154.956 76.692,154.322L66,148.774L55.308,154.322C54.086,154.956 52.616,154.824 51.522,153.982C50.428,153.139 49.902,151.735 50.166,150.363L52.265,139.468Z" clip-rule="evenodd" fill-rule="evenodd" fill="#E89B05"/>
</svg>
