<svg width="3840" height="2236" viewBox="0 0 3840 2236" fill="none" xmlns="http://www.w3.org/2000/svg" xmlns:xlink="http://www.w3.org/1999/xlink">
<path d="M0,0L3840,0L3840,1980C3840,1980 3236,2236 1920,2236C604,2236 0,1980 0,1980L0,0Z" fill="#44624A" fill-opacity="0.9"/>
<circle cx="3534" cy="1272" r="20" fill="#C4C4C4"/>
<circle cx="3534" cy="1272" r="20" fill="#4EE381"/>
<path d="M3527.506,1272.073C3526.78,1271.241 3525.516,1271.156 3524.684,1271.882C3523.852,1272.609 3523.767,1273.873 3524.494,1274.704L3527.506,1272.073ZM3531.774,1280L3530.267,1281.316L3531.774,1283.041L3533.28,1281.316L3531.774,1280ZM3545.506,1267.316C3546.233,1266.484 3546.148,1265.22 3545.316,1264.494C3544.484,1263.767 3543.22,1263.852 3542.494,1264.684L3545.506,1267.316ZM3524.494,1274.704L3530.267,1281.316L3533.28,1278.684L3527.506,1272.073L3524.494,1274.704ZM3533.28,1281.316L3545.506,1267.316L3542.494,1264.684L3530.267,1278.684L3533.28,1281.316Z" fill="#FFFFFF"/>
</svg>
