<svg width="172" height="176" viewBox="0 0 172 176" fill="none" xmlns="http://www.w3.org/2000/svg" xmlns:xlink="http://www.w3.org/1999/xlink">
<g filter="url(#filter357_1429)">
<path d="M65.248,15.779C65.896,14.679 67.062,14.006 68.321,14.006L102.963,14.006C105.749,14.006 107.469,17.103 106.036,19.538L67.336,85.287C66.688,86.387 65.522,87.061 64.263,87.061L29.621,87.061C26.836,87.061 25.115,83.963 26.548,81.529L65.248,15.779Z" transform="rotate(360 66.292 50.533)" fill="#C52229"/>
<path d="M68.321,10.354L102.964,10.354C108.534,10.354 111.975,16.548 109.109,21.418L70.409,87.167C69.114,89.368 66.781,90.714 64.264,90.714L29.621,90.714C24.051,90.714 20.61,84.519 23.476,79.65L62.176,13.9C63.471,11.7 65.804,10.354 68.321,10.354ZM68.321,14.006C67.063,14.006 65.896,14.679 65.249,15.78L26.549,81.529C25.116,83.964 26.836,87.061 29.621,87.061L64.264,87.061C65.522,87.061 66.689,86.388 67.336,85.288L106.036,19.538C107.469,17.104 105.749,14.006 102.964,14.006L68.321,14.006Z" clip-rule="evenodd" fill-rule="evenodd" transform="rotate(360 66.292 50.534)" fill="#9B0F15"/>
<path d="M104.665,15.779C105.312,14.679 106.479,14.006 107.737,14.006L142.38,14.006C145.165,14.006 146.885,17.103 145.452,19.538L106.752,85.287C106.105,86.387 104.938,87.061 103.68,87.061L69.037,87.061C66.252,87.061 64.532,83.963 65.965,81.529L104.665,15.779Z" fill="#F1333B"/>
<path d="M107.738,10.354L142.38,10.354C147.951,10.354 151.392,16.548 148.526,21.418L109.826,87.167C108.53,89.368 106.198,90.714 103.68,90.714L69.038,90.714C63.467,90.714 60.026,84.519 62.892,79.65L101.593,13.9C102.888,11.7 105.221,10.354 107.738,10.354ZM107.738,14.006C106.479,14.006 105.313,14.679 104.665,15.78L65.965,81.529C64.532,83.964 66.253,87.061 69.038,87.061L103.68,87.061C104.939,87.061 106.105,86.388 106.753,85.288L145.453,19.538C146.886,17.104 145.166,14.006 142.38,14.006L107.738,14.006Z" clip-rule="evenodd" fill-rule="evenodd" fill="#9B0F15"/>
<path d="M108.4,16.079C109.255,16.586 109.546,17.703 109.049,18.576L92.924,46.885C92.428,47.757 91.331,48.053 90.475,47.547C89.62,47.04 89.329,45.923 89.826,45.05L105.951,16.742C106.447,15.869 107.544,15.573 108.4,16.079Z" clip-rule="evenodd" fill-rule="evenodd" fill="#FE666D"/>
<path d="M47.483,16.079C48.339,16.586 48.63,17.703 48.133,18.576L32.008,46.885C31.511,47.757 30.415,48.053 29.559,47.547C28.703,47.04 28.412,45.923 28.909,45.05L45.034,16.742C45.531,15.869 46.628,15.573 47.483,16.079Z" clip-rule="evenodd" fill-rule="evenodd" transform="rotate(360 38.521 31.813)" fill="#DF3840"/>
<path d="M63.604,19.998C63.604,21.291 62.601,22.338 61.365,22.338C60.128,22.338 59.125,21.291 59.125,19.998C59.125,18.706 60.128,17.658 61.365,17.658C62.601,17.658 63.604,18.706 63.604,19.998Z" fill="#AA161D"/>
<path d="M55.739,20.569C55.739,22.177 54.491,23.48 52.953,23.48C51.414,23.48 50.167,22.177 50.167,20.569C50.167,18.961 51.414,17.658 52.953,17.658C54.491,17.658 55.739,18.961 55.739,20.569Z" fill="#AA161D"/>
<path d="M62.709,28.903C62.709,30.511 61.461,31.814 59.923,31.814C58.384,31.814 57.137,30.511 57.137,28.903C57.137,27.295 58.384,25.992 59.923,25.992C61.461,25.992 62.709,27.295 62.709,28.903Z" fill="#AA161D"/>
<path d="M69.078,24.936C69.078,25.74 68.454,26.391 67.685,26.391C66.916,26.391 66.292,25.74 66.292,24.936C66.292,24.132 66.916,23.48 67.685,23.48C68.454,23.48 69.078,24.132 69.078,24.936Z" fill="#AA161D"/>
<path d="M54.346,27.448C54.346,28.251 53.722,28.903 52.953,28.903C52.183,28.903 51.56,28.251 51.56,27.448C51.56,26.644 52.183,25.992 52.953,25.992C53.722,25.992 54.346,26.644 54.346,27.448Z" fill="#AA161D"/>
<path d="M46.584,18.543C46.584,19.347 45.96,19.999 45.191,19.999C44.421,19.999 43.798,19.347 43.798,18.543C43.798,17.739 44.421,17.088 45.191,17.088C45.96,17.088 46.584,17.739 46.584,18.543Z" fill="#AA161D"/>
<path d="M67.685,35.094C67.685,35.898 67.061,36.549 66.292,36.549C65.523,36.549 64.899,35.898 64.899,35.094C64.899,34.29 65.523,33.639 66.292,33.639C67.061,33.639 67.685,34.29 67.685,35.094Z" fill="#AA161D"/>
<path d="M60.518,36.551C60.518,37.355 59.895,38.006 59.126,38.006C58.356,38.006 57.733,37.355 57.733,36.551C57.733,35.747 58.356,35.096 59.126,35.096C59.895,35.096 60.518,35.747 60.518,36.551Z" fill="#AA161D"/>
<path d="M74.409,31.271C74.409,32.579 73.394,33.64 72.142,33.64C70.89,33.64 69.875,32.579 69.875,31.271C69.875,29.963 70.89,28.902 72.142,28.902C73.394,28.902 74.409,29.963 74.409,31.271Z" fill="#AA161D"/>
<path d="M77.364,38.006C77.364,38.81 76.74,39.462 75.971,39.462C75.202,39.462 74.578,38.81 74.578,38.006C74.578,37.202 75.202,36.551 75.971,36.551C76.74,36.551 77.364,37.202 77.364,38.006Z" fill="#AA161D"/>
<path d="M134.375,110.804C134.375,138.039 112.717,160.116 86,160.116C59.283,160.116 37.625,138.039 37.625,110.804C37.625,83.57 59.283,61.492 86,61.492C112.717,61.492 134.375,83.57 134.375,110.804Z" fill="#FFBB0D"/>
<path d="M137.959,110.805C137.959,140.056 114.696,163.769 86,163.769C57.305,163.769 34.042,140.056 34.042,110.805C34.042,81.553 57.305,57.84 86,57.84C114.696,57.84 137.959,81.553 137.959,110.805ZM86,160.117C112.717,160.117 134.375,138.039 134.375,110.805C134.375,83.57 112.717,61.493 86,61.493C59.284,61.493 37.625,83.57 37.625,110.805C37.625,138.039 59.284,160.117 86,160.117Z" clip-rule="evenodd" fill-rule="evenodd" fill="#E89B05"/>
<path d="M86,63.319C86.99,63.319 87.792,64.136 87.792,65.145C87.792,91.371 66.936,112.631 41.209,112.631C40.219,112.631 39.417,111.813 39.417,110.804C39.417,109.796 40.219,108.978 41.209,108.978C64.957,108.978 84.209,89.353 84.209,65.145C84.209,64.136 85.011,63.319 86,63.319Z" clip-rule="evenodd" fill-rule="evenodd" transform="rotate(-360 63.604 87.975)" fill="#E8AA0A"/>
<path d="M130.792,108.979C131.781,108.979 132.583,109.796 132.583,110.805C132.583,137.031 111.727,158.291 86,158.291C85.01,158.291 84.208,157.473 84.208,156.464C84.208,155.456 85.01,154.638 86,154.638C109.748,154.638 129,135.013 129,110.805C129,109.796 129.802,108.979 130.792,108.979Z" clip-rule="evenodd" fill-rule="evenodd" fill="#E8AA0A"/>
<path d="M121.834,110.805C121.834,130.978 105.791,147.332 86,147.332C66.21,147.332 50.167,130.978 50.167,110.805C50.167,90.631 66.21,74.277 86,74.277C105.791,74.277 121.834,90.631 121.834,110.805Z" fill="#FFDD28"/>
<path d="M125.417,110.805C125.417,132.996 107.769,150.985 86,150.985C64.231,150.985 46.583,132.996 46.583,110.805C46.583,88.614 64.231,70.625 86,70.625C107.769,70.625 125.417,88.614 125.417,110.805ZM86,147.333C105.79,147.333 121.833,130.979 121.833,110.805C121.833,90.632 105.79,74.278 86,74.278C66.21,74.278 50.167,90.632 50.167,110.805C50.167,130.979 66.21,147.333 86,147.333Z" clip-rule="evenodd" fill-rule="evenodd" fill="#E89B05"/>
<path d="M118.25,112.631C101.429,112.631 87.792,126.532 87.792,143.679C87.792,144.688 86.99,145.506 86,145.506C85.011,145.506 84.209,144.688 84.209,143.679C84.209,124.515 99.45,108.978 118.25,108.978C119.24,108.978 120.042,109.796 120.042,110.805C120.042,111.813 119.24,112.631 118.25,112.631Z" clip-rule="evenodd" fill-rule="evenodd" transform="rotate(-360 102.125 127.242)" fill="#ECC704"/>
<path d="M86,79.756C69.178,79.756 55.542,93.657 55.542,110.805C55.542,111.813 54.739,112.631 53.75,112.631C52.76,112.631 51.958,111.813 51.958,110.805C51.958,91.64 67.199,76.104 86,76.104C86.989,76.104 87.792,76.921 87.792,77.93C87.792,78.939 86.989,79.756 86,79.756Z" clip-rule="evenodd" fill-rule="evenodd" fill="#FFEF9C"/>
<path d="M90.276,125.412L84.208,125.412L84.208,101.57L76.964,103.86L76.964,98.83L89.625,94.207L90.276,94.207L90.276,125.412Z" fill="#FFEF9C"/>
<path d="M93.86,125.413C93.86,127.43 92.255,129.065 90.276,129.065L84.208,129.065C82.229,129.065 80.625,127.43 80.625,125.413L80.625,106.527L78.026,107.349C76.939,107.693 75.756,107.489 74.839,106.801C73.922,106.112 73.381,105.021 73.381,103.86L73.381,98.83C73.381,97.288 74.332,95.912 75.756,95.392L88.417,90.769C88.805,90.627 89.213,90.555 89.625,90.555L90.276,90.555C92.255,90.555 93.86,92.19 93.86,94.207L93.86,125.413ZM84.208,101.57L84.208,125.413L90.276,125.413L90.276,94.207L89.625,94.207L76.965,98.83L76.965,103.86L84.208,101.57Z" clip-rule="evenodd" fill-rule="evenodd" fill="#E89B05"/>
</g>
<defs>
<filter id="filter357_1429" x="0" y="-0.605469" width="88" height="89.665871" filterUnits="userSpaceOnUse" color-interpolation-filters="sRGB">
<feFlood flood-opacity="0" result="BackgroundImageFix"/>
<feColorMatrix in="SourceAlpha" type="matrix" values="0 0 0 0 0 0 0 0 0 0 0 0 0 0 0 0 0 0 127 0" result="hardAlpha"/>
<feMorphology radius="0" operator="dilate" in="SourceAlpha" result="0dropshadow"/>
<feOffset dx="2" dy="2"/>
<feGaussianBlur stdDeviation="0"/>
<feComposite in2="hardAlpha" operator="out"/>
<feColorMatrix type="matrix" values="0 0 0 0 0.639216 0 0 0 0 0.545098 0 0 0 0 0.478431 0 0 0 0.2 0"/>
<feBlend mode="normal" in2="BackgroundImageFix" result="0dropshadow"/>
<feBlend mode="normal" in="SourceGraphic" in2="0dropshadow" result="shape"/>
</filter>
</defs>
</svg>
