<svg width="40" height="40" viewBox="0 0 40 40" fill="none" xmlns="http://www.w3.org/2000/svg" xmlns:xlink="http://www.w3.org/1999/xlink">
<path d="M30.5,17.916C30.5,24.866 24.866,30.5 17.917,30.5L17.917,34.5C27.075,34.5 34.5,27.075 34.5,17.916L30.5,17.916ZM17.917,30.5C10.967,30.5 5.333,24.866 5.333,17.916L1.333,17.916C1.333,27.075 8.758,34.5 17.917,34.5L17.917,30.5ZM5.333,17.916C5.333,10.967 10.967,5.333 17.917,5.333L17.917,1.333C8.758,1.333 1.333,8.758 1.333,17.916L5.333,17.916ZM17.917,5.333C24.866,5.333 30.5,10.967 30.5,17.916L34.5,17.916C34.5,8.758 27.075,1.333 17.917,1.333L17.917,5.333Z" fill="#959BA5"/>
<path d="M35.252,38.081C36.033,38.862 37.3,38.862 38.081,38.081C38.862,37.3 38.862,36.033 38.081,35.252L35.252,38.081ZM31.414,28.586C30.633,27.805 29.367,27.805 28.586,28.586C27.805,29.367 27.805,30.633 28.586,31.414L31.414,28.586ZM38.081,35.252L31.414,28.586L28.586,31.414L35.252,38.081L38.081,35.252Z" fill="#959BA5"/>
</svg>
