<svg width="48" height="48" viewBox="0 0 48 48" fill="none" xmlns="http://www.w3.org/2000/svg" xmlns:xlink="http://www.w3.org/1999/xlink">
<path d="M4,18C4,14.229 4,12.343 5.172,11.172C6.343,10 8.229,10 12,10L36,10C39.771,10 41.657,10 42.828,11.172C44,12.343 44,14.229 44,18L44,18C44,18.943 44,19.414 43.707,19.707C43.414,20 42.943,20 42,20L6,20C5.057,20 4.586,20 4.293,19.707C4,19.414 4,18.943 4,18L4,18Z" fill="#242730"/>
<path d="M4,36C4,39.771 4,41.657 5.172,42.828C6.343,44 8.229,44 12,44L36,44C39.771,44 41.657,44 42.828,42.828C44,41.657 44,39.771 44,36L44,26C44,25.057 44,24.586 43.707,24.293C43.414,24 42.943,24 42,24L6,24C5.057,24 4.586,24 4.293,24.293C4,24.586 4,25.057 4,26L4,36ZM14,30C14,29.057 14,28.586 14.293,28.293C14.586,28 15.057,28 16,28L20,28C20.943,28 21.414,28 21.707,28.293C22,28.586 22,29.057 22,30C22,30.943 22,31.414 21.707,31.707C21.414,32 20.943,32 20,32L16,32C15.057,32 14.586,32 14.293,31.707C14,31.414 14,30.943 14,30ZM14.293,36.293C14,36.586 14,37.057 14,38C14,38.943 14,39.414 14.293,39.707C14.586,40 15.057,40 16,40L20,40C20.943,40 21.414,40 21.707,39.707C22,39.414 22,38.943 22,38C22,37.057 22,36.586 21.707,36.293C21.414,36 20.943,36 20,36L16,36C15.057,36 14.586,36 14.293,36.293ZM26,30C26,29.057 26,28.586 26.293,28.293C26.586,28 27.057,28 28,28L32,28C32.943,28 33.414,28 33.707,28.293C34,28.586 34,29.057 34,30C34,30.943 34,31.414 33.707,31.707C33.414,32 32.943,32 32,32L28,32C27.057,32 26.586,32 26.293,31.707C26,31.414 26,30.943 26,30ZM26.293,36.293C26,36.586 26,37.057 26,38C26,38.943 26,39.414 26.293,39.707C26.586,40 27.057,40 28,40L32,40C32.943,40 33.414,40 33.707,39.707C34,39.414 34,38.943 34,38C34,37.057 34,36.586 33.707,36.293C33.414,36 32.943,36 32,36L28,36C27.057,36 26.586,36 26.293,36.293Z" clip-rule="evenodd" fill-rule="evenodd" fill="#242730"/>
<line x1="16" y1="6" x2="16" y2="12" stroke="#242730" stroke-width="2" stroke-miterlimit="3.999327" stroke-linecap="round"/>
<line x1="36" y1="6" x2="36" y2="12" stroke="#242730" stroke-width="2" stroke-miterlimit="3.999327" stroke-linecap="round"/>
</svg>
