<svg width="40" height="40" viewBox="0 0 40 40" fill="none" xmlns="http://www.w3.org/2000/svg" xmlns:xlink="http://www.w3.org/1999/xlink">
<path d="M30.5,17.917C30.5,24.867 24.866,30.501 17.917,30.501L17.917,34.501C27.075,34.501 34.5,27.076 34.5,17.917L30.5,17.917ZM17.917,30.501C10.967,30.501 5.333,24.867 5.333,17.917L1.333,17.917C1.333,27.076 8.758,34.501 17.917,34.501L17.917,30.501ZM5.333,17.917C5.333,10.968 10.967,5.334 17.917,5.334L17.917,1.334C8.758,1.334 1.333,8.759 1.333,17.917L5.333,17.917ZM17.917,5.334C24.866,5.334 30.5,10.968 30.5,17.917L34.5,17.917C34.5,8.759 27.075,1.334 17.917,1.334L17.917,5.334Z" fill="#959BA5"/>
<path d="M35.252,38.081C36.033,38.862 37.3,38.862 38.081,38.081C38.862,37.3 38.862,36.034 38.081,35.252L35.252,38.081ZM31.414,28.586C30.633,27.805 29.367,27.805 28.586,28.586C27.805,29.367 27.805,30.633 28.586,31.414L31.414,28.586ZM38.081,35.252L31.414,28.586L28.586,31.414L35.252,38.081L38.081,35.252Z" fill="#959BA5"/>
</svg>
