<svg width="48" height="48" viewBox="0 0 48 48" fill="none" xmlns="http://www.w3.org/2000/svg" xmlns:xlink="http://www.w3.org/1999/xlink">
<path d="M27.589,6.59C26.46,6.207 25.252,6 24,6C18.307,6 13.525,10.281 12.896,15.939L12.392,20.471L12.38,20.587C12.122,22.834 11.39,25.001 10.233,26.945L10.174,27.044L9.018,28.971C7.968,30.72 7.444,31.594 7.557,32.312C7.633,32.789 7.878,33.223 8.249,33.534C8.806,34 9.826,34 11.865,34L36.136,34C38.175,34 39.195,34 39.752,33.534C40.122,33.223 40.368,32.789 40.444,32.312C40.557,31.594 40.032,30.72 38.983,28.971L37.827,27.044L37.767,26.945C36.855,25.412 36.207,23.74 35.848,21.999C30.395,21.917 26,17.472 26,12C26,10.007 26.584,8.149 27.589,6.59ZM32.548,9.978C32.2,10.571 32,11.262 32,12C32,13.9 33.324,15.49 35.1,15.898C34.841,13.643 33.922,11.608 32.548,9.978Z" clip-rule="evenodd" fill-rule="evenodd" fill="#242730"/>
<path d="M30,34C30,34.788 29.845,35.568 29.543,36.296C29.242,37.024 28.8,37.685 28.243,38.243C27.685,38.8 27.024,39.242 26.296,39.543C25.568,39.845 24.788,40 24,40C23.212,40 22.432,39.845 21.704,39.543C20.976,39.242 20.315,38.8 19.757,38.243C19.2,37.685 18.758,37.024 18.457,36.296C18.155,35.568 18,34.788 18,34L24,34L30,34Z" transform="rotate(360 24 34)" fill="#242730"/>
<circle cx="36" cy="12" r="4" fill="#738DFE" stroke="#738DFE" stroke-width="1" stroke-miterlimit="3.999327"/>
</svg>
