<svg width="48" height="48" viewBox="0 0 48 48" fill="none" xmlns="http://www.w3.org/2000/svg" xmlns:xlink="http://www.w3.org/1999/xlink">
<path d="M13,32L32,32C35.771,32 37.657,32 38.828,30.828C40,29.657 40,27.771 40,24L40,14C40,10.229 40,8.343 38.828,7.172C37.657,6 35.771,6 32,6L16,6C12.229,6 10.343,6 9.172,7.172C8,8.343 8,10.229 8,14L8,37C8,34.239 10.239,32 13,32ZM18,12C15.791,12 14,13.791 14,16C14,18.209 15.791,20 18,20L30,20C32.209,20 34,18.209 34,16C34,13.791 32.209,12 30,12L18,12Z" clip-rule="evenodd" fill-rule="evenodd" fill="#959BA5" stroke="#959BA5" stroke-width="2" stroke-miterlimit="3.999327"/>
<line x1="20" y1="40" x2="40" y2="40" fill="#959BA5" stroke="#959BA5" stroke-width="2" stroke-miterlimit="3.999327" stroke-linecap="round"/>
</svg>
