<svg width="34" height="40" viewBox="0 0 34 40" fill="none" xmlns="http://www.w3.org/2000/svg" xmlns:xlink="http://www.w3.org/1999/xlink">
<path d="M0.832,14.887C0.832,15.606 1.414,16.188 2.133,16.188C2.851,16.188 3.434,15.606 3.434,14.887L0.832,14.887ZM12.168,5.19C12.887,5.19 13.469,4.607 13.469,3.889C13.469,3.17 12.887,2.588 12.168,2.588L12.168,5.19ZM3.434,14.887L3.434,10.959L0.832,10.959L0.832,14.887L3.434,14.887ZM3.434,10.959C3.434,7.651 5.843,5.19 8.584,5.19L8.584,2.588C4.186,2.588 0.832,6.443 0.832,10.959L3.434,10.959ZM8.584,5.19L12.168,5.19L12.168,2.588L8.584,2.588L8.584,5.19Z" fill="#FFFFFF"/>
<path d="M20.77,2.588C20.052,2.588 19.469,3.17 19.469,3.889C19.469,4.607 20.052,5.19 20.77,5.19L20.77,2.588ZM29.505,14.887C29.505,15.606 30.087,16.188 30.806,16.188C31.524,16.188 32.107,15.606 32.107,14.887L29.505,14.887ZM20.77,5.19L24.354,5.19L24.354,2.588L20.77,2.588L20.77,5.19ZM24.354,5.19C27.096,5.19 29.505,7.651 29.505,10.959L32.107,10.959C32.107,6.443 28.752,2.588 24.354,2.588L24.354,5.19ZM29.505,10.959L29.505,14.887L32.107,14.887L32.107,10.959L29.505,10.959Z" fill="#FFFFFF"/>
<path d="M32.107,25.886C32.107,25.167 31.524,24.585 30.805,24.585C30.087,24.585 29.504,25.167 29.504,25.886L32.107,25.886ZM22.204,34.012C21.485,34.012 20.902,34.595 20.902,35.313C20.902,36.032 21.485,36.614 22.204,36.614L22.204,34.012ZM29.504,25.886L29.504,28.243L32.107,28.243L32.107,25.886L29.504,25.886ZM29.504,28.243C29.504,31.551 27.096,34.012 24.354,34.012L24.354,36.614C28.752,36.614 32.107,32.759 32.107,28.243L29.504,28.243ZM24.354,34.012L22.204,34.012L22.204,36.614L24.354,36.614L24.354,34.012Z" fill="#FFFFFF"/>
<path d="M12.168,36.614C12.887,36.614 13.469,36.032 13.469,35.313C13.469,34.595 12.887,34.012 12.168,34.012L12.168,36.614ZM3.434,24.315C3.434,23.596 2.851,23.014 2.133,23.014C1.414,23.014 0.832,23.596 0.832,24.315L3.434,24.315ZM12.168,34.012L8.584,34.012L8.584,36.614L12.168,36.614L12.168,34.012ZM8.584,34.012C5.843,34.012 3.434,31.551 3.434,28.243L0.832,28.243C0.832,32.759 4.186,36.614 8.584,36.614L8.584,34.012ZM3.434,28.243L3.434,24.315L0.832,24.315L0.832,28.243L3.434,28.243Z" fill="#FFFFFF"/>
</svg>
