<svg width="34" height="38" viewBox="0 0 34 38" fill="none" xmlns="http://www.w3.org/2000/svg" xmlns:xlink="http://www.w3.org/1999/xlink">
<path d="M0.631,13.898C0.631,14.616 1.213,15.199 1.932,15.199C2.65,15.199 3.233,14.616 3.233,13.898L0.631,13.898ZM11.993,4.574C12.712,4.574 13.295,3.991 13.295,3.272C13.295,2.554 12.712,1.971 11.993,1.971L11.993,4.574ZM3.233,13.898L3.233,10.103L0.631,10.103L0.631,13.898L3.233,13.898ZM3.233,10.103C3.233,6.974 5.605,4.574 8.4,4.574L8.4,1.971C4.036,1.971 0.631,5.673 0.631,10.103L3.233,10.103ZM8.4,4.574L11.993,4.574L11.993,1.971L8.4,1.971L8.4,4.574Z" fill="#FFFFFF"/>
<path d="M20.618,1.971C19.899,1.971 19.317,2.554 19.317,3.272C19.317,3.991 19.899,4.574 20.618,4.574L20.618,1.971ZM29.378,13.898C29.378,14.616 29.961,15.199 30.679,15.199C31.398,15.199 31.981,14.616 31.981,13.898L29.378,13.898ZM20.618,4.574L24.211,4.574L24.211,1.971L20.618,1.971L20.618,4.574ZM24.211,4.574C27.006,4.574 29.378,6.974 29.378,10.103L31.981,10.103C31.981,5.673 28.575,1.971 24.211,1.971L24.211,4.574ZM29.378,10.103L29.378,13.898L31.981,13.898L31.981,10.103L29.378,10.103Z" fill="#FFFFFF"/>
<path d="M31.98,24.523C31.98,23.805 31.398,23.222 30.679,23.222C29.961,23.222 29.378,23.805 29.378,24.523L31.98,24.523ZM22.055,32.33C21.336,32.33 20.754,32.912 20.754,33.631C20.754,34.349 21.336,34.932 22.055,34.932L22.055,32.33ZM29.378,24.523L29.378,26.8L31.98,26.8L31.98,24.523L29.378,24.523ZM29.378,26.8C29.378,29.929 27.005,32.33 24.211,32.33L24.211,34.932C28.574,34.932 31.98,31.231 31.98,26.8L29.378,26.8ZM24.211,32.33L22.055,32.33L22.055,34.932L24.211,34.932L24.211,32.33Z" fill="#FFFFFF"/>
<path d="M11.993,34.932C12.712,34.932 13.295,34.349 13.295,33.631C13.295,32.912 12.712,32.33 11.993,32.33L11.993,34.932ZM3.233,23.005C3.233,22.287 2.65,21.704 1.932,21.704C1.213,21.704 0.631,22.287 0.631,23.005L3.233,23.005ZM11.993,32.33L8.4,32.33L8.4,34.932L11.993,34.932L11.993,32.33ZM8.4,32.33C5.605,32.33 3.233,29.929 3.233,26.8L0.631,26.8C0.631,31.231 4.036,34.932 8.4,34.932L8.4,32.33ZM3.233,26.8L3.233,23.005L0.631,23.005L0.631,26.8L3.233,26.8Z" fill="#FFFFFF"/>
</svg>
