<svg width="56" height="56" viewBox="0 0 56 56" fill="none" xmlns="http://www.w3.org/2000/svg" xmlns:xlink="http://www.w3.org/1999/xlink">
<path d="M34.3,45.267L32.509,43.905L32.5,43.917L34.3,45.267ZM30.8,49.933L32.6,51.283L30.8,49.933ZM25.2,49.933L23.4,51.283L25.2,49.933ZM21.7,45.267L19.88,46.59C19.887,46.599 19.893,46.608 19.9,46.617L21.7,45.267ZM19.833,42.083L18.667,42.083L18.667,46.583L19.833,46.583L19.833,42.083ZM18.667,42.083C14.04,42.083 11.307,41.466 9.648,40.015C8.064,38.629 6.917,35.973 6.917,30.333L2.417,30.333C2.417,36.361 3.602,40.704 6.685,43.402C9.693,46.034 13.96,46.583 18.667,46.583L18.667,42.083ZM6.917,30.333L6.917,18.667L2.417,18.667L2.417,30.333L6.917,30.333ZM6.917,18.667C6.917,14.347 7.995,11.52 9.758,9.758C11.52,7.995 14.347,6.917 18.667,6.917L18.667,2.417C13.653,2.417 9.48,3.671 6.576,6.576C3.672,9.48 2.417,13.653 2.417,18.667L6.917,18.667ZM18.667,6.917L37.333,6.917L37.333,2.417L18.667,2.417L18.667,6.917ZM37.333,6.917C41.653,6.917 44.48,7.995 46.242,9.758C48.005,11.52 49.083,14.347 49.083,18.667L53.583,18.667C53.583,13.653 52.329,9.48 49.424,6.576C46.52,3.671 42.347,2.417 37.333,2.417L37.333,6.917ZM49.083,18.667L49.083,30.333L53.583,30.333L53.583,18.667L49.083,18.667ZM49.083,30.333C49.083,34.653 48.005,37.48 46.242,39.242C44.48,41.005 41.653,42.083 37.333,42.083L37.333,46.583C42.347,46.583 46.52,45.328 49.424,42.424C52.329,39.52 53.583,35.347 53.583,30.333L49.083,30.333ZM37.333,42.083L36.167,42.083L36.167,46.583L37.333,46.583L37.333,42.083ZM36.167,42.083C34.73,42.083 33.371,42.771 32.509,43.905L36.091,46.628C36.1,46.617 36.114,46.604 36.135,46.594C36.155,46.583 36.167,46.583 36.167,46.583L36.167,42.083ZM32.5,43.917L29,48.583L32.6,51.283L36.1,46.617L32.5,43.917ZM29,48.583C28.593,49.127 28.209,49.223 28,49.223C27.791,49.223 27.408,49.127 27,48.583L23.4,51.283C24.533,52.793 26.179,53.723 28,53.723C29.821,53.723 31.468,52.793 32.6,51.283L29,48.583ZM27,48.583L23.5,43.917L19.9,46.617L23.4,51.283L27,48.583ZM23.52,43.943C23.053,43.302 22.411,42.863 21.862,42.592C21.311,42.318 20.592,42.083 19.833,42.083L19.833,46.583C19.789,46.583 19.761,46.58 19.751,46.578C19.74,46.577 19.741,46.576 19.751,46.579C19.762,46.582 19.778,46.587 19.798,46.595C19.819,46.603 19.841,46.612 19.864,46.623C19.886,46.634 19.906,46.646 19.923,46.656C19.941,46.667 19.952,46.675 19.957,46.68C19.963,46.684 19.959,46.681 19.947,46.67C19.936,46.658 19.911,46.632 19.88,46.59L23.52,43.943Z" fill="#0060FF"/>
<path d="M37.325,22.667C35.668,22.667 34.325,24.01 34.325,25.667C34.325,27.324 35.668,28.667 37.325,28.667L37.325,22.667ZM37.346,28.667C39.003,28.667 40.346,27.324 40.346,25.667C40.346,24.01 39.003,22.667 37.346,22.667L37.346,28.667ZM37.325,28.667L37.346,28.667L37.346,22.667L37.325,22.667L37.325,28.667Z" fill="#0060FF"/>
<path d="M27.99,22.667C26.333,22.667 24.99,24.01 24.99,25.667C24.99,27.324 26.333,28.667 27.99,28.667L27.99,22.667ZM28.011,28.667C29.667,28.667 31.01,27.324 31.01,25.667C31.01,24.01 29.667,22.667 28.011,22.667L28.011,28.667ZM27.99,28.667L28.011,28.667L28.011,22.667L27.99,22.667L27.99,28.667Z" fill="#0060FF"/>
<path d="M18.654,22.667C16.997,22.667 15.654,24.01 15.654,25.667C15.654,27.324 16.997,28.667 18.654,28.667L18.654,22.667ZM18.675,28.667C20.332,28.667 21.675,27.324 21.675,25.667C21.675,24.01 20.332,22.667 18.675,22.667L18.675,28.667ZM18.654,28.667L18.675,28.667L18.675,22.667L18.654,22.667L18.654,28.667Z" fill="#0060FF"/>
</svg>
