<svg width="56" height="56" viewBox="0 0 56 56" fill="none" xmlns="http://www.w3.org/2000/svg" xmlns:xlink="http://www.w3.org/1999/xlink">
<path d="M28,37.305C34.368,37.305 39.584,32.213 39.584,25.857L35.084,25.857C35.084,29.665 31.946,32.805 28,32.805L28,37.305ZM39.584,25.857L39.584,13.21L35.084,13.21L35.084,25.857L39.584,25.857ZM39.584,13.21C39.584,6.855 34.368,1.763 28,1.763L28,6.263C31.946,6.263 35.084,9.402 35.084,13.21L39.584,13.21ZM28,1.763C21.632,1.763 16.417,6.855 16.417,13.21L20.917,13.21C20.917,9.402 24.055,6.263 28,6.263L28,1.763ZM16.417,13.21L16.417,25.857L20.917,25.857L20.917,13.21L16.417,13.21ZM16.417,25.857C16.417,32.213 21.632,37.305 28,37.305L28,32.805C24.055,32.805 20.917,29.665 20.917,25.857L16.417,25.857Z" fill="#FFFFFF"/>
<path d="M12.401,21.604C12.401,20.361 11.394,19.354 10.151,19.354C8.909,19.354 7.901,20.361 7.901,21.604L12.401,21.604ZM48.101,21.604C48.101,20.361 47.094,19.354 45.851,19.354C44.609,19.354 43.601,20.361 43.601,21.604L48.101,21.604ZM7.901,21.604L7.901,25.513L12.401,25.513L12.401,21.604L7.901,21.604ZM7.901,25.513C7.901,36.49 16.943,45.353 28.001,45.353L28.001,40.853C19.366,40.853 12.401,33.943 12.401,25.513L7.901,25.513ZM28.001,45.353C39.06,45.353 48.101,36.49 48.101,25.513L43.601,25.513C43.601,33.943 36.637,40.853 28.001,40.853L28.001,45.353ZM48.101,25.513L48.101,21.604L43.601,21.604L43.601,25.513L48.101,25.513Z" fill="#FFFFFF"/>
<line x1="25.75" y1="43.104" x2="25.75" y2="50.002" stroke="#FFFFFF" stroke-width="2.25" stroke-miterlimit="3.999327" stroke-linecap="round" stroke-linejoin="round"/>
</svg>
