<svg width="56" height="56" viewBox="0 0 56 56" fill="none" xmlns="http://www.w3.org/2000/svg" xmlns:xlink="http://www.w3.org/1999/xlink">
<path d="M28,38.417C34.399,38.417 39.583,33.233 39.583,26.833L35.083,26.833C35.083,30.747 31.914,33.917 28,33.917L28,38.417ZM39.583,26.833L39.583,14L35.083,14L35.083,26.833L39.583,26.833ZM39.583,14C39.583,7.601 34.399,2.417 28,2.417L28,6.917C31.914,6.917 35.083,10.086 35.083,14L39.583,14ZM28,2.417C21.601,2.417 16.417,7.601 16.417,14L20.917,14C20.917,10.086 24.086,6.917 28,6.917L28,2.417ZM16.417,14L16.417,26.833L20.917,26.833L20.917,14L16.417,14ZM16.417,26.833C16.417,33.233 21.601,38.417 28,38.417L28,33.917C24.086,33.917 20.917,30.747 20.917,26.833L16.417,26.833Z" fill="#FFFFFF"/>
<path d="M12.401,22.517C12.401,21.274 11.394,20.267 10.151,20.267C8.908,20.267 7.901,21.274 7.901,22.517L12.401,22.517ZM48.101,22.517C48.101,21.274 47.093,20.267 45.851,20.267C44.608,20.267 43.601,21.274 43.601,22.517L48.101,22.517ZM7.901,22.517L7.901,26.483L12.401,26.483L12.401,22.517L7.901,22.517ZM7.901,26.483C7.901,37.573 16.912,46.583 28.001,46.583L28.001,42.083C19.397,42.083 12.401,35.087 12.401,26.483L7.901,26.483ZM28.001,46.583C39.09,46.583 48.101,37.573 48.101,26.483L43.601,26.483C43.601,35.087 36.605,42.083 28.001,42.083L28.001,46.583ZM48.101,26.483L48.101,22.517L43.601,22.517L43.601,26.483L48.101,26.483Z" fill="#FFFFFF"/>
<line x1="25.75" y1="44.333" x2="25.75" y2="51.333" stroke="#FFFFFF" stroke-width="2.25" stroke-miterlimit="3.999327" stroke-linecap="round" stroke-linejoin="round"/>
</svg>
