<svg width="16" height="4" viewBox="0 0 16 4" fill="none" xmlns="http://www.w3.org/2000/svg" xmlns:xlink="http://www.w3.org/1999/xlink">
<path d="M1.822,-0.881C0.726,-0.881 -0.17,0.015 -0.17,1.111C-0.17,2.206 0.726,3.102 1.822,3.102C2.917,3.102 3.813,2.206 3.813,1.111C3.813,0.015 2.917,-0.881 1.822,-0.881ZM13.771,-0.881C12.675,-0.881 11.779,0.015 11.779,1.111C11.779,2.206 12.675,3.102 13.771,3.102C14.866,3.102 15.762,2.206 15.762,1.111C15.762,0.015 14.866,-0.881 13.771,-0.881ZM7.796,-0.881C6.701,-0.881 5.805,0.015 5.805,1.111C5.805,2.206 6.701,3.102 7.796,3.102C8.892,3.102 9.788,2.206 9.788,1.111C9.788,0.015 8.892,-0.881 7.796,-0.881Z" clip-rule="evenodd" fill-rule="evenodd" fill="#6C757D"/>
</svg>
