<svg width="18" height="4" viewBox="0 0 18 4" fill="none" xmlns="http://www.w3.org/2000/svg" xmlns:xlink="http://www.w3.org/1999/xlink">
<path d="M2.406,-0.186C1.31,-0.186 0.414,0.711 0.414,1.806C0.414,2.901 1.31,3.798 2.406,3.798C3.501,3.798 4.397,2.901 4.397,1.806C4.397,0.711 3.501,-0.186 2.406,-0.186ZM14.355,-0.186C13.259,-0.186 12.363,0.711 12.363,1.806C12.363,2.901 13.259,3.798 14.355,3.798C15.45,3.798 16.346,2.901 16.346,1.806C16.346,0.711 15.45,-0.186 14.355,-0.186ZM8.38,-0.186C7.285,-0.186 6.389,0.711 6.389,1.806C6.389,2.901 7.285,3.798 8.38,3.798C9.476,3.798 10.372,2.901 10.372,1.806C10.372,0.711 9.476,-0.186 8.38,-0.186Z" clip-rule="evenodd" fill-rule="evenodd" fill="#6C757D"/>
</svg>
