<svg width="18" height="6" viewBox="0 0 18 6" fill="none" xmlns="http://www.w3.org/2000/svg" xmlns:xlink="http://www.w3.org/1999/xlink">
<path d="M2.406,0.576C1.31,0.576 0.414,1.473 0.414,2.568C0.414,3.663 1.31,4.559 2.406,4.559C3.501,4.559 4.397,3.663 4.397,2.568C4.397,1.473 3.501,0.576 2.406,0.576ZM14.355,0.576C13.259,0.576 12.363,1.472 12.363,2.568C12.363,3.663 13.259,4.559 14.355,4.559C15.45,4.559 16.346,3.663 16.346,2.568C16.346,1.472 15.45,0.576 14.355,0.576ZM8.38,0.576C7.285,0.576 6.389,1.472 6.389,2.568C6.389,3.663 7.285,4.559 8.38,4.559C9.476,4.559 10.372,3.663 10.372,2.568C10.372,1.472 9.476,0.576 8.38,0.576Z" clip-rule="evenodd" fill-rule="evenodd" fill="#6C757D"/>
</svg>
