<svg width="16" height="6" viewBox="0 0 16 6" fill="none" xmlns="http://www.w3.org/2000/svg" xmlns:xlink="http://www.w3.org/1999/xlink">
<path d="M1.822,0.609C0.726,0.609 -0.17,1.506 -0.17,2.601C-0.17,3.696 0.726,4.592 1.822,4.592C2.917,4.592 3.813,3.696 3.813,2.601C3.813,1.506 2.917,0.609 1.822,0.609ZM13.771,0.609C12.675,0.609 11.779,1.506 11.779,2.601C11.779,3.696 12.675,4.592 13.771,4.592C14.866,4.592 15.762,3.696 15.762,2.601C15.762,1.506 14.866,0.609 13.771,0.609ZM7.796,0.609C6.701,0.609 5.805,1.506 5.805,2.601C5.805,3.696 6.701,4.592 7.796,4.592C8.892,4.592 9.788,3.696 9.788,2.601C9.788,1.506 8.892,0.609 7.796,0.609Z" clip-rule="evenodd" fill-rule="evenodd" fill="#6C757D"/>
</svg>
