<svg width="18" height="6" viewBox="0 0 18 6" fill="none" xmlns="http://www.w3.org/2000/svg" xmlns:xlink="http://www.w3.org/1999/xlink">
<path d="M2.406,0.07C1.31,0.07 0.414,0.966 0.414,2.062C0.414,3.157 1.31,4.053 2.406,4.053C3.501,4.053 4.397,3.157 4.397,2.062C4.397,0.966 3.501,0.07 2.406,0.07ZM14.355,0.07C13.259,0.07 12.363,0.966 12.363,2.062C12.363,3.157 13.259,4.053 14.355,4.053C15.45,4.053 16.346,3.157 16.346,2.062C16.346,0.966 15.45,0.07 14.355,0.07ZM8.38,0.07C7.285,0.07 6.389,0.966 6.389,2.062C6.389,3.157 7.285,4.053 8.38,4.053C9.476,4.053 10.372,3.157 10.372,2.062C10.372,0.966 9.476,0.07 8.38,0.07Z" clip-rule="evenodd" fill-rule="evenodd" fill="#6C757D"/>
</svg>
