<svg width="16" height="6" viewBox="0 0 16 6" fill="none" xmlns="http://www.w3.org/2000/svg" xmlns:xlink="http://www.w3.org/1999/xlink">
<path d="M1.822,0.865C0.726,0.865 -0.17,1.761 -0.17,2.857C-0.17,3.952 0.726,4.848 1.822,4.848C2.917,4.848 3.813,3.952 3.813,2.857C3.813,1.761 2.917,0.865 1.822,0.865ZM13.771,0.865C12.675,0.865 11.779,1.761 11.779,2.857C11.779,3.952 12.675,4.848 13.771,4.848C14.866,4.848 15.762,3.952 15.762,2.857C15.762,1.761 14.866,0.865 13.771,0.865ZM7.796,0.865C6.701,0.865 5.805,1.761 5.805,2.857C5.805,3.952 6.701,4.848 7.796,4.848C8.892,4.848 9.788,3.952 9.788,2.857C9.788,1.761 8.892,0.865 7.796,0.865Z" clip-rule="evenodd" fill-rule="evenodd" fill="#6C757D"/>
</svg>
