<svg width="18" height="6" viewBox="0 0 18 6" fill="none" xmlns="http://www.w3.org/2000/svg" xmlns:xlink="http://www.w3.org/1999/xlink">
<path d="M2.406,0.865C1.31,0.865 0.414,1.761 0.414,2.857C0.414,3.952 1.31,4.848 2.406,4.848C3.501,4.848 4.397,3.952 4.397,2.857C4.397,1.761 3.501,0.865 2.406,0.865ZM14.355,0.865C13.259,0.865 12.363,1.761 12.363,2.857C12.363,3.952 13.259,4.848 14.355,4.848C15.45,4.848 16.346,3.952 16.346,2.857C16.346,1.761 15.45,0.865 14.355,0.865ZM8.38,0.865C7.285,0.865 6.389,1.761 6.389,2.857C6.389,3.952 7.285,4.848 8.38,4.848C9.476,4.848 10.372,3.952 10.372,2.857C10.372,1.761 9.476,0.865 8.38,0.865Z" clip-rule="evenodd" fill-rule="evenodd" fill="#6C757D"/>
</svg>
