<svg width="16" height="4" viewBox="0 0 16 4" fill="none" xmlns="http://www.w3.org/2000/svg" xmlns:xlink="http://www.w3.org/1999/xlink">
<path d="M1.822,-0.373C0.726,-0.373 -0.17,0.523 -0.17,1.618C-0.17,2.714 0.726,3.61 1.822,3.61C2.917,3.61 3.813,2.714 3.813,1.618C3.813,0.523 2.917,-0.373 1.822,-0.373ZM13.771,-0.373C12.675,-0.373 11.779,0.523 11.779,1.618C11.779,2.714 12.675,3.61 13.771,3.61C14.866,3.61 15.762,2.714 15.762,1.618C15.762,0.523 14.866,-0.373 13.771,-0.373ZM7.796,-0.373C6.701,-0.373 5.805,0.523 5.805,1.618C5.805,2.714 6.701,3.61 7.796,3.61C8.892,3.61 9.788,2.714 9.788,1.618C9.788,0.523 8.892,-0.373 7.796,-0.373Z" clip-rule="evenodd" fill-rule="evenodd" fill="#6C757D"/>
</svg>
