<svg width="16" height="4" viewBox="0 0 16 4" fill="none" xmlns="http://www.w3.org/2000/svg" xmlns:xlink="http://www.w3.org/1999/xlink">
<path d="M1.822,-0.629C0.726,-0.629 -0.17,0.267 -0.17,1.363C-0.17,2.458 0.726,3.354 1.822,3.354C2.917,3.354 3.813,2.458 3.813,1.363C3.813,0.267 2.917,-0.629 1.822,-0.629ZM13.771,-0.629C12.675,-0.629 11.779,0.267 11.779,1.363C11.779,2.458 12.675,3.354 13.771,3.354C14.866,3.354 15.762,2.458 15.762,1.363C15.762,0.267 14.866,-0.629 13.771,-0.629ZM7.796,-0.629C6.701,-0.629 5.805,0.267 5.805,1.363C5.805,2.458 6.701,3.354 7.796,3.354C8.892,3.354 9.788,2.458 9.788,1.363C9.788,0.267 8.892,-0.629 7.796,-0.629Z" clip-rule="evenodd" fill-rule="evenodd" fill="#6C757D"/>
</svg>
