<svg width="16" height="4" viewBox="0 0 16 4" fill="none" xmlns="http://www.w3.org/2000/svg" xmlns:xlink="http://www.w3.org/1999/xlink">
<path d="M1.974,-0.043C0.879,-0.043 -0.018,0.853 -0.018,1.949C-0.018,3.044 0.879,3.94 1.974,3.94C3.069,3.94 3.965,3.044 3.965,1.949C3.965,0.853 3.069,-0.043 1.974,-0.043ZM13.923,-0.043C12.828,-0.043 11.932,0.853 11.932,1.949C11.932,3.044 12.828,3.94 13.923,3.94C15.018,3.94 15.915,3.044 15.915,1.949C15.915,0.853 15.018,-0.043 13.923,-0.043ZM7.949,-0.043C6.853,-0.043 5.957,0.853 5.957,1.949C5.957,3.044 6.853,3.94 7.949,3.94C9.044,3.94 9.94,3.044 9.94,1.949C9.94,0.853 9.044,-0.043 7.949,-0.043Z" clip-rule="evenodd" fill-rule="evenodd" fill="#6C757D"/>
</svg>
