<svg width="18" height="6" viewBox="0 0 18 6" fill="none" xmlns="http://www.w3.org/2000/svg" xmlns:xlink="http://www.w3.org/1999/xlink">
<path d="M2.406,0.102C1.31,0.102 0.414,0.998 0.414,2.093C0.414,3.189 1.31,4.085 2.406,4.085C3.501,4.085 4.397,3.189 4.397,2.093C4.397,0.998 3.501,0.102 2.406,0.102ZM14.355,0.102C13.259,0.102 12.363,0.998 12.363,2.093C12.363,3.188 13.259,4.085 14.355,4.085C15.45,4.085 16.346,3.188 16.346,2.093C16.346,0.998 15.45,0.102 14.355,0.102ZM8.38,0.102C7.285,0.102 6.389,0.998 6.389,2.093C6.389,3.188 7.285,4.085 8.38,4.085C9.476,4.085 10.372,3.188 10.372,2.093C10.372,0.998 9.476,0.102 8.38,0.102Z" clip-rule="evenodd" fill-rule="evenodd" fill="#6C757D"/>
</svg>
