<svg width="18" height="4" viewBox="0 0 18 4" fill="none" xmlns="http://www.w3.org/2000/svg" xmlns:xlink="http://www.w3.org/1999/xlink">
<path d="M2.406,-0.373C1.31,-0.373 0.414,0.523 0.414,1.619C0.414,2.714 1.31,3.61 2.406,3.61C3.501,3.61 4.397,2.714 4.397,1.619C4.397,0.523 3.501,-0.373 2.406,-0.373ZM14.355,-0.373C13.259,-0.373 12.363,0.523 12.363,1.618C12.363,2.714 13.259,3.61 14.355,3.61C15.45,3.61 16.346,2.714 16.346,1.618C16.346,0.523 15.45,-0.373 14.355,-0.373ZM8.38,-0.373C7.285,-0.373 6.389,0.523 6.389,1.618C6.389,2.714 7.285,3.61 8.38,3.61C9.476,3.61 10.372,2.714 10.372,1.618C10.372,0.523 9.476,-0.373 8.38,-0.373Z" clip-rule="evenodd" fill-rule="evenodd" fill="#6C757D"/>
</svg>
