<svg width="16" height="6" viewBox="0 0 16 6" fill="none" xmlns="http://www.w3.org/2000/svg" xmlns:xlink="http://www.w3.org/1999/xlink">
<path d="M1.822,0.83C0.726,0.83 -0.17,1.726 -0.17,2.822C-0.17,3.917 0.726,4.813 1.822,4.813C2.917,4.813 3.813,3.917 3.813,2.822C3.813,1.726 2.917,0.83 1.822,0.83ZM13.771,0.83C12.675,0.83 11.779,1.726 11.779,2.822C11.779,3.917 12.675,4.813 13.771,4.813C14.866,4.813 15.762,3.917 15.762,2.822C15.762,1.726 14.866,0.83 13.771,0.83ZM7.796,0.83C6.701,0.83 5.805,1.726 5.805,2.822C5.805,3.917 6.701,4.813 7.796,4.813C8.892,4.813 9.788,3.917 9.788,2.822C9.788,1.726 8.892,0.83 7.796,0.83Z" clip-rule="evenodd" fill-rule="evenodd" fill="#6C757D"/>
</svg>
