<svg width="16" height="4" viewBox="0 0 16 4" fill="none" xmlns="http://www.w3.org/2000/svg" xmlns:xlink="http://www.w3.org/1999/xlink">
<path d="M1.822,-0.406C0.726,-0.406 -0.17,0.49 -0.17,1.585C-0.17,2.681 0.726,3.577 1.822,3.577C2.917,3.577 3.813,2.681 3.813,1.585C3.813,0.49 2.917,-0.406 1.822,-0.406ZM13.771,-0.406C12.675,-0.406 11.779,0.49 11.779,1.585C11.779,2.681 12.675,3.577 13.771,3.577C14.866,3.577 15.762,2.681 15.762,1.585C15.762,0.49 14.866,-0.406 13.771,-0.406ZM7.796,-0.406C6.701,-0.406 5.805,0.49 5.805,1.585C5.805,2.681 6.701,3.577 7.796,3.577C8.892,3.577 9.788,2.681 9.788,1.585C9.788,0.49 8.892,-0.406 7.796,-0.406Z" clip-rule="evenodd" fill-rule="evenodd" fill="#6C757D"/>
</svg>
