<svg width="16" height="6" viewBox="0 0 16 6" fill="none" xmlns="http://www.w3.org/2000/svg" xmlns:xlink="http://www.w3.org/1999/xlink">
<path d="M1.822,0.576C0.726,0.576 -0.17,1.472 -0.17,2.568C-0.17,3.663 0.726,4.559 1.822,4.559C2.917,4.559 3.813,3.663 3.813,2.568C3.813,1.472 2.917,0.576 1.822,0.576ZM13.771,0.576C12.675,0.576 11.779,1.472 11.779,2.568C11.779,3.663 12.675,4.559 13.771,4.559C14.866,4.559 15.762,3.663 15.762,2.568C15.762,1.472 14.866,0.576 13.771,0.576ZM7.796,0.576C6.701,0.576 5.805,1.472 5.805,2.568C5.805,3.663 6.701,4.559 7.796,4.559C8.892,4.559 9.788,3.663 9.788,2.568C9.788,1.472 8.892,0.576 7.796,0.576Z" clip-rule="evenodd" fill-rule="evenodd" fill="#6C757D"/>
</svg>
