<svg width="16" height="4" viewBox="0 0 16 4" fill="none" xmlns="http://www.w3.org/2000/svg" xmlns:xlink="http://www.w3.org/1999/xlink">
<path d="M1.823,-0.441C0.727,-0.441 -0.169,0.455 -0.169,1.55C-0.169,2.645 0.727,3.542 1.823,3.542C2.918,3.542 3.814,2.645 3.814,1.55C3.814,0.455 2.918,-0.441 1.823,-0.441ZM13.771,-0.441C12.676,-0.441 11.78,0.455 11.78,1.55C11.78,2.646 12.676,3.542 13.771,3.542C14.867,3.542 15.763,2.646 15.763,1.55C15.763,0.455 14.867,-0.441 13.771,-0.441ZM7.797,-0.441C6.701,-0.441 5.805,0.455 5.805,1.55C5.805,2.646 6.701,3.542 7.797,3.542C8.892,3.542 9.788,2.646 9.788,1.55C9.788,0.455 8.892,-0.441 7.797,-0.441Z" clip-rule="evenodd" fill-rule="evenodd" fill="#6C757D"/>
</svg>
