<svg width="16" height="4" viewBox="0 0 16 4" fill="none" xmlns="http://www.w3.org/2000/svg" xmlns:xlink="http://www.w3.org/1999/xlink">
<path d="M1.822,-0.441C0.726,-0.441 -0.17,0.455 -0.17,1.55C-0.17,2.645 0.726,3.542 1.822,3.542C2.917,3.542 3.813,2.645 3.813,1.55C3.813,0.455 2.917,-0.441 1.822,-0.441ZM13.771,-0.441C12.675,-0.441 11.779,0.455 11.779,1.55C11.779,2.645 12.675,3.542 13.771,3.542C14.866,3.542 15.762,2.645 15.762,1.55C15.762,0.455 14.866,-0.441 13.771,-0.441ZM7.796,-0.441C6.701,-0.441 5.805,0.455 5.805,1.55C5.805,2.645 6.701,3.542 7.796,3.542C8.892,3.542 9.788,2.645 9.788,1.55C9.788,0.455 8.892,-0.441 7.796,-0.441Z" clip-rule="evenodd" fill-rule="evenodd" fill="#6C757D"/>
</svg>
