<svg width="16" height="4" viewBox="0 0 16 4" fill="none" xmlns="http://www.w3.org/2000/svg" xmlns:xlink="http://www.w3.org/1999/xlink">
<path d="M1.822,-0.152C0.726,-0.152 -0.17,0.744 -0.17,1.839C-0.17,2.935 0.726,3.831 1.822,3.831C2.917,3.831 3.813,2.935 3.813,1.839C3.813,0.744 2.917,-0.152 1.822,-0.152ZM13.771,-0.152C12.675,-0.152 11.779,0.744 11.779,1.839C11.779,2.935 12.675,3.831 13.771,3.831C14.866,3.831 15.762,2.935 15.762,1.839C15.762,0.744 14.866,-0.152 13.771,-0.152ZM7.796,-0.152C6.701,-0.152 5.805,0.744 5.805,1.839C5.805,2.935 6.701,3.831 7.796,3.831C8.892,3.831 9.788,2.935 9.788,1.839C9.788,0.744 8.892,-0.152 7.796,-0.152Z" clip-rule="evenodd" fill-rule="evenodd" fill="#6C757D"/>
</svg>
