<svg width="18" height="6" viewBox="0 0 18 6" fill="none" xmlns="http://www.w3.org/2000/svg" xmlns:xlink="http://www.w3.org/1999/xlink">
<path d="M2.406,0.83C1.31,0.83 0.414,1.726 0.414,2.822C0.414,3.917 1.31,4.813 2.406,4.813C3.501,4.813 4.397,3.917 4.397,2.822C4.397,1.726 3.501,0.83 2.406,0.83ZM14.355,0.83C13.259,0.83 12.363,1.726 12.363,2.822C12.363,3.917 13.259,4.813 14.355,4.813C15.45,4.813 16.346,3.917 16.346,2.822C16.346,1.726 15.45,0.83 14.355,0.83ZM8.38,0.83C7.285,0.83 6.389,1.726 6.389,2.822C6.389,3.917 7.285,4.813 8.38,4.813C9.476,4.813 10.372,3.917 10.372,2.822C10.372,1.726 9.476,0.83 8.38,0.83Z" clip-rule="evenodd" fill-rule="evenodd" fill="#6C757D"/>
</svg>
