<svg width="16" height="4" viewBox="0 0 16 4" fill="none" xmlns="http://www.w3.org/2000/svg" xmlns:xlink="http://www.w3.org/1999/xlink">
<path d="M1.822,-0.154C0.726,-0.154 -0.17,0.742 -0.17,1.837C-0.17,2.933 0.726,3.829 1.822,3.829C2.917,3.829 3.813,2.933 3.813,1.837C3.813,0.742 2.917,-0.154 1.822,-0.154ZM13.771,-0.154C12.675,-0.154 11.779,0.742 11.779,1.837C11.779,2.933 12.675,3.829 13.771,3.829C14.866,3.829 15.762,2.933 15.762,1.837C15.762,0.742 14.866,-0.154 13.771,-0.154ZM7.796,-0.154C6.701,-0.154 5.805,0.742 5.805,1.837C5.805,2.933 6.701,3.829 7.796,3.829C8.892,3.829 9.788,2.933 9.788,1.837C9.788,0.742 8.892,-0.154 7.796,-0.154Z" clip-rule="evenodd" fill-rule="evenodd" fill="#6C757D"/>
</svg>
