<svg width="16" height="6" viewBox="0 0 16 6" fill="none" xmlns="http://www.w3.org/2000/svg" xmlns:xlink="http://www.w3.org/1999/xlink">
<path d="M1.823,0.355C0.727,0.355 -0.169,1.252 -0.169,2.347C-0.169,3.442 0.727,4.339 1.823,4.339C2.918,4.339 3.814,3.442 3.814,2.347C3.814,1.252 2.918,0.355 1.823,0.355ZM13.771,0.356C12.676,0.356 11.78,1.252 11.78,2.347C11.78,3.442 12.676,4.339 13.771,4.339C14.867,4.339 15.763,3.442 15.763,2.347C15.763,1.252 14.867,0.356 13.771,0.356ZM7.797,0.356C6.701,0.356 5.805,1.252 5.805,2.347C5.805,3.442 6.701,4.339 7.797,4.339C8.892,4.339 9.788,3.442 9.788,2.347C9.788,1.252 8.892,0.356 7.797,0.356Z" clip-rule="evenodd" fill-rule="evenodd" fill="#6C757D"/>
</svg>
