<svg width="16" height="4" viewBox="0 0 16 4" fill="none" xmlns="http://www.w3.org/2000/svg" xmlns:xlink="http://www.w3.org/1999/xlink">
<path d="M1.822,-0.627C0.726,-0.627 -0.17,0.269 -0.17,1.365C-0.17,2.46 0.726,3.356 1.822,3.356C2.917,3.356 3.813,2.46 3.813,1.365C3.813,0.269 2.917,-0.627 1.822,-0.627ZM13.771,-0.627C12.675,-0.627 11.779,0.269 11.779,1.365C11.779,2.46 12.675,3.356 13.771,3.356C14.866,3.356 15.762,2.46 15.762,1.365C15.762,0.269 14.866,-0.627 13.771,-0.627ZM7.796,-0.627C6.701,-0.627 5.805,0.269 5.805,1.365C5.805,2.46 6.701,3.356 7.796,3.356C8.892,3.356 9.788,2.46 9.788,1.365C9.788,0.269 8.892,-0.627 7.796,-0.627Z" clip-rule="evenodd" fill-rule="evenodd" fill="#6C757D"/>
</svg>
