<svg width="16" height="6" viewBox="0 0 16 6" fill="none" xmlns="http://www.w3.org/2000/svg" xmlns:xlink="http://www.w3.org/1999/xlink">
<path d="M1.822,0.07C0.726,0.07 -0.17,0.966 -0.17,2.062C-0.17,3.157 0.726,4.053 1.822,4.053C2.917,4.053 3.813,3.157 3.813,2.062C3.813,0.966 2.917,0.07 1.822,0.07ZM13.771,0.07C12.675,0.07 11.779,0.966 11.779,2.062C11.779,3.157 12.675,4.053 13.771,4.053C14.866,4.053 15.762,3.157 15.762,2.062C15.762,0.966 14.866,0.07 13.771,0.07ZM7.796,0.07C6.701,0.07 5.805,0.966 5.805,2.062C5.805,3.157 6.701,4.053 7.796,4.053C8.892,4.053 9.788,3.157 9.788,2.062C9.788,0.966 8.892,0.07 7.796,0.07Z" clip-rule="evenodd" fill-rule="evenodd" fill="#6C757D"/>
</svg>
