<svg width="16" height="4" viewBox="0 0 16 4" fill="none" xmlns="http://www.w3.org/2000/svg" xmlns:xlink="http://www.w3.org/1999/xlink">
<path d="M1.822,-0.408C0.726,-0.408 -0.17,0.488 -0.17,1.583C-0.17,2.679 0.726,3.575 1.822,3.575C2.917,3.575 3.813,2.679 3.813,1.583C3.813,0.488 2.917,-0.408 1.822,-0.408ZM13.771,-0.408C12.675,-0.408 11.779,0.488 11.779,1.583C11.779,2.679 12.675,3.575 13.771,3.575C14.866,3.575 15.762,2.679 15.762,1.583C15.762,0.488 14.866,-0.408 13.771,-0.408ZM7.796,-0.408C6.701,-0.408 5.805,0.488 5.805,1.583C5.805,2.679 6.701,3.575 7.796,3.575C8.892,3.575 9.788,2.679 9.788,1.583C9.788,0.488 8.892,-0.408 7.796,-0.408Z" clip-rule="evenodd" fill-rule="evenodd" fill="#6C757D"/>
</svg>
