<svg width="16" height="6" viewBox="0 0 16 6" fill="none" xmlns="http://www.w3.org/2000/svg" xmlns:xlink="http://www.w3.org/1999/xlink">
<path d="M1.822,0.355C0.726,0.355 -0.17,1.252 -0.17,2.347C-0.17,3.442 0.726,4.339 1.822,4.339C2.917,4.339 3.813,3.442 3.813,2.347C3.813,1.252 2.917,0.355 1.822,0.355ZM13.771,0.355C12.675,0.355 11.779,1.252 11.779,2.347C11.779,3.442 12.675,4.339 13.771,4.339C14.866,4.339 15.762,3.442 15.762,2.347C15.762,1.252 14.866,0.355 13.771,0.355ZM7.796,0.355C6.701,0.355 5.805,1.252 5.805,2.347C5.805,3.442 6.701,4.339 7.796,4.339C8.892,4.339 9.788,3.442 9.788,2.347C9.788,1.252 8.892,0.355 7.796,0.355Z" clip-rule="evenodd" fill-rule="evenodd" fill="#6C757D"/>
</svg>
