<svg width="18" height="4" viewBox="0 0 18 4" fill="none" xmlns="http://www.w3.org/2000/svg" xmlns:xlink="http://www.w3.org/1999/xlink">
<path d="M2.406,-0.441C1.31,-0.441 0.414,0.455 0.414,1.55C0.414,2.645 1.31,3.542 2.406,3.542C3.501,3.542 4.397,2.645 4.397,1.55C4.397,0.455 3.501,-0.441 2.406,-0.441ZM14.355,-0.441C13.259,-0.441 12.363,0.455 12.363,1.55C12.363,2.646 13.259,3.542 14.355,3.542C15.45,3.542 16.346,2.646 16.346,1.55C16.346,0.455 15.45,-0.441 14.355,-0.441ZM8.38,-0.441C7.285,-0.441 6.389,0.455 6.389,1.55C6.389,2.646 7.285,3.542 8.38,3.542C9.476,3.542 10.372,2.646 10.372,1.55C10.372,0.455 9.476,-0.441 8.38,-0.441Z" clip-rule="evenodd" fill-rule="evenodd" fill="#6C757D"/>
</svg>
