<svg width="18" height="4" viewBox="0 0 18 4" fill="none" xmlns="http://www.w3.org/2000/svg" xmlns:xlink="http://www.w3.org/1999/xlink">
<path d="M2.406,-0.629C1.31,-0.629 0.414,0.267 0.414,1.363C0.414,2.458 1.31,3.354 2.406,3.354C3.501,3.354 4.397,2.458 4.397,1.363C4.397,0.267 3.501,-0.629 2.406,-0.629ZM14.355,-0.629C13.259,-0.629 12.363,0.267 12.363,1.363C12.363,2.458 13.259,3.354 14.355,3.354C15.45,3.354 16.346,2.458 16.346,1.363C16.346,0.267 15.45,-0.629 14.355,-0.629ZM8.38,-0.629C7.285,-0.629 6.389,0.267 6.389,1.363C6.389,2.458 7.285,3.354 8.38,3.354C9.476,3.354 10.372,2.458 10.372,1.363C10.372,0.267 9.476,-0.629 8.38,-0.629Z" clip-rule="evenodd" fill-rule="evenodd" fill="#6C757D"/>
</svg>
