<svg width="16" height="4" viewBox="0 0 16 4" fill="none" xmlns="http://www.w3.org/2000/svg" xmlns:xlink="http://www.w3.org/1999/xlink">
<path d="M1.822,-0.66C0.726,-0.66 -0.17,0.236 -0.17,1.331C-0.17,2.427 0.726,3.323 1.822,3.323C2.917,3.323 3.813,2.427 3.813,1.331C3.813,0.236 2.917,-0.66 1.822,-0.66ZM13.771,-0.66C12.675,-0.66 11.779,0.236 11.779,1.331C11.779,2.427 12.675,3.323 13.771,3.323C14.866,3.323 15.762,2.427 15.762,1.331C15.762,0.236 14.866,-0.66 13.771,-0.66ZM7.796,-0.66C6.701,-0.66 5.805,0.236 5.805,1.331C5.805,2.427 6.701,3.323 7.796,3.323C8.892,3.323 9.788,2.427 9.788,1.331C9.788,0.236 8.892,-0.66 7.796,-0.66Z" clip-rule="evenodd" fill-rule="evenodd" fill="#6C757D"/>
</svg>
