<svg width="18" height="6" viewBox="0 0 18 6" fill="none" xmlns="http://www.w3.org/2000/svg" xmlns:xlink="http://www.w3.org/1999/xlink">
<path d="M2.406,0.609C1.31,0.609 0.414,1.506 0.414,2.601C0.414,3.696 1.31,4.592 2.406,4.592C3.501,4.592 4.397,3.696 4.397,2.601C4.397,1.506 3.501,0.609 2.406,0.609ZM14.355,0.61C13.259,0.61 12.363,1.506 12.363,2.601C12.363,3.697 13.259,4.593 14.355,4.593C15.45,4.593 16.346,3.697 16.346,2.601C16.346,1.506 15.45,0.61 14.355,0.61ZM8.38,0.61C7.285,0.61 6.389,1.506 6.389,2.601C6.389,3.697 7.285,4.593 8.38,4.593C9.476,4.593 10.372,3.697 10.372,2.601C10.372,1.506 9.476,0.61 8.38,0.61Z" clip-rule="evenodd" fill-rule="evenodd" fill="#6C757D"/>
</svg>
