<svg width="18" height="4" viewBox="0 0 18 4" fill="none" xmlns="http://www.w3.org/2000/svg" xmlns:xlink="http://www.w3.org/1999/xlink">
<path d="M2.406,-0.406C1.31,-0.406 0.414,0.49 0.414,1.585C0.414,2.681 1.31,3.577 2.406,3.577C3.501,3.577 4.397,2.681 4.397,1.585C4.397,0.49 3.501,-0.406 2.406,-0.406ZM14.355,-0.406C13.259,-0.406 12.363,0.49 12.363,1.585C12.363,2.681 13.259,3.577 14.355,3.577C15.45,3.577 16.346,2.681 16.346,1.585C16.346,0.49 15.45,-0.406 14.355,-0.406ZM8.38,-0.406C7.285,-0.406 6.389,0.49 6.389,1.585C6.389,2.681 7.285,3.577 8.38,3.577C9.476,3.577 10.372,2.681 10.372,1.585C10.372,0.49 9.476,-0.406 8.38,-0.406Z" clip-rule="evenodd" fill-rule="evenodd" fill="#6C757D"/>
</svg>
