<svg width="16" height="4" viewBox="0 0 16 4" fill="none" xmlns="http://www.w3.org/2000/svg" xmlns:xlink="http://www.w3.org/1999/xlink">
<path d="M1.822,-0.662C0.726,-0.662 -0.17,0.234 -0.17,1.329C-0.17,2.425 0.726,3.321 1.822,3.321C2.917,3.321 3.813,2.425 3.813,1.329C3.813,0.234 2.917,-0.662 1.822,-0.662ZM13.771,-0.662C12.675,-0.662 11.779,0.234 11.779,1.329C11.779,2.425 12.675,3.321 13.771,3.321C14.866,3.321 15.762,2.425 15.762,1.329C15.762,0.234 14.866,-0.662 13.771,-0.662ZM7.796,-0.662C6.701,-0.662 5.805,0.234 5.805,1.329C5.805,2.425 6.701,3.321 7.796,3.321C8.892,3.321 9.788,2.425 9.788,1.329C9.788,0.234 8.892,-0.662 7.796,-0.662Z" clip-rule="evenodd" fill-rule="evenodd" fill="#6C757D"/>
</svg>
