<svg width="18" height="4" viewBox="0 0 18 4" fill="none" xmlns="http://www.w3.org/2000/svg" xmlns:xlink="http://www.w3.org/1999/xlink">
<path d="M2.406,-0.916C1.31,-0.916 0.414,-0.02 0.414,1.076C0.414,2.171 1.31,3.067 2.406,3.067C3.501,3.067 4.397,2.171 4.397,1.076C4.397,-0.02 3.501,-0.916 2.406,-0.916ZM14.355,-0.916C13.259,-0.916 12.363,-0.019 12.363,1.076C12.363,2.171 13.259,3.067 14.355,3.067C15.45,3.067 16.346,2.171 16.346,1.076C16.346,-0.019 15.45,-0.916 14.355,-0.916ZM8.38,-0.916C7.285,-0.916 6.389,-0.019 6.389,1.076C6.389,2.171 7.285,3.067 8.38,3.067C9.476,3.067 10.372,2.171 10.372,1.076C10.372,-0.019 9.476,-0.916 8.38,-0.916Z" clip-rule="evenodd" fill-rule="evenodd" fill="#6C757D"/>
</svg>
