<svg width="16" height="6" viewBox="0 0 16 6" fill="none" xmlns="http://www.w3.org/2000/svg" xmlns:xlink="http://www.w3.org/1999/xlink">
<path d="M1.822,0.863C0.726,0.863 -0.17,1.759 -0.17,2.855C-0.17,3.95 0.726,4.846 1.822,4.846C2.917,4.846 3.813,3.95 3.813,2.855C3.813,1.759 2.917,0.863 1.822,0.863ZM13.771,0.863C12.675,0.863 11.779,1.759 11.779,2.855C11.779,3.95 12.675,4.846 13.771,4.846C14.866,4.846 15.762,3.95 15.762,2.855C15.762,1.759 14.866,0.863 13.771,0.863ZM7.796,0.863C6.701,0.863 5.805,1.759 5.805,2.855C5.805,3.95 6.701,4.846 7.796,4.846C8.892,4.846 9.788,3.95 9.788,2.855C9.788,1.759 8.892,0.863 7.796,0.863Z" clip-rule="evenodd" fill-rule="evenodd" fill="#6C757D"/>
</svg>
