<svg width="18" height="4" viewBox="0 0 18 4" fill="none" xmlns="http://www.w3.org/2000/svg" xmlns:xlink="http://www.w3.org/1999/xlink">
<path d="M2.406,-0.66C1.31,-0.66 0.414,0.236 0.414,1.331C0.414,2.427 1.31,3.323 2.406,3.323C3.501,3.323 4.397,2.427 4.397,1.331C4.397,0.236 3.501,-0.66 2.406,-0.66ZM14.355,-0.66C13.259,-0.66 12.363,0.236 12.363,1.331C12.363,2.427 13.259,3.323 14.355,3.323C15.45,3.323 16.346,2.427 16.346,1.331C16.346,0.236 15.45,-0.66 14.355,-0.66ZM8.38,-0.66C7.285,-0.66 6.389,0.236 6.389,1.331C6.389,2.427 7.285,3.323 8.38,3.323C9.476,3.323 10.372,2.427 10.372,1.331C10.372,0.236 9.476,-0.66 8.38,-0.66Z" clip-rule="evenodd" fill-rule="evenodd" fill="#6C757D"/>
</svg>
