<svg width="16" height="6" viewBox="0 0 16 6" fill="none" xmlns="http://www.w3.org/2000/svg" xmlns:xlink="http://www.w3.org/1999/xlink">
<path d="M1.823,0.102C0.727,0.102 -0.169,0.998 -0.169,2.093C-0.169,3.189 0.727,4.085 1.823,4.085C2.918,4.085 3.814,3.189 3.814,2.093C3.814,0.998 2.918,0.102 1.823,0.102ZM13.771,0.102C12.676,0.102 11.78,0.998 11.78,2.093C11.78,3.188 12.676,4.085 13.771,4.085C14.867,4.085 15.763,3.188 15.763,2.093C15.763,0.998 14.867,0.102 13.771,0.102ZM7.797,0.102C6.701,0.102 5.805,0.998 5.805,2.093C5.805,3.188 6.701,4.085 7.797,4.085C8.892,4.085 9.788,3.188 9.788,2.093C9.788,0.998 8.892,0.102 7.797,0.102Z" clip-rule="evenodd" fill-rule="evenodd" fill="#6C757D"/>
</svg>
