<svg width="16" height="4" viewBox="0 0 16 4" fill="none" xmlns="http://www.w3.org/2000/svg" xmlns:xlink="http://www.w3.org/1999/xlink">
<path d="M1.822,-0.187C0.726,-0.187 -0.17,0.709 -0.17,1.804C-0.17,2.899 0.726,3.796 1.822,3.796C2.917,3.796 3.813,2.899 3.813,1.804C3.813,0.709 2.917,-0.187 1.822,-0.187ZM13.771,-0.188C12.675,-0.188 11.779,0.709 11.779,1.804C11.779,2.899 12.675,3.796 13.771,3.796C14.866,3.796 15.762,2.899 15.762,1.804C15.762,0.709 14.866,-0.188 13.771,-0.188ZM7.796,-0.188C6.701,-0.188 5.805,0.709 5.805,1.804C5.805,2.899 6.701,3.796 7.796,3.796C8.892,3.796 9.788,2.899 9.788,1.804C9.788,0.709 8.892,-0.188 7.796,-0.188Z" clip-rule="evenodd" fill-rule="evenodd" fill="#6C757D"/>
</svg>
