<svg width="16" height="4" viewBox="0 0 16 4" fill="none" xmlns="http://www.w3.org/2000/svg" xmlns:xlink="http://www.w3.org/1999/xlink">
<path d="M1.822,-0.916C0.726,-0.916 -0.17,-0.02 -0.17,1.076C-0.17,2.171 0.726,3.067 1.822,3.067C2.917,3.067 3.813,2.171 3.813,1.076C3.813,-0.02 2.917,-0.916 1.822,-0.916ZM13.771,-0.916C12.675,-0.916 11.779,-0.02 11.779,1.076C11.779,2.171 12.675,3.067 13.771,3.067C14.866,3.067 15.762,2.171 15.762,1.076C15.762,-0.02 14.866,-0.916 13.771,-0.916ZM7.796,-0.916C6.701,-0.916 5.805,-0.02 5.805,1.076C5.805,2.171 6.701,3.067 7.796,3.067C8.892,3.067 9.788,2.171 9.788,1.076C9.788,-0.02 8.892,-0.916 7.796,-0.916Z" clip-rule="evenodd" fill-rule="evenodd" fill="#6C757D"/>
</svg>
