<svg width="16" height="6" viewBox="0 0 16 6" fill="none" xmlns="http://www.w3.org/2000/svg" xmlns:xlink="http://www.w3.org/1999/xlink">
<path d="M1.822,0.068C0.726,0.068 -0.17,0.965 -0.17,2.06C-0.17,3.155 0.726,4.051 1.822,4.051C2.917,4.051 3.813,3.155 3.813,2.06C3.813,0.965 2.917,0.068 1.822,0.068ZM13.771,0.068C12.675,0.068 11.779,0.965 11.779,2.06C11.779,3.155 12.675,4.051 13.771,4.051C14.866,4.051 15.762,3.155 15.762,2.06C15.762,0.965 14.866,0.068 13.771,0.068ZM7.796,0.068C6.701,0.068 5.805,0.965 5.805,2.06C5.805,3.155 6.701,4.051 7.796,4.051C8.892,4.051 9.788,3.155 9.788,2.06C9.788,0.965 8.892,0.068 7.796,0.068Z" clip-rule="evenodd" fill-rule="evenodd" fill="#6C757D"/>
</svg>
