<svg width="16" height="6" viewBox="0 0 16 6" fill="none" xmlns="http://www.w3.org/2000/svg" xmlns:xlink="http://www.w3.org/1999/xlink">
<path d="M1.822,0.102C0.726,0.102 -0.17,0.998 -0.17,2.093C-0.17,3.188 0.726,4.085 1.822,4.085C2.917,4.085 3.813,3.188 3.813,2.093C3.813,0.998 2.917,0.102 1.822,0.102ZM13.771,0.102C12.675,0.102 11.779,0.998 11.779,2.093C11.779,3.188 12.675,4.085 13.771,4.085C14.866,4.085 15.762,3.188 15.762,2.093C15.762,0.998 14.866,0.102 13.771,0.102ZM7.796,0.102C6.701,0.102 5.805,0.998 5.805,2.093C5.805,3.188 6.701,4.085 7.796,4.085C8.892,4.085 9.788,3.188 9.788,2.093C9.788,0.998 8.892,0.102 7.796,0.102Z" clip-rule="evenodd" fill-rule="evenodd" fill="#6C757D"/>
</svg>
