<svg width="16" height="4" viewBox="0 0 16 4" fill="none" xmlns="http://www.w3.org/2000/svg" xmlns:xlink="http://www.w3.org/1999/xlink">
<path d="M1.822,-0.186C0.726,-0.186 -0.17,0.711 -0.17,1.806C-0.17,2.901 0.726,3.798 1.822,3.798C2.917,3.798 3.813,2.901 3.813,1.806C3.813,0.711 2.917,-0.186 1.822,-0.186ZM13.771,-0.186C12.675,-0.186 11.779,0.711 11.779,1.806C11.779,2.901 12.675,3.798 13.771,3.798C14.866,3.798 15.762,2.901 15.762,1.806C15.762,0.711 14.866,-0.186 13.771,-0.186ZM7.796,-0.186C6.701,-0.186 5.805,0.711 5.805,1.806C5.805,2.901 6.701,3.798 7.796,3.798C8.892,3.798 9.788,2.901 9.788,1.806C9.788,0.711 8.892,-0.186 7.796,-0.186Z" clip-rule="evenodd" fill-rule="evenodd" fill="#6C757D"/>
</svg>
