<svg width="16" height="6" viewBox="0 0 16 6" fill="none" xmlns="http://www.w3.org/2000/svg" xmlns:xlink="http://www.w3.org/1999/xlink">
<path d="M1.823,0.576C0.727,0.576 -0.169,1.473 -0.169,2.568C-0.169,3.663 0.727,4.559 1.823,4.559C2.918,4.559 3.814,3.663 3.814,2.568C3.814,1.473 2.918,0.576 1.823,0.576ZM13.771,0.576C12.676,0.576 11.78,1.472 11.78,2.568C11.78,3.663 12.676,4.559 13.771,4.559C14.867,4.559 15.763,3.663 15.763,2.568C15.763,1.472 14.867,0.576 13.771,0.576ZM7.797,0.576C6.701,0.576 5.805,1.472 5.805,2.568C5.805,3.663 6.701,4.559 7.797,4.559C8.892,4.559 9.788,3.663 9.788,2.568C9.788,1.472 8.892,0.576 7.797,0.576Z" clip-rule="evenodd" fill-rule="evenodd" fill="#6C757D"/>
</svg>
