<svg width="16" height="6" viewBox="0 0 16 6" fill="none" xmlns="http://www.w3.org/2000/svg" xmlns:xlink="http://www.w3.org/1999/xlink">
<path d="M1.823,0.83C0.727,0.83 -0.169,1.726 -0.169,2.822C-0.169,3.917 0.727,4.813 1.823,4.813C2.918,4.813 3.814,3.917 3.814,2.822C3.814,1.726 2.918,0.83 1.823,0.83ZM13.771,0.83C12.676,0.83 11.78,1.726 11.78,2.822C11.78,3.917 12.676,4.813 13.771,4.813C14.867,4.813 15.763,3.917 15.763,2.822C15.763,1.726 14.867,0.83 13.771,0.83ZM7.797,0.83C6.701,0.83 5.805,1.726 5.805,2.822C5.805,3.917 6.701,4.813 7.797,4.813C8.892,4.813 9.788,3.917 9.788,2.822C9.788,1.726 8.892,0.83 7.797,0.83Z" clip-rule="evenodd" fill-rule="evenodd" fill="#6C757D"/>
</svg>
