<svg width="16" height="6" viewBox="0 0 16 6" fill="none" xmlns="http://www.w3.org/2000/svg" xmlns:xlink="http://www.w3.org/1999/xlink">
<path d="M1.822,0.32C0.726,0.32 -0.17,1.216 -0.17,2.312C-0.17,3.407 0.726,4.303 1.822,4.303C2.917,4.303 3.813,3.407 3.813,2.312C3.813,1.216 2.917,0.32 1.822,0.32ZM13.771,0.32C12.675,0.32 11.779,1.216 11.779,2.312C11.779,3.407 12.675,4.303 13.771,4.303C14.866,4.303 15.762,3.407 15.762,2.312C15.762,1.216 14.866,0.32 13.771,0.32ZM7.796,0.32C6.701,0.32 5.805,1.216 5.805,2.312C5.805,3.407 6.701,4.303 7.796,4.303C8.892,4.303 9.788,3.407 9.788,2.312C9.788,1.216 8.892,0.32 7.796,0.32Z" clip-rule="evenodd" fill-rule="evenodd" fill="#6C757D"/>
</svg>
