<svg width="16" height="6" viewBox="0 0 16 6" fill="none" xmlns="http://www.w3.org/2000/svg" xmlns:xlink="http://www.w3.org/1999/xlink">
<path d="M1.823,0.609C0.727,0.609 -0.169,1.506 -0.169,2.601C-0.169,3.696 0.727,4.592 1.823,4.592C2.918,4.592 3.814,3.696 3.814,2.601C3.814,1.506 2.918,0.609 1.823,0.609ZM13.771,0.61C12.676,0.61 11.78,1.506 11.78,2.601C11.78,3.697 12.676,4.593 13.771,4.593C14.867,4.593 15.763,3.697 15.763,2.601C15.763,1.506 14.867,0.61 13.771,0.61ZM7.797,0.61C6.701,0.61 5.805,1.506 5.805,2.601C5.805,3.697 6.701,4.593 7.797,4.593C8.892,4.593 9.788,3.697 9.788,2.601C9.788,1.506 8.892,0.61 7.797,0.61Z" clip-rule="evenodd" fill-rule="evenodd" fill="#6C757D"/>
</svg>
