<svg width="18" height="6" viewBox="0 0 18 6" fill="none" xmlns="http://www.w3.org/2000/svg" xmlns:xlink="http://www.w3.org/1999/xlink">
<path d="M2.406,0.32C1.31,0.32 0.414,1.216 0.414,2.312C0.414,3.407 1.31,4.303 2.406,4.303C3.501,4.303 4.397,3.407 4.397,2.312C4.397,1.216 3.501,0.32 2.406,0.32ZM14.355,0.32C13.259,0.32 12.363,1.216 12.363,2.312C12.363,3.407 13.259,4.303 14.355,4.303C15.45,4.303 16.346,3.407 16.346,2.312C16.346,1.216 15.45,0.32 14.355,0.32ZM8.38,0.32C7.285,0.32 6.389,1.216 6.389,2.312C6.389,3.407 7.285,4.303 8.38,4.303C9.476,4.303 10.372,3.407 10.372,2.312C10.372,1.216 9.476,0.32 8.38,0.32Z" clip-rule="evenodd" fill-rule="evenodd" fill="#6C757D"/>
</svg>
