<svg width="16" height="6" viewBox="0 0 16 6" fill="none" xmlns="http://www.w3.org/2000/svg" xmlns:xlink="http://www.w3.org/1999/xlink">
<path d="M1.822,0.322C0.726,0.322 -0.17,1.218 -0.17,2.314C-0.17,3.409 0.726,4.305 1.822,4.305C2.917,4.305 3.813,3.409 3.813,2.314C3.813,1.218 2.917,0.322 1.822,0.322ZM13.771,0.322C12.675,0.322 11.779,1.218 11.779,2.314C11.779,3.409 12.675,4.305 13.771,4.305C14.866,4.305 15.762,3.409 15.762,2.314C15.762,1.218 14.866,0.322 13.771,0.322ZM7.796,0.322C6.701,0.322 5.805,1.218 5.805,2.314C5.805,3.409 6.701,4.305 7.796,4.305C8.892,4.305 9.788,3.409 9.788,2.314C9.788,1.218 8.892,0.322 7.796,0.322Z" clip-rule="evenodd" fill-rule="evenodd" fill="#6C757D"/>
</svg>
