<svg width="16" height="4" viewBox="0 0 16 4" fill="none" xmlns="http://www.w3.org/2000/svg" xmlns:xlink="http://www.w3.org/1999/xlink">
<path d="M1.823,-0.916C0.727,-0.916 -0.169,-0.02 -0.169,1.076C-0.169,2.171 0.727,3.067 1.823,3.067C2.918,3.067 3.814,2.171 3.814,1.076C3.814,-0.02 2.918,-0.916 1.823,-0.916ZM13.771,-0.916C12.676,-0.916 11.78,-0.019 11.78,1.076C11.78,2.171 12.676,3.067 13.771,3.067C14.867,3.067 15.763,2.171 15.763,1.076C15.763,-0.019 14.867,-0.916 13.771,-0.916ZM7.797,-0.916C6.701,-0.916 5.805,-0.019 5.805,1.076C5.805,2.171 6.701,3.067 7.797,3.067C8.892,3.067 9.788,2.171 9.788,1.076C9.788,-0.019 8.892,-0.916 7.797,-0.916Z" clip-rule="evenodd" fill-rule="evenodd" fill="#6C757D"/>
</svg>
