<svg width="18" height="6" viewBox="0 0 18 6" fill="none" xmlns="http://www.w3.org/2000/svg" xmlns:xlink="http://www.w3.org/1999/xlink">
<path d="M2.406,0.355C1.31,0.355 0.414,1.252 0.414,2.347C0.414,3.442 1.31,4.339 2.406,4.339C3.501,4.339 4.397,3.442 4.397,2.347C4.397,1.252 3.501,0.355 2.406,0.355ZM14.355,0.356C13.259,0.356 12.363,1.252 12.363,2.347C12.363,3.442 13.259,4.339 14.355,4.339C15.45,4.339 16.346,3.442 16.346,2.347C16.346,1.252 15.45,0.356 14.355,0.356ZM8.38,0.356C7.285,0.356 6.389,1.252 6.389,2.347C6.389,3.442 7.285,4.339 8.38,4.339C9.476,4.339 10.372,3.442 10.372,2.347C10.372,1.252 9.476,0.356 8.38,0.356Z" clip-rule="evenodd" fill-rule="evenodd" fill="#6C757D"/>
</svg>
