<svg width="56" height="56" viewBox="0 0 56 56" fill="none" xmlns="http://www.w3.org/2000/svg" xmlns:xlink="http://www.w3.org/1999/xlink">
<path d="M21,53.583L35,53.583L35,49.083L21,49.083L21,53.583ZM35,53.583C41.055,53.583 45.879,52.386 49.133,49.133C52.386,45.879 53.583,41.055 53.583,35L49.083,35C49.083,40.611 47.947,43.954 45.951,45.951C43.954,47.947 40.612,49.083 35,49.083L35,53.583ZM53.583,35L53.583,21L49.083,21L49.083,35L53.583,35ZM53.583,21C53.583,14.945 52.386,10.121 49.133,6.867C45.879,3.614 41.055,2.417 35,2.417L35,6.917C40.612,6.917 43.954,8.053 45.951,10.049C47.947,12.046 49.083,15.388 49.083,21L53.583,21ZM35,2.417L21,2.417L21,6.917L35,6.917L35,2.417ZM21,2.417C14.945,2.417 10.121,3.614 6.867,6.867C3.614,10.121 2.417,14.945 2.417,21L6.917,21C6.917,15.388 8.053,12.046 10.049,10.049C12.046,8.053 15.389,6.917 21,6.917L21,2.417ZM2.417,21L2.417,35L6.917,35L6.917,21L2.417,21ZM2.417,35C2.417,41.055 3.614,45.879 6.867,49.133C10.121,52.386 14.945,53.583 21,53.583L21,49.083C15.389,49.083 12.046,47.947 10.049,45.951C8.053,43.954 6.917,40.611 6.917,35L2.417,35Z" fill="#0060FF"/>
<path d="M19.409,20.599C18.53,21.478 18.53,22.902 19.409,23.781C20.288,24.66 21.712,24.66 22.591,23.781L19.409,20.599ZM28,15.19L29.591,13.599C28.712,12.72 27.288,12.72 26.409,13.599L28,15.19ZM33.409,23.781C34.288,24.66 35.712,24.66 36.591,23.781C37.47,22.902 37.47,21.478 36.591,20.599L33.409,23.781ZM22.591,23.781L29.591,16.781L26.409,13.599L19.409,20.599L22.591,23.781ZM26.409,16.781L33.409,23.781L36.591,20.599L29.591,13.599L26.409,16.781Z" fill="#0060FF"/>
<line x1="25.75" y1="15.19" x2="25.75" y2="33.857" stroke="#0060FF" stroke-width="2.25" stroke-miterlimit="3.999327" stroke-linecap="round" stroke-linejoin="round"/>
<path d="M14.713,36.389C13.535,35.996 12.26,36.632 11.866,37.81C11.472,38.989 12.108,40.264 13.287,40.657L14.713,36.389ZM42.713,40.657C43.892,40.264 44.528,38.989 44.134,37.81C43.74,36.632 42.465,35.996 41.287,36.389L42.713,40.657ZM13.287,40.657C22.826,43.845 33.174,43.845 42.713,40.657L41.287,36.389C32.673,39.268 23.327,39.268 14.713,36.389L13.287,40.657Z" fill="#0060FF"/>
</svg>
