<svg width="54" height="50" viewBox="0 0 54 50" fill="none" xmlns="http://www.w3.org/2000/svg" xmlns:xlink="http://www.w3.org/1999/xlink">
<path d="M39.851,0L10.209,0C9.02,0 8.017,0 7.191,0.052C6.328,0.107 5.498,0.226 4.689,0.537C2.828,1.254 1.349,2.628 0.578,4.358C0.243,5.11 0.115,5.882 0.056,6.684C0,7.451 0,8.383 0,9.489L0,27.2C0,31.78 0,35.427 0.413,38.285C0.84,41.235 1.744,43.653 3.799,45.563C5.855,47.474 8.456,48.314 11.63,48.71C14.706,49.094 18.629,49.094 23.557,49.094L30.588,49.094C34.884,49.094 38.305,49.094 41.017,48.797C43.807,48.49 46.132,47.844 48.08,46.358C48.737,45.857 49.339,45.297 49.878,44.687C51.477,42.876 52.172,40.715 52.502,38.122C52.823,35.602 52.823,32.422 52.822,28.429L52.822,28.16C52.823,24.167 52.823,20.987 52.502,18.467C52.172,15.874 51.477,13.713 49.878,11.902C49.339,11.292 48.737,10.732 48.08,10.231C46.132,8.745 43.807,8.099 41.017,7.792C38.305,7.495 34.884,7.495 30.588,7.495L4.458,7.495C4.465,7.302 4.474,7.127 4.486,6.964C4.529,6.373 4.606,6.103 4.68,5.937C5,5.218 5.615,4.647 6.388,4.35C6.566,4.281 6.856,4.209 7.493,4.169C8.15,4.127 9.001,4.126 10.284,4.126L39.851,4.126C41.077,4.126 42.071,3.203 42.071,2.063C42.071,0.924 41.077,0 39.851,0ZM4.44,27.045L4.44,11.621L30.443,11.621C34.916,11.621 38.075,11.624 40.495,11.89C42.867,12.151 44.238,12.638 45.264,13.421C45.696,13.75 46.092,14.119 46.446,14.52C47.288,15.474 47.813,16.748 48.093,18.952C48.379,21.201 48.383,24.138 48.383,28.295C48.383,32.452 48.379,35.388 48.093,37.637C47.813,39.841 47.288,41.116 46.446,42.069C46.092,42.47 45.696,42.839 45.264,43.168C44.238,43.951 42.867,44.438 40.495,44.699C38.075,44.965 34.916,44.968 30.443,44.968L23.723,44.968C18.592,44.968 14.967,44.964 12.221,44.621C9.54,44.286 8.032,43.662 6.939,42.646C5.845,41.629 5.174,40.228 4.813,37.735C4.444,35.184 4.44,31.815 4.44,27.045Z" clip-rule="evenodd" fill-rule="evenodd" fill="#959BA5"/>
<path d="M41.084,30.002C41.084,31.508 39.77,32.729 38.15,32.729C36.529,32.729 35.215,31.508 35.215,30.002C35.215,28.496 36.529,27.274 38.15,27.274C39.77,27.274 41.084,28.496 41.084,30.002Z" fill="#959BA5"/>
</svg>
