<svg width="62" height="62" viewBox="0 0 62 62" fill="none" xmlns="http://www.w3.org/2000/svg" xmlns:xlink="http://www.w3.org/1999/xlink">
<path d="M30.62,-0.052C13.709,-0.052 0,13.687 0,30.635C0,47.582 13.709,61.321 30.62,61.321C47.531,61.321 61.241,47.582 61.241,30.635C61.241,13.687 47.531,-0.052 30.62,-0.052L30.62,-0.052ZM27.448,56.748C21.638,56.05 16.263,53.444 12.061,49.234C7.104,44.266 4.374,37.661 4.374,30.635C4.374,24.31 6.588,18.327 10.646,13.571C10.75,14.828 11.008,16.175 10.942,17.138C10.701,20.648 10.355,22.846 12.405,25.807C13.204,26.961 13.4,28.614 13.789,29.95C14.17,31.256 15.689,31.941 16.736,32.746C18.85,34.37 20.872,36.258 23.114,37.687C24.593,38.631 25.517,39.1 25.084,40.909C24.736,42.364 24.638,43.26 23.887,44.557C23.658,44.952 24.752,47.495 25.117,47.86C26.22,48.966 27.316,49.981 28.519,50.977C30.384,52.521 28.338,54.528 27.448,56.748L27.448,56.748ZM49.179,49.234C45.405,53.015 40.685,55.502 35.554,56.475C36.281,54.672 37.576,53.071 38.777,52.143C39.822,51.335 41.13,49.781 41.676,48.55C42.221,47.321 42.943,46.255 43.675,45.125C44.715,43.517 41.11,41.092 39.942,40.584C37.314,39.44 35.335,37.897 33,36.25C31.335,35.076 27.956,36.863 26.078,36.041C23.504,34.915 21.384,32.958 19.147,31.27C16.839,29.528 16.95,27.497 16.95,24.926C18.758,24.993 21.331,24.425 22.531,25.882C22.91,26.342 24.212,28.396 25.084,27.666C25.796,27.07 24.556,24.679 24.317,24.117C23.58,22.389 25.995,21.715 27.232,20.543C28.845,19.014 32.306,16.616 32.033,15.52C31.759,14.424 28.57,11.318 26.696,11.803C26.416,11.875 23.944,14.473 23.466,14.88C23.479,14.032 23.492,13.185 23.505,12.337C23.513,11.802 22.508,11.253 22.555,10.907C22.673,10.035 25.096,8.451 25.699,7.757C25.277,7.492 23.836,6.251 23.399,6.433C22.343,6.875 21.151,7.178 20.094,7.619C20.094,7.252 20.05,6.908 19.997,6.567C22.113,5.628 24.353,4.975 26.667,4.627L28.741,5.462L30.204,7.203L31.665,8.713L32.942,9.125L34.971,7.208L34.448,5.839L34.448,4.609C38.459,5.193 42.248,6.693 45.566,9.005C44.972,9.058 44.32,9.146 43.584,9.24C43.28,9.06 42.89,8.978 42.559,8.853C43.52,10.924 44.523,12.967 45.542,15.012C46.63,17.195 49.044,19.537 49.468,21.842C49.968,24.559 49.621,27.027 49.895,30.224C50.158,33.302 53.358,36.8 53.358,36.8C53.358,36.8 54.835,37.304 56.064,37.128C54.919,41.67 52.57,45.835 49.179,49.234L49.179,49.234Z" clip-rule="evenodd" fill-rule="evenodd" fill="#000000" fill-opacity="0.54"/>
</svg>
