<svg width="54" height="50" viewBox="0 0 54 50" fill="none" xmlns="http://www.w3.org/2000/svg" xmlns:xlink="http://www.w3.org/1999/xlink">
<path d="M39.851,-0.547L10.209,-0.547C9.02,-0.547 8.017,-0.547 7.191,-0.495C6.328,-0.44 5.498,-0.322 4.689,-0.01C2.828,0.707 1.349,2.081 0.578,3.811C0.243,4.563 0.115,5.334 0.056,6.136C0,6.904 0,7.836 0,8.941L0,26.653C0,31.233 0,34.879 0.413,37.738C0.84,40.688 1.744,43.105 3.799,45.016C5.855,46.927 8.456,47.766 11.63,48.163C14.706,48.547 18.629,48.547 23.557,48.547L30.588,48.547C34.884,48.547 38.305,48.547 41.017,48.249C43.807,47.943 46.132,47.296 48.08,45.81C48.737,45.309 49.339,44.75 49.878,44.139C51.477,42.329 52.172,40.168 52.502,37.574C52.823,35.055 52.823,31.874 52.822,27.882L52.822,27.613C52.823,23.62 52.823,20.44 52.502,17.92C52.172,15.327 51.477,13.166 49.878,11.355C49.339,10.745 48.737,10.185 48.08,9.684C46.132,8.198 43.807,7.552 41.017,7.245C38.305,6.947 34.884,6.947 30.588,6.947L4.458,6.947C4.465,6.755 4.474,6.579 4.486,6.417C4.529,5.825 4.606,5.555 4.68,5.39C5,4.671 5.615,4.1 6.388,3.802C6.566,3.734 6.856,3.662 7.493,3.622C8.15,3.58 9.001,3.579 10.284,3.579L39.851,3.579C41.077,3.579 42.071,2.655 42.071,1.516C42.071,0.376 41.077,-0.547 39.851,-0.547ZM4.44,26.498L4.44,11.074L30.443,11.074C34.916,11.074 38.075,11.077 40.495,11.343C42.867,11.603 44.238,12.091 45.264,12.874C45.696,13.203 46.092,13.571 46.446,13.973C47.288,14.926 47.813,16.2 48.093,18.404C48.379,20.654 48.383,23.59 48.383,27.747C48.383,31.904 48.379,34.84 48.093,37.09C47.813,39.294 47.288,40.568 46.446,41.522C46.092,41.923 45.696,42.291 45.264,42.621C44.238,43.403 42.867,43.891 40.495,44.151C38.075,44.417 34.916,44.421 30.443,44.421L23.723,44.421C18.592,44.421 14.967,44.416 12.221,44.073C9.54,43.738 8.032,43.114 6.939,42.098C5.845,41.082 5.174,39.68 4.813,37.188C4.444,34.636 4.44,31.267 4.44,26.498Z" clip-rule="evenodd" fill-rule="evenodd" fill="#959BA5"/>
<path d="M41.084,29.455C41.084,30.961 39.77,32.182 38.15,32.182C36.529,32.182 35.215,30.961 35.215,29.455C35.215,27.948 36.529,26.727 38.15,26.727C39.77,26.727 41.084,27.948 41.084,29.455Z" fill="#959BA5"/>
</svg>
