<svg width="42" height="36" viewBox="0 0 42 36" fill="none" xmlns="http://www.w3.org/2000/svg" xmlns:xlink="http://www.w3.org/1999/xlink">
<path d="M31.686,0L8.117,0C7.172,0 6.374,0 5.718,0.038C5.032,0.078 4.372,0.166 3.728,0.394C2.248,0.919 1.073,1.927 0.46,3.196C0.193,3.747 0.092,4.313 0.045,4.901C0,5.464 0,6.147 0,6.958L0,19.946C0,23.304 0,25.978 0.329,28.074C0.668,30.237 1.386,32.01 3.021,33.411C4.655,34.812 6.723,35.427 9.247,35.718C11.693,36 14.812,36 18.73,36L24.321,36C27.737,36 30.457,36 32.613,35.782C34.832,35.557 36.68,35.083 38.229,33.993C38.751,33.626 39.23,33.215 39.659,32.768C40.93,31.44 41.483,29.856 41.745,27.954C42,26.106 42,23.774 42,20.847L42,20.649C42,17.721 42,15.389 41.745,13.542C41.483,11.64 40.93,10.055 39.659,8.728C39.23,8.28 38.751,7.87 38.229,7.502C36.68,6.413 34.832,5.939 32.613,5.714C30.457,5.496 27.737,5.496 24.321,5.496L3.545,5.496C3.55,5.354 3.557,5.226 3.567,5.107C3.601,4.673 3.662,4.475 3.721,4.354C3.976,3.826 4.464,3.408 5.079,3.189C5.221,3.139 5.452,3.087 5.958,3.057C6.48,3.027 7.157,3.026 8.177,3.026L31.686,3.026C32.661,3.026 33.451,2.348 33.451,1.513C33.451,0.677 32.661,0 31.686,0ZM3.53,19.832L3.53,8.521L24.206,8.521C27.762,8.521 30.274,8.524 32.199,8.719C34.084,8.91 35.174,9.268 35.99,9.841C36.333,10.083 36.648,10.353 36.93,10.647C37.6,11.346 38.017,12.281 38.24,13.897C38.467,15.546 38.47,17.7 38.47,20.748C38.47,23.796 38.467,25.949 38.24,27.599C38.017,29.215 37.6,30.149 36.93,30.848C36.648,31.143 36.333,31.413 35.99,31.654C35.174,32.228 34.084,32.586 32.199,32.777C30.274,32.972 27.762,32.974 24.206,32.974L18.863,32.974C14.783,32.974 11.901,32.971 9.717,32.72C7.585,32.474 6.386,32.016 5.517,31.271C4.648,30.526 4.114,29.498 3.827,27.671C3.534,25.8 3.53,23.329 3.53,19.832Z" clip-rule="evenodd" fill-rule="evenodd" fill="#000000"/>
<path d="M32.667,22C32.667,23.104 31.622,24 30.333,24C29.045,24 28,23.104 28,22C28,20.895 29.045,20 30.333,20C31.622,20 32.667,20.895 32.667,22Z" fill="#000000"/>
</svg>
