<svg width="54" height="50" viewBox="0 0 54 50" fill="none" xmlns="http://www.w3.org/2000/svg" xmlns:xlink="http://www.w3.org/1999/xlink">
<path d="M39.851,-0.547L10.209,-0.547C9.02,-0.547 8.017,-0.547 7.191,-0.495C6.328,-0.44 5.498,-0.321 4.689,-0.009C2.828,0.707 1.349,2.081 0.578,3.811C0.243,4.563 0.115,5.335 0.056,6.137C0,6.904 0,7.836 0,8.942L0,26.654C0,31.233 0,34.88 0.413,37.738C0.84,40.688 1.744,43.106 3.799,45.016C5.855,46.927 8.456,47.767 11.63,48.163C14.706,48.548 18.629,48.548 23.557,48.548L30.588,48.548C34.884,48.548 38.305,48.548 41.017,48.25C43.807,47.943 46.132,47.297 48.08,45.811C48.737,45.31 49.339,44.75 49.878,44.14C51.477,42.329 52.172,40.168 52.502,37.575C52.823,35.055 52.823,31.875 52.822,27.882L52.822,27.613C52.823,23.621 52.823,20.44 52.502,17.921C52.172,15.327 51.477,13.166 49.878,11.356C49.339,10.745 48.737,10.185 48.08,9.684C46.132,8.199 43.807,7.552 41.017,7.246C38.305,6.948 34.884,6.948 30.588,6.948L4.458,6.948C4.465,6.755 4.474,6.58 4.486,6.418C4.529,5.826 4.606,5.556 4.68,5.39C5,4.671 5.615,4.1 6.388,3.803C6.566,3.734 6.856,3.663 7.493,3.622C8.15,3.58 9.001,3.579 10.284,3.579L39.851,3.579C41.077,3.579 42.071,2.656 42.071,1.516C42.071,0.377 41.077,-0.547 39.851,-0.547ZM4.44,26.499L4.44,11.074L30.443,11.074C34.916,11.074 38.075,11.077 40.495,11.343C42.867,11.604 44.238,12.092 45.264,12.874C45.696,13.204 46.092,13.572 46.446,13.973C47.288,14.927 47.813,16.201 48.093,18.405C48.379,20.654 48.383,23.591 48.383,27.748C48.383,31.905 48.379,34.841 48.093,37.091C47.813,39.294 47.288,40.569 46.446,41.522C46.092,41.924 45.696,42.292 45.264,42.621C44.238,43.404 42.867,43.892 40.495,44.152C38.075,44.418 34.916,44.421 30.443,44.421L23.723,44.421C18.592,44.421 14.967,44.417 12.221,44.074C9.54,43.739 8.032,43.115 6.939,42.099C5.845,41.083 5.174,39.681 4.813,37.189C4.444,34.637 4.44,31.268 4.44,26.499Z" clip-rule="evenodd" fill-rule="evenodd" fill="#959BA5"/>
<path d="M41.084,29.455C41.084,30.961 39.77,32.183 38.15,32.183C36.529,32.183 35.215,30.961 35.215,29.455C35.215,27.949 36.529,26.728 38.15,26.728C39.77,26.728 41.084,27.949 41.084,29.455Z" fill="#959BA5"/>
</svg>
