<svg width="60" height="60" viewBox="0 0 60 60" fill="none" xmlns="http://www.w3.org/2000/svg" xmlns:xlink="http://www.w3.org/1999/xlink">
<path d="M29.153,0.738C13.119,0.738 0,13.92 0,30.03C0,46.141 13.119,59.322 29.153,59.322C31.906,59.322 34.011,57.207 34.011,54.44C34.011,53.138 33.526,51.999 32.716,51.185C31.906,50.371 31.421,49.232 31.421,47.93C31.421,45.164 33.526,43.048 36.279,43.048L42.109,43.048C51.017,43.048 58.305,35.725 58.305,26.775C58.305,12.455 45.187,0.738 29.153,0.738L29.153,0.738ZM11.337,30.03C8.583,30.03 6.478,27.915 6.478,25.148C6.478,22.381 8.583,20.266 11.337,20.266C14.091,20.266 16.196,22.381 16.196,25.148C16.196,27.915 14.091,30.03 11.337,30.03L11.337,30.03ZM21.055,17.012C18.301,17.012 16.196,14.896 16.196,12.13C16.196,9.363 18.301,7.248 21.055,7.248C23.808,7.248 25.913,9.363 25.913,12.13C25.913,14.896 23.808,17.012 21.055,17.012L21.055,17.012ZM37.25,17.012C34.497,17.012 32.392,14.896 32.392,12.13C32.392,9.363 34.497,7.248 37.25,7.248C40.004,7.248 42.109,9.363 42.109,12.13C42.109,14.896 40.004,17.012 37.25,17.012L37.25,17.012ZM46.968,30.03C44.214,30.03 42.109,27.915 42.109,25.148C42.109,22.381 44.214,20.266 46.968,20.266C49.722,20.266 51.827,22.381 51.827,25.148C51.827,27.915 49.722,30.03 46.968,30.03L46.968,30.03Z" clip-rule="evenodd" fill-rule="evenodd" fill="#000000" fill-opacity="0.54"/>
</svg>
