<svg width="44" height="40" viewBox="0 0 44 40" fill="none" xmlns="http://www.w3.org/2000/svg" xmlns:xlink="http://www.w3.org/1999/xlink">
<path d="M19.161,1.032C20.345,-0.695 22.893,-0.695 24.077,1.032L29.427,8.838C29.814,9.403 30.385,9.818 31.042,10.012L40.12,12.688C42.128,13.279 42.916,15.703 41.639,17.363L35.868,24.863C35.45,25.406 35.232,26.077 35.251,26.762L35.511,36.222C35.569,38.315 33.507,39.813 31.534,39.112L22.617,35.941C21.972,35.711 21.266,35.711 20.621,35.941L11.704,39.112C9.731,39.813 7.67,38.315 7.727,36.222L7.987,26.762C8.006,26.077 7.788,25.406 7.37,24.863L1.599,17.363C0.323,15.703 1.11,13.279 3.118,12.688L12.196,10.012C12.853,9.818 13.424,9.403 13.811,8.838L19.161,1.032Z" fill="#FFB525"/>
</svg>
