<svg width="88" height="88" viewBox="0 0 88 88" fill="none" xmlns="http://www.w3.org/2000/svg" xmlns:xlink="http://www.w3.org/1999/xlink">
<path d="M50.328,12.867L56.781,25.773C57.661,27.57 60.008,29.293 61.988,29.623L73.684,31.566C81.164,32.813 82.924,38.24 77.534,43.593L68.441,52.686C66.901,54.226 66.058,57.196 66.534,59.323L69.138,70.58C71.191,79.49 66.461,82.936 58.578,78.28L47.614,71.79C45.634,70.616 42.371,70.616 40.354,71.79L29.391,78.28C21.544,82.936 16.778,79.453 18.831,70.58L21.434,59.323C21.911,57.196 21.068,54.226 19.528,52.686L10.434,43.593C5.081,38.24 6.804,32.813 14.284,31.566L25.981,29.623C27.924,29.293 30.271,27.57 31.151,25.773L37.604,12.867C41.124,5.863 46.844,5.863 50.328,12.867Z" transform="rotate(360 43.992 43.984)" fill="#E8E8E8" stroke="#E8E8E8" stroke-width="1.5" stroke-miterlimit="3.999327" stroke-linecap="round" stroke-linejoin="round"/>
<path d="M53.536,42.235C54.911,42.235 56.026,41.12 56.026,39.744C56.026,38.369 54.911,37.254 53.536,37.254C52.161,37.254 51.046,38.369 51.046,39.744C51.046,41.12 52.161,42.235 53.536,42.235Z" transform="rotate(360 53.536 39.744)" fill="#C6C6C6"/>
<path d="M34.607,42.235C35.983,42.235 37.098,41.12 37.098,39.744C37.098,38.369 35.983,37.254 34.607,37.254C33.232,37.254 32.117,38.369 32.117,39.744C32.117,41.12 33.232,42.235 34.607,42.235Z" transform="rotate(360 34.607 39.744)" fill="#C6C6C6"/>
<path d="M33.205,55.835C33.647,55.722 34.089,55.634 34.531,55.549C34.972,55.465 35.414,55.396 35.856,55.329C36.739,55.199 37.622,55.101 38.506,55.017C40.273,54.857 42.04,54.782 43.807,54.77C45.574,54.757 47.341,54.814 49.107,54.953C49.549,54.988 49.99,55.028 50.432,55.077C50.874,55.126 51.316,55.177 51.758,55.236C52.2,55.295 52.641,55.364 53.083,55.443C53.525,55.522 53.966,55.607 54.408,55.717C54.716,55.794 54.99,55.972 55.185,56.222C55.381,56.473 55.487,56.781 55.487,57.099C55.487,57.417 55.381,57.725 55.185,57.975C54.99,58.226 54.716,58.404 54.408,58.481C53.966,58.591 53.524,58.677 53.083,58.755C52.642,58.832 52.2,58.899 51.758,58.961C51.316,59.024 50.874,59.075 50.432,59.121C49.99,59.167 49.549,59.21 49.107,59.245C47.341,59.384 45.573,59.439 43.807,59.428C42.04,59.417 40.273,59.341 38.506,59.181C37.622,59.097 36.739,58.999 35.856,58.869C35.414,58.802 34.972,58.732 34.531,58.648C34.089,58.565 33.647,58.477 33.205,58.362C32.925,58.29 32.677,58.127 32.5,57.898C32.323,57.669 32.227,57.388 32.227,57.099C32.227,56.81 32.323,56.529 32.5,56.3C32.677,56.071 32.925,55.908 33.205,55.835L33.205,55.835Z" transform="rotate(360 43.857 57.099)" fill="#C6C6C6"/>
</svg>
