<svg width="42" height="40" viewBox="0 0 42 40" fill="none" xmlns="http://www.w3.org/2000/svg" xmlns:xlink="http://www.w3.org/1999/xlink">
<path d="M17.783,1.032C18.967,-0.695 21.516,-0.695 22.699,1.032L28.049,8.838C28.437,9.403 29.007,9.818 29.665,10.012L38.742,12.688C40.75,13.279 41.538,15.703 40.261,17.363L34.49,24.863C34.072,25.406 33.854,26.077 33.873,26.762L34.133,36.222C34.191,38.315 32.129,39.813 30.156,39.112L21.24,35.941C20.594,35.711 19.889,35.711 19.243,35.941L10.326,39.112C8.354,39.813 6.292,38.315 6.349,36.222L6.609,26.762C6.628,26.077 6.41,25.406 5.992,24.863L0.221,17.363C-1.055,15.703 -0.268,13.279 1.74,12.688L10.818,10.012C11.475,9.818 12.046,9.403 12.433,8.838L17.783,1.032Z" fill="#FFB525"/>
</svg>
