<svg width="42" height="40" viewBox="0 0 42 40" fill="none" xmlns="http://www.w3.org/2000/svg" xmlns:xlink="http://www.w3.org/1999/xlink">
<path d="M18.703,1.032C19.887,-0.695 22.435,-0.695 23.619,1.032L28.969,8.838C29.356,9.403 29.927,9.818 30.584,10.012L39.662,12.688C41.67,13.279 42.458,15.703 41.181,17.363L35.41,24.863C34.992,25.406 34.774,26.077 34.793,26.762L35.053,36.222C35.111,38.315 33.049,39.813 31.076,39.112L22.159,35.941C21.514,35.711 20.808,35.711 20.163,35.941L11.246,39.112C9.273,39.813 7.212,38.315 7.269,36.222L7.529,26.762C7.548,26.077 7.33,25.406 6.912,24.863L1.141,17.363C-0.135,15.703 0.652,13.279 2.66,12.688L11.738,10.012C12.395,9.818 12.966,9.403 13.353,8.838L18.703,1.032Z" fill="#FFB525"/>
</svg>
