<svg width="42" height="40" viewBox="0 0 42 40" fill="none" xmlns="http://www.w3.org/2000/svg" xmlns:xlink="http://www.w3.org/1999/xlink">
<path d="M17.324,1.032C18.508,-0.695 21.057,-0.695 22.24,1.032L27.59,8.838C27.978,9.403 28.548,9.818 29.206,10.012L38.283,12.688C40.291,13.279 41.079,15.703 39.802,17.363L34.031,24.863C33.613,25.406 33.395,26.077 33.414,26.762L33.674,36.222C33.732,38.315 31.67,39.813 29.697,39.112L20.781,35.941C20.135,35.711 19.43,35.711 18.784,35.941L9.867,39.112C7.895,39.813 5.833,38.315 5.89,36.222L6.15,26.762C6.169,26.077 5.951,25.406 5.533,24.863L-0.238,17.363C-1.514,15.703 -0.727,13.279 1.281,12.688L10.359,10.012C11.016,9.818 11.587,9.403 11.974,8.838L17.324,1.032Z" fill="#FFB525" fill-opacity="0.8"/>
</svg>
