<svg width="88" height="88" viewBox="0 0 88 88" fill="none" xmlns="http://www.w3.org/2000/svg" xmlns:xlink="http://www.w3.org/1999/xlink">
<path d="M50.328,12.867L56.781,25.773C57.661,27.57 60.008,29.293 61.988,29.623L73.684,31.566C81.164,32.813 82.924,38.24 77.534,43.593L68.441,52.686C66.901,54.226 66.058,57.196 66.534,59.323L69.138,70.58C71.191,79.49 66.461,82.936 58.578,78.28L47.614,71.79C45.634,70.616 42.371,70.616 40.354,71.79L29.391,78.28C21.544,82.936 16.778,79.453 18.831,70.58L21.434,59.323C21.911,57.196 21.068,54.226 19.528,52.686L10.434,43.593C5.081,38.24 6.804,32.813 14.284,31.566L25.981,29.623C27.924,29.293 30.271,27.57 31.151,25.773L37.604,12.867C41.124,5.863 46.844,5.863 50.328,12.867Z" transform="rotate(360 43.992 43.984)" fill="#E8E8E8" stroke="#E8E8E8" stroke-width="1.5" stroke-miterlimit="3.999327" stroke-linecap="round" stroke-linejoin="round"/>
<path d="M51.777,42.235C53.152,42.235 54.267,41.12 54.267,39.744C54.267,38.369 53.152,37.254 51.777,37.254C50.402,37.254 49.287,38.369 49.287,39.744C49.287,41.12 50.402,42.235 51.777,42.235Z" transform="rotate(360 51.777 39.744)" fill="#C6C6C6"/>
<path d="M35.947,42.235C37.323,42.235 38.438,41.12 38.438,39.744C38.438,38.369 37.323,37.254 35.947,37.254C34.572,37.254 33.457,38.369 33.457,39.744C33.457,41.12 34.572,42.235 35.947,42.235Z" transform="rotate(360 35.947 39.744)" fill="#C6C6C6"/>
<path d="M35.171,51.223C34.51,51.241 34.122,51.876 34.122,53.587C34.122,59.269 42.456,59.446 44.076,59.427C45.628,59.448 54.057,59.3 54.057,53.587C54.057,51.929 53.693,51.281 53.068,51.227Z" transform="rotate(360 44.09 55.326)" fill="#C6C6C6"/>
</svg>
