<svg width="40" height="40" viewBox="0 0 40 40" fill="none" xmlns="http://www.w3.org/2000/svg" xmlns:xlink="http://www.w3.org/1999/xlink">
<path d="M23.968,1.083C24.142,1.422 24.186,1.856 24.272,2.723C24.436,4.365 24.519,5.185 24.862,5.636C25.298,6.207 26.007,6.501 26.719,6.405C27.28,6.329 27.919,5.807 29.196,4.762C29.87,4.21 30.208,3.934 30.571,3.818C31.032,3.671 31.53,3.696 31.974,3.888C32.324,4.04 32.632,4.348 33.249,4.964L35.036,6.751C35.652,7.368 35.96,7.676 36.112,8.025C36.304,8.47 36.329,8.968 36.182,9.429C36.066,9.792 35.79,10.13 35.238,10.804C34.193,12.081 33.67,12.72 33.595,13.281C33.499,13.993 33.793,14.702 34.364,15.138C34.814,15.481 35.635,15.564 37.277,15.728C38.144,15.814 38.578,15.858 38.917,16.032C39.347,16.254 39.682,16.625 39.86,17.075C40,17.429 40,17.865 40,18.736L40,21.264C40,22.135 40,22.571 39.86,22.925C39.682,23.375 39.347,23.746 38.917,23.968C38.578,24.142 38.144,24.186 37.277,24.272L37.277,24.272C35.636,24.436 34.815,24.518 34.365,24.862C33.793,25.298 33.5,26.007 33.596,26.719C33.671,27.28 34.194,27.919 35.238,29.195C35.79,29.87 36.066,30.207 36.182,30.57C36.329,31.031 36.304,31.53 36.112,31.974C35.96,32.323 35.652,32.631 35.036,33.248L33.249,35.035C32.632,35.651 32.324,35.959 31.975,36.111C31.53,36.303 31.032,36.328 30.571,36.181C30.208,36.065 29.87,35.789 29.196,35.237L29.196,35.237C27.919,34.192 27.28,33.67 26.719,33.594C26.007,33.498 25.298,33.792 24.862,34.363C24.519,34.814 24.437,35.635 24.272,37.277C24.186,38.144 24.142,38.578 23.967,38.917C23.746,39.347 23.375,39.682 22.926,39.86C22.571,40 22.135,40 21.263,40L18.736,40C17.865,40 17.429,40 17.075,39.86C16.625,39.682 16.254,39.347 16.032,38.917C15.858,38.578 15.814,38.144 15.728,37.277C15.564,35.635 15.481,34.814 15.138,34.364C14.702,33.793 13.993,33.499 13.281,33.595C12.72,33.67 12.081,34.193 10.804,35.238L10.804,35.238C10.129,35.79 9.792,36.066 9.429,36.182C8.968,36.329 8.469,36.304 8.025,36.112C7.676,35.96 7.368,35.652 6.751,35.036L4.964,33.249C4.348,32.632 4.04,32.324 3.888,31.975C3.696,31.53 3.671,31.032 3.818,30.571C3.934,30.208 4.21,29.87 4.762,29.196C5.807,27.919 6.329,27.28 6.405,26.719C6.501,26.007 6.207,25.298 5.636,24.862C5.185,24.519 4.365,24.436 2.723,24.272C1.856,24.186 1.422,24.142 1.083,23.968C0.653,23.746 0.318,23.375 0.14,22.925C0,22.571 0,22.135 0,21.264L0,18.737C0,17.865 0,17.429 0.14,17.074C0.318,16.625 0.653,16.254 1.083,16.033C1.422,15.858 1.856,15.814 2.723,15.728L2.723,15.728L2.723,15.728C4.365,15.563 5.186,15.481 5.637,15.138C6.208,14.702 6.501,13.993 6.406,13.281C6.33,12.72 5.808,12.081 4.763,10.804C4.21,10.129 3.934,9.791 3.818,9.428C3.671,8.967 3.696,8.469 3.888,8.025C4.04,7.675 4.348,7.367 4.965,6.75L6.751,4.964L6.751,4.964C7.368,4.347 7.676,4.039 8.026,3.887C8.47,3.695 8.968,3.67 9.429,3.817C9.792,3.933 10.13,4.209 10.804,4.762C12.081,5.806 12.72,6.329 13.281,6.404C13.993,6.5 14.702,6.206 15.138,5.635C15.482,5.185 15.564,4.364 15.728,2.723C15.814,1.856 15.858,1.422 16.032,1.083C16.254,0.653 16.625,0.318 17.075,0.14C17.429,0 17.865,0 18.736,0L21.264,0C22.135,0 22.571,0 22.925,0.14C23.375,0.318 23.746,0.653 23.968,1.083ZM20,28C24.418,28 28,24.418 28,20C28,15.582 24.418,12 20,12C15.582,12 12,15.582 12,20C12,24.418 15.582,28 20,28Z" clip-rule="evenodd" fill-rule="evenodd" fill="#959BA5"/>
</svg>
