<svg width="546" height="2190" viewBox="0 0 546 2190" fill="none" xmlns="http://www.w3.org/2000/svg" xmlns:xlink="http://www.w3.org/1999/xlink">
<path d="M522,0L0,0L0,2189L496,2189C522.51,2189 544,2167.5 544,2141L544,1033C544,1006.49 522.51,985 496,985L160,985C124.654,985 96,956.346 96,921C96,885.654 124.654,857 160,857L496,857C522.51,857 544,835.51 544,809L544,585C544,558.49 548.51,0 522,0Z" fill="#D9D9D9"/>
<path d="M522,0L0,0L0,2189L496,2189C522.51,2189 544,2167.5 544,2141L544,1033C544,1006.49 522.51,985 496,985L160,985C124.654,985 96,956.346 96,921C96,885.654 124.654,857 160,857L496,857C522.51,857 544,835.51 544,809L544,585C544,558.49 548.51,0 522,0Z" fill="#44624A"/>
</svg>
