<svg width="28" height="42" viewBox="0 0 28 42" fill="none" xmlns="http://www.w3.org/2000/svg" xmlns:xlink="http://www.w3.org/1999/xlink">
<path d="M21.242,1.337L13.863,0.178C7.422,-0.835 4.201,-1.341 2.101,0.456C0,2.252 0,5.512 0,12.032L0,18L11.839,18L6.438,11.249L9.562,8.751L17.562,18.751L18.561,20L17.562,21.249L9.562,31.249L6.438,28.751L11.839,22L0,22L0,27.966C0,34.486 0,37.747 2.101,39.543C4.201,41.339 7.422,40.833 13.863,39.821L21.242,38.661C24.467,38.154 26.08,37.901 27.04,36.778C28,35.656 28,34.023 28,30.758L28,9.24C28,5.975 28,4.343 27.04,3.22C26.08,2.097 24.467,1.844 21.242,1.337Z" clip-rule="evenodd" fill-rule="evenodd" fill="#959BA5"/>
</svg>
