<svg width="40" height="40" viewBox="0 0 40 40" fill="none" xmlns="http://www.w3.org/2000/svg" xmlns:xlink="http://www.w3.org/1999/xlink">
<path d="M0.068,16.431C0,17.214 0,18.143 0,20C0,21.857 0,22.786 0.068,23.569C0.83,32.271 7.729,39.17 16.431,39.932C17.214,40 18.143,40 20,40L30,40C33.738,40 35.608,40 37,39.196C37.912,38.67 38.67,37.912 39.196,37C40,35.608 40,33.738 40,30L40,20C40,18.143 40,17.214 39.932,16.431C39.17,7.729 32.271,0.83 23.569,0.068C22.786,0 21.857,0 20,0C18.143,0 17.214,0 16.431,0.068C7.729,0.83 0.83,7.729 0.068,16.431ZM12,18C12,16.895 12.895,16 14,16L26,16C27.105,16 28,16.895 28,18C28,19.105 27.105,20 26,20L14,20C12.895,20 12,19.105 12,18ZM18,26C18,24.895 18.895,24 20,24L26,24C27.105,24 28,24.895 28,26C28,27.105 27.105,28 26,28L20,28C18.895,28 18,27.105 18,26Z" clip-rule="evenodd" fill-rule="evenodd" fill="#242730"/>
</svg>
