<svg width="34" height="40" viewBox="0 0 34 40" fill="none" xmlns="http://www.w3.org/2000/svg" xmlns:xlink="http://www.w3.org/1999/xlink">
<path d="M0.667,12.568C0,14.018 0,15.666 0,18.964L0,29.262C0,33.841 0,36.131 1.423,37.553C2.761,38.892 4.868,38.971 8.928,38.976L8.928,26.833C8.928,24.387 10.911,22.405 13.357,22.405L20.643,22.405C23.089,22.405 25.071,24.387 25.071,26.833L25.071,38.976C29.132,38.971 31.239,38.892 32.577,37.553C34,36.131 34,33.841 34,29.262L34,18.964C34,15.666 34,14.018 33.333,12.568C32.667,11.119 31.415,10.046 28.912,7.9L26.483,5.819C21.958,1.94 19.695,0 17,0C14.305,0 12.042,1.94 7.517,5.819L5.088,7.9C2.585,10.046 1.333,11.119 0.667,12.568ZM21.071,38.976L21.071,26.833C21.071,26.597 20.879,26.405 20.643,26.405L13.357,26.405C13.12,26.405 12.928,26.597 12.928,26.833L12.928,38.976L21.071,38.976Z" clip-rule="evenodd" fill-rule="evenodd" fill="#959BA5"/>
</svg>
