<svg width="40" height="40" viewBox="0 0 40 40" fill="none" xmlns="http://www.w3.org/2000/svg" xmlns:xlink="http://www.w3.org/1999/xlink">
<path d="M20,40C31.046,40 40,31.046 40,20C40,8.954 31.046,0 20,0C8.954,0 0,8.954 0,20C0,31.046 8.954,40 20,40ZM25.196,17C24.048,15.011 18.046,11.71 15.333,10.291C14.7,9.959 13.955,10.39 13.925,11.103C13.798,14.162 13.656,21.011 14.804,23C15.952,24.988 21.955,28.29 24.667,29.709C25.3,30.04 26.045,29.61 26.075,28.896C26.202,25.837 26.344,18.988 25.196,17Z" clip-rule="evenodd" fill-rule="evenodd" fill="#273B4A"/>
</svg>
