<svg width="34" height="40" viewBox="0 0 34 40" fill="none" xmlns="http://www.w3.org/2000/svg" xmlns:xlink="http://www.w3.org/1999/xlink">
<path d="M0.667,12.568C0,14.017 0,15.666 0,18.963L0,29.261C0,33.841 0,36.13 1.423,37.553C2.761,38.892 4.868,38.971 8.928,38.975L8.928,26.833C8.928,24.387 10.911,22.404 13.357,22.404L20.643,22.404C23.089,22.404 25.071,24.387 25.071,26.833L25.071,38.975C29.132,38.971 31.239,38.892 32.577,37.553C34,36.13 34,33.841 34,29.261L34,18.963C34,15.666 34,14.017 33.333,12.568C32.667,11.119 31.415,10.046 28.912,7.9L26.483,5.818C21.958,1.939 19.695,0 17,0C14.305,0 12.042,1.939 7.517,5.818L5.088,7.9C2.585,10.046 1.333,11.119 0.667,12.568ZM21.071,38.976L21.071,26.833C21.071,26.596 20.879,26.404 20.643,26.404L13.357,26.404C13.12,26.404 12.928,26.596 12.928,26.833L12.928,38.976L21.071,38.976Z" clip-rule="evenodd" fill-rule="evenodd" fill="#FFFFFF"/>
</svg>
