<svg width="16" height="26" viewBox="0 0 16 26" fill="none" xmlns="http://www.w3.org/2000/svg" xmlns:xlink="http://www.w3.org/1999/xlink">
<path d="M0.783,24.415C0.45,24.082 0.283,23.687 0.283,23.231C0.283,22.776 0.45,22.382 0.783,22.049L10.55,12.282L0.75,2.482C0.439,2.171 0.283,1.782 0.283,1.315C0.283,0.849 0.45,0.449 0.783,0.115C1.117,-0.218 1.511,-0.385 1.967,-0.385C2.422,-0.385 2.817,-0.218 3.15,0.115L14.35,11.349C14.483,11.482 14.578,11.626 14.634,11.782C14.689,11.937 14.717,12.104 14.717,12.282C14.717,12.46 14.689,12.626 14.634,12.782C14.578,12.937 14.483,13.082 14.35,13.215L3.117,24.449C2.805,24.76 2.422,24.915 1.967,24.915C1.511,24.915 1.117,24.749 0.783,24.415Z" fill="#FFFFFF"/>
</svg>
