<svg width="22" height="20" viewBox="0 0 22 20" fill="none" xmlns="http://www.w3.org/2000/svg" xmlns:xlink="http://www.w3.org/1999/xlink">
<path d="M9.999,-0.089C4.003,-0.089 -0.855,4.24 -0.855,9.583C-0.855,14.925 4.003,19.254 9.999,19.254C15.995,19.254 20.853,14.925 20.853,9.583C20.853,4.24 15.995,-0.089 9.999,-0.089ZM19.453,9.583C19.453,14.212 15.247,18.006 9.999,18.006C4.804,18.006 0.545,14.259 0.545,9.583C0.545,4.954 4.751,1.159 9.999,1.159C15.194,1.159 19.453,4.907 19.453,9.583ZM12.936,13.026L9.382,10.725C9.246,10.636 9.167,10.495 9.167,10.347L9.167,4.123C9.167,3.866 9.404,3.655 9.692,3.655L10.305,3.655C10.594,3.655 10.83,3.866 10.83,4.123L10.83,9.828L13.916,11.829C14.152,11.981 14.201,12.274 14.03,12.484L13.671,12.925C13.5,13.132 13.172,13.178 12.936,13.026L12.936,13.026Z" fill="#5272E9"/>
</svg>
