<svg width="38" height="32" viewBox="0 0 38 32" fill="none" xmlns="http://www.w3.org/2000/svg" xmlns:xlink="http://www.w3.org/1999/xlink">
<path d="M2.901,17.816L16.807,30.879C17.286,31.329 17.525,31.554 17.807,31.609C17.935,31.634 18.065,31.634 18.193,31.609C18.475,31.554 18.714,31.329 19.193,30.879L33.099,17.816C37.011,14.141 37.486,8.093 34.196,3.852L33.577,3.055C29.641,-2.019 21.739,-1.168 18.973,4.627C18.583,5.446 17.417,5.446 17.027,4.627C14.261,-1.168 6.359,-2.019 2.423,3.055L1.804,3.852C-1.486,8.093 -1.011,14.141 2.901,17.816Z" fill="#FFFFFF"/>
</svg>
