<svg width="14" height="26" viewBox="0 0 14 26" fill="none" xmlns="http://www.w3.org/2000/svg" xmlns:xlink="http://www.w3.org/1999/xlink">
<path d="M-0.467,24.152C-0.8,23.818 -0.967,23.424 -0.967,22.968C-0.967,22.512 -0.8,22.118 -0.467,21.785L9.3,12.018L-0.5,2.218C-0.811,1.907 -0.967,1.518 -0.967,1.052C-0.967,0.585 -0.8,0.185 -0.467,-0.148C-0.133,-0.482 0.261,-0.648 0.717,-0.648C1.172,-0.648 1.567,-0.482 1.9,-0.148L13.1,11.085C13.233,11.218 13.328,11.363 13.384,11.518C13.439,11.674 13.467,11.84 13.467,12.018C13.467,12.196 13.439,12.363 13.384,12.518C13.328,12.674 13.233,12.818 13.1,12.952L1.867,24.185C1.555,24.496 1.172,24.652 0.717,24.652C0.261,24.652 -0.133,24.485 -0.467,24.152Z" fill="#FFFFFF"/>
</svg>
