<svg width="14" height="26" viewBox="0 0 14 26" fill="none" xmlns="http://www.w3.org/2000/svg" xmlns:xlink="http://www.w3.org/1999/xlink">
<path d="M-0.467,24.37C-0.8,24.037 -0.967,23.642 -0.967,23.186C-0.967,22.731 -0.8,22.337 -0.467,22.004L9.3,12.237L-0.5,2.437C-0.811,2.126 -0.967,1.737 -0.967,1.27C-0.967,0.804 -0.8,0.404 -0.467,0.07C-0.133,-0.263 0.261,-0.43 0.717,-0.43C1.172,-0.43 1.567,-0.263 1.9,0.07L13.1,11.304C13.233,11.437 13.328,11.581 13.384,11.737C13.439,11.893 13.467,12.059 13.467,12.237C13.467,12.415 13.439,12.581 13.384,12.737C13.328,12.893 13.233,13.037 13.1,13.17L1.867,24.404C1.555,24.715 1.172,24.87 0.717,24.87C0.261,24.87 -0.133,24.704 -0.467,24.37Z" fill="#FFFFFF"/>
</svg>
