<svg width="44" height="32" viewBox="0 0 44 32" fill="none" xmlns="http://www.w3.org/2000/svg" xmlns:xlink="http://www.w3.org/1999/xlink">
<path d="M26,11.8L26,8.4C27.1,7.933 28.225,7.583 29.375,7.35C30.525,7.117 31.733,7 33,7C33.867,7 34.717,7.067 35.55,7.2C36.383,7.333 37.2,7.5 38,7.7L38,10.9C37.2,10.6 36.392,10.375 35.575,10.225C34.758,10.075 33.9,10 33,10C31.733,10 30.517,10.158 29.35,10.475C28.183,10.792 27.067,11.233 26,11.8ZM26,22.8L26,19.4C27.1,18.933 28.225,18.583 29.375,18.35C30.525,18.117 31.733,18 33,18C33.867,18 34.717,18.067 35.55,18.2C36.383,18.333 37.2,18.5 38,18.7L38,21.9C37.2,21.6 36.392,21.375 35.575,21.225C34.758,21.075 33.9,21 33,21C31.733,21 30.517,21.15 29.35,21.45C28.183,21.75 27.067,22.2 26,22.8ZM26,17.3L26,13.9C27.1,13.433 28.225,13.083 29.375,12.85C30.525,12.617 31.733,12.5 33,12.5C33.867,12.5 34.717,12.567 35.55,12.7C36.383,12.833 37.2,13 38,13.2L38,16.4C37.2,16.1 36.392,15.875 35.575,15.725C34.758,15.575 33.9,15.5 33,15.5C31.733,15.5 30.517,15.658 29.35,15.975C28.183,16.292 27.067,16.733 26,17.3ZM11,24C12.567,24 14.092,24.175 15.575,24.525C17.058,24.875 18.533,25.4 20,26.1L20,6.4C18.633,5.6 17.183,5 15.65,4.6C14.117,4.2 12.567,4 11,4C9.8,4 8.608,4.117 7.425,4.35C6.242,4.583 5.1,4.933 4,5.4L4,25.2C5.167,24.8 6.325,24.5 7.475,24.3C8.625,24.1 9.8,24 11,24ZM24,26.1C25.467,25.4 26.942,24.875 28.425,24.525C29.908,24.175 31.433,24 33,24C34.2,24 35.375,24.1 36.525,24.3C37.675,24.5 38.833,24.8 40,25.2L40,5.4C38.9,4.933 37.758,4.583 36.575,4.35C35.392,4.117 34.2,4 33,4C31.433,4 29.883,4.2 28.35,4.6C26.817,5 25.367,5.6 24,6.4L24,26.1ZM22,32C20.4,30.733 18.667,29.75 16.8,29.05C14.933,28.35 13,28 11,28C9.6,28 8.225,28.183 6.875,28.55C5.525,28.917 4.233,29.433 3,30.1C2.3,30.467 1.625,30.45 0.975,30.05C0.325,29.65 0,29.067 0,28.3L0,4.2C0,3.833 0.092,3.483 0.275,3.15C0.458,2.817 0.733,2.567 1.1,2.4C2.633,1.6 4.233,1 5.9,0.6C7.567,0.2 9.267,0 11,0C12.933,0 14.825,0.25 16.675,0.75C18.525,1.25 20.3,2 22,3C23.7,2 25.475,1.25 27.325,0.75C29.175,0.25 31.067,0 33,0C34.733,0 36.433,0.2 38.1,0.6C39.767,1 41.367,1.6 42.9,2.4C43.267,2.567 43.542,2.817 43.725,3.15C43.908,3.483 44,3.833 44,4.2L44,28.3C44,29.067 43.675,29.65 43.025,30.05C42.375,30.45 41.7,30.467 41,30.1C39.767,29.433 38.475,28.917 37.125,28.55C35.775,28.183 34.4,28 33,28C31,28 29.067,28.35 27.2,29.05C25.333,29.75 23.6,30.733 22,32Z" fill="#000000"/>
</svg>
