<svg width="40" height="40" viewBox="0 0 40 40" fill="none" xmlns="http://www.w3.org/2000/svg" xmlns:xlink="http://www.w3.org/1999/xlink">
<path d="M12,18C12.567,18 13.042,17.808 13.425,17.425C13.808,17.042 14,16.567 14,16C14,15.433 13.808,14.958 13.425,14.575C13.042,14.192 12.567,14 12,14C11.433,14 10.958,14.192 10.575,14.575C10.192,14.958 10,15.433 10,16C10,16.567 10.192,17.042 10.575,17.425C10.958,17.808 11.433,18 12,18ZM20,18C20.567,18 21.042,17.808 21.425,17.425C21.808,17.042 22,16.567 22,16C22,15.433 21.808,14.958 21.425,14.575C21.042,14.192 20.567,14 20,14C19.433,14 18.958,14.192 18.575,14.575C18.192,14.958 18,15.433 18,16C18,16.567 18.192,17.042 18.575,17.425C18.958,17.808 19.433,18 20,18ZM28,18C28.567,18 29.042,17.808 29.425,17.425C29.808,17.042 30,16.567 30,16C30,15.433 29.808,14.958 29.425,14.575C29.042,14.192 28.567,14 28,14C27.433,14 26.958,14.192 26.575,14.575C26.192,14.958 26,15.433 26,16C26,16.567 26.192,17.042 26.575,17.425C26.958,17.808 27.433,18 28,18ZM0,40L0,4C0,2.9 0.392,1.958 1.175,1.175C1.958,0.392 2.9,0 4,0L36,0C37.1,0 38.042,0.392 38.825,1.175C39.608,1.958 40,2.9 40,4L40,28C40,29.1 39.608,30.042 38.825,30.825C38.042,31.608 37.1,32 36,32L8,32L0,40ZM6.3,28L36,28L36,4L4,4L4,30.25L6.3,28Z" fill="#000000"/>
</svg>
