<svg width="14" height="28" viewBox="0 0 14 28" fill="none" xmlns="http://www.w3.org/2000/svg" xmlns:xlink="http://www.w3.org/1999/xlink">
<path d="M-0.467,25.648C-0.8,25.314 -0.967,24.92 -0.967,24.464C-0.967,24.008 -0.8,23.614 -0.467,23.281L9.3,13.514L-0.5,3.714C-0.811,3.403 -0.967,3.014 -0.967,2.548C-0.967,2.081 -0.8,1.681 -0.467,1.348C-0.133,1.014 0.261,0.848 0.717,0.848C1.172,0.848 1.567,1.014 1.9,1.348L13.1,12.581C13.233,12.714 13.328,12.859 13.384,13.014C13.439,13.17 13.467,13.337 13.467,13.514C13.467,13.692 13.439,13.859 13.384,14.014C13.328,14.17 13.233,14.314 13.1,14.448L1.867,25.681C1.555,25.992 1.172,26.148 0.717,26.148C0.261,26.148 -0.133,25.981 -0.467,25.648Z" fill="#FFFFFF"/>
</svg>
