<svg width="60" height="46" viewBox="0 0 60 46" fill="none" xmlns="http://www.w3.org/2000/svg" xmlns:xlink="http://www.w3.org/1999/xlink">
<path d="M9,18.75C12.309,18.75 15,15.835 15,12.25C15,8.665 12.309,5.75 9,5.75C5.691,5.75 3,8.665 3,12.25C3,15.835 5.691,18.75 9,18.75ZM51,18.75C54.309,18.75 57,15.835 57,12.25C57,8.665 54.309,5.75 51,5.75C47.691,5.75 45,8.665 45,12.25C45,15.835 47.691,18.75 51,18.75ZM54,22L48,22C46.35,22 44.859,22.721 43.772,23.889C47.55,26.134 50.231,30.186 50.812,35L57,35C58.659,35 60,33.548 60,31.75L60,28.5C60,24.915 57.309,22 54,22ZM30,22C35.803,22 40.5,16.912 40.5,10.625C40.5,4.338 35.803,-0.75 30,-0.75C24.197,-0.75 19.5,4.338 19.5,10.625C19.5,16.912 24.197,22 30,22ZM37.2,25.25L36.422,25.25C34.472,26.266 32.306,26.875 30,26.875C27.694,26.875 25.538,26.266 23.578,25.25L22.8,25.25C16.838,25.25 12,30.491 12,36.95L12,39.875C12,42.566 14.016,44.75 16.5,44.75L43.5,44.75C45.984,44.75 48,42.566 48,39.875L48,36.95C48,30.491 43.162,25.25 37.2,25.25ZM16.228,23.889C15.141,22.721 13.65,22 12,22L6,22C2.691,22 0,24.915 0,28.5L0,31.75C0,33.548 1.341,35 3,35L9.178,35C9.769,30.186 12.45,26.134 16.228,23.889Z" fill="#2F327D"/>
</svg>
