<svg width="14" height="26" viewBox="0 0 14 26" fill="none" xmlns="http://www.w3.org/2000/svg" xmlns:xlink="http://www.w3.org/1999/xlink">
<path d="M-0.467,25.152C-0.8,24.818 -0.967,24.424 -0.967,23.968C-0.967,23.512 -0.8,23.118 -0.467,22.785L9.3,13.018L-0.5,3.218C-0.811,2.907 -0.967,2.518 -0.967,2.052C-0.967,1.585 -0.8,1.185 -0.467,0.852C-0.133,0.518 0.261,0.352 0.717,0.352C1.172,0.352 1.567,0.518 1.9,0.852L13.1,12.085C13.233,12.218 13.328,12.363 13.384,12.518C13.439,12.674 13.467,12.84 13.467,13.018C13.467,13.196 13.439,13.363 13.384,13.518C13.328,13.674 13.233,13.818 13.1,13.952L1.867,25.185C1.555,25.496 1.172,25.652 0.717,25.652C0.261,25.652 -0.133,25.485 -0.467,25.152Z" fill="#FFFFFF"/>
</svg>
