<svg width="16" height="28" viewBox="0 0 16 28" fill="none" xmlns="http://www.w3.org/2000/svg" xmlns:xlink="http://www.w3.org/1999/xlink">
<path d="M15.414,2.414C16.195,1.633 16.195,0.367 15.414,-0.414C14.633,-1.195 13.367,-1.195 12.586,-0.414L15.414,2.414ZM2,13L0.586,11.586C-0.195,12.367 -0.195,13.633 0.586,14.414L2,13ZM12.586,26.414C13.367,27.195 14.633,27.195 15.414,26.414C16.195,25.633 16.195,24.367 15.414,23.586L12.586,26.414ZM12.586,-0.414L0.586,11.586L3.414,14.414L15.414,2.414L12.586,-0.414ZM0.586,14.414L12.586,26.414L15.414,23.586L3.414,11.586L0.586,14.414Z" transform="rotate(360 8 13)" fill="#2F2430" fill-opacity="0.99"/>
</svg>
