<svg width="22" height="20" viewBox="0 0 22 20" fill="none" xmlns="http://www.w3.org/2000/svg" xmlns:xlink="http://www.w3.org/1999/xlink">
<path d="M10.494,-0.187C4.697,-0.187 0,3.897 0,8.937C0,13.977 4.697,18.06 10.494,18.06C16.291,18.06 20.988,13.977 20.988,8.937C20.988,3.897 16.291,-0.187 10.494,-0.187ZM19.634,8.937C19.634,13.304 15.567,16.883 10.494,16.883C5.471,16.883 1.354,13.348 1.354,8.937C1.354,4.57 5.42,0.991 10.494,0.991C15.516,0.991 19.634,4.526 19.634,8.937ZM13.333,12.185L9.897,10.015C9.766,9.93 9.69,9.798 9.69,9.658L9.69,3.787C9.69,3.544 9.918,3.345 10.198,3.345L10.79,3.345C11.069,3.345 11.298,3.544 11.298,3.787L11.298,9.169L14.281,11.056C14.509,11.199 14.556,11.475 14.391,11.674L14.044,12.09C13.879,12.285 13.562,12.329 13.333,12.185L13.333,12.185Z" fill="#5272E9"/>
</svg>
