<svg width="66" height="64" viewBox="0 0 66 64" fill="none" xmlns="http://www.w3.org/2000/svg" xmlns:xlink="http://www.w3.org/1999/xlink">
<path d="M22.761,10.48C26.836,3.17 28.874,-0.485 31.92,-0.485C34.966,-0.485 37.003,3.17 41.078,10.48L42.133,12.371C43.291,14.448 43.87,15.487 44.772,16.172C45.675,16.857 46.799,17.112 49.048,17.621L51.095,18.084C59.008,19.874 62.965,20.769 63.906,23.796C64.847,26.823 62.15,29.977 56.755,36.286L55.36,37.918C53.827,39.71 53.06,40.607 52.715,41.715C52.371,42.824 52.487,44.02 52.718,46.412L52.929,48.589C53.745,57.006 54.153,61.214 51.688,63.085C49.224,64.956 45.519,63.25 38.111,59.839L36.194,58.956C34.088,57.987 33.036,57.502 31.92,57.502C30.804,57.502 29.751,57.987 27.646,58.956L25.729,59.839C18.32,63.25 14.616,64.956 12.151,63.085C9.687,61.214 10.095,57.006 10.91,48.589L11.121,46.412C11.353,44.02 11.469,42.824 11.124,41.715C10.779,40.607 10.013,39.71 8.48,37.918L7.084,36.286C1.69,29.977 -1.008,26.823 -0.066,23.796C0.875,20.769 4.832,19.874 12.745,18.084L14.792,17.621C17.04,17.112 18.165,16.857 19.067,16.172C19.97,15.487 20.549,14.448 21.707,12.371L22.761,10.48Z" fill="#FFFFFF"/>
</svg>
