<svg width="22" height="22" viewBox="0 0 22 22" fill="none" xmlns="http://www.w3.org/2000/svg" xmlns:xlink="http://www.w3.org/1999/xlink">
<path d="M10.221,0.573C4.424,0.573 -0.272,5.27 -0.272,11.067C-0.272,16.864 4.424,21.561 10.221,21.561C16.018,21.561 20.715,16.864 20.715,11.067C20.715,5.27 16.018,0.573 10.221,0.573ZM19.361,11.067C19.361,16.09 15.295,20.207 10.221,20.207C5.199,20.207 1.082,16.141 1.082,11.067C1.082,6.044 5.148,1.927 10.221,1.927C15.244,1.927 19.361,5.994 19.361,11.067ZM13.061,14.803L9.625,12.307C9.494,12.21 9.417,12.057 9.417,11.896L9.417,5.143C9.417,4.864 9.646,4.635 9.925,4.635L10.518,4.635C10.797,4.635 11.025,4.864 11.025,5.143L11.025,11.334L14.008,13.504C14.237,13.669 14.284,13.987 14.118,14.215L13.772,14.693C13.606,14.918 13.289,14.968 13.061,14.803L13.061,14.803Z" fill="#5272E9"/>
</svg>
