<svg width="22" height="22" viewBox="0 0 22 22" fill="none" xmlns="http://www.w3.org/2000/svg" xmlns:xlink="http://www.w3.org/1999/xlink">
<path d="M10.04,0.865C4.243,0.865 -0.454,5.562 -0.454,11.359C-0.454,17.156 4.243,21.853 10.04,21.853C15.837,21.853 20.533,17.156 20.533,11.359C20.533,5.562 15.837,0.865 10.04,0.865ZM19.18,11.359C19.18,16.382 15.113,20.499 10.04,20.499C5.017,20.499 0.9,16.433 0.9,11.359C0.9,6.336 4.966,2.219 10.04,2.219C15.062,2.219 19.18,6.286 19.18,11.359ZM12.879,15.095L9.443,12.599C9.312,12.502 9.236,12.349 9.236,12.188L9.236,5.435C9.236,5.156 9.464,4.927 9.744,4.927L10.336,4.927C10.615,4.927 10.844,5.156 10.844,5.435L10.844,11.626L13.827,13.796C14.055,13.961 14.102,14.279 13.937,14.507L13.59,14.985C13.425,15.21 13.107,15.26 12.879,15.095L12.879,15.095Z" fill="#24B0C9"/>
</svg>
