<svg width="14" height="26" viewBox="0 0 14 26" fill="none" xmlns="http://www.w3.org/2000/svg" xmlns:xlink="http://www.w3.org/1999/xlink">
<path d="M-0.467,25.046C-0.8,24.713 -0.967,24.318 -0.967,23.862C-0.967,23.407 -0.8,23.013 -0.467,22.679L9.3,12.913L-0.5,3.113C-0.811,2.802 -0.967,2.413 -0.967,1.946C-0.967,1.479 -0.8,1.079 -0.467,0.746C-0.133,0.413 0.261,0.246 0.717,0.246C1.172,0.246 1.567,0.413 1.9,0.746L13.1,11.979C13.233,12.113 13.328,12.257 13.384,12.413C13.439,12.568 13.467,12.735 13.467,12.913C13.467,13.091 13.439,13.257 13.384,13.413C13.328,13.568 13.233,13.713 13.1,13.846L1.867,25.079C1.555,25.39 1.172,25.546 0.717,25.546C0.261,25.546 -0.133,25.379 -0.467,25.046Z" fill="#FFFFFF"/>
</svg>
