<svg width="40" height="40" viewBox="0 0 40 40" fill="none" xmlns="http://www.w3.org/2000/svg" xmlns:xlink="http://www.w3.org/1999/xlink">
<path d="M20,30C22.767,30 25.125,29.025 27.075,27.075C29.025,25.125 30,22.767 30,20C30,17.233 29.025,14.875 27.075,12.925C25.125,10.975 22.767,10 20,10C17.233,10 14.875,10.975 12.925,12.925C10.975,14.875 10,17.233 10,20C10,22.767 10.975,25.125 12.925,27.075C14.875,29.025 17.233,30 20,30ZM20,40C17.233,40 14.633,39.475 12.2,38.425C9.767,37.375 7.65,35.95 5.85,34.15C4.05,32.35 2.625,30.233 1.575,27.8C0.525,25.367 0,22.767 0,20C0,17.233 0.525,14.633 1.575,12.2C2.625,9.767 4.05,7.65 5.85,5.85C7.65,4.05 9.767,2.625 12.2,1.575C14.633,0.525 17.233,0 20,0C22.767,0 25.367,0.525 27.8,1.575C30.233,2.625 32.35,4.05 34.15,5.85C35.95,7.65 37.375,9.767 38.425,12.2C39.475,14.633 40,17.233 40,20C40,22.767 39.475,25.367 38.425,27.8C37.375,30.233 35.95,32.35 34.15,34.15C32.35,35.95 30.233,37.375 27.8,38.425C25.367,39.475 22.767,40 20,40ZM20,36C24.467,36 28.25,34.45 31.35,31.35C34.45,28.25 36,24.467 36,20C36,15.533 34.45,11.75 31.35,8.65C28.25,5.55 24.467,4 20,4C15.533,4 11.75,5.55 8.65,8.65C5.55,11.75 4,15.533 4,20C4,24.467 5.55,28.25 8.65,31.35C11.75,34.45 15.533,36 20,36Z" fill="#626366"/>
</svg>
