<svg width="32" height="32" viewBox="0 0 32 32" fill="none" xmlns="http://www.w3.org/2000/svg" xmlns:xlink="http://www.w3.org/1999/xlink">
<path d="M15.207,0.711L17.422,0.711C18.011,0.711 18.489,1.189 18.489,1.778C18.489,2.367 18.011,2.844 17.422,2.844L15.289,2.844C11.907,2.844 9.477,2.847 7.628,3.095C5.81,3.34 4.714,3.804 3.904,4.615C3.094,5.425 2.629,6.521 2.384,8.339C2.136,10.188 2.133,12.617 2.133,16C2.133,19.382 2.136,21.812 2.384,23.661C2.629,25.479 3.094,26.575 3.904,27.385C4.714,28.195 5.81,28.66 7.628,28.905C9.477,29.153 11.907,29.155 15.289,29.155C18.671,29.155 21.101,29.153 22.95,28.905C24.768,28.66 25.864,28.195 26.674,27.385C27.484,26.575 27.949,25.479 28.194,23.661C28.442,21.812 28.444,19.382 28.444,16L28.444,13.866C28.444,13.277 28.922,12.8 29.511,12.8C30.1,12.8 30.578,13.277 30.578,13.866L30.578,16.081C30.578,19.364 30.578,21.937 30.308,23.945C30.032,26 29.455,27.621 28.183,28.894C26.91,30.166 25.289,30.743 23.234,31.019C21.226,31.289 18.654,31.289 15.37,31.289L15.207,31.289C11.924,31.289 9.351,31.289 7.344,31.019C5.289,30.743 3.668,30.166 2.395,28.894C1.123,27.621 0.546,26 0.27,23.945C0,21.937 0,19.364 0,16.081L0,15.918C0,12.635 0,10.062 0.27,8.055C0.546,6 1.123,4.379 2.395,3.106C3.668,1.834 5.289,1.257 7.344,0.981C9.351,0.711 11.924,0.711 15.207,0.711ZM22.074,2.17C24.019,0.225 27.173,0.225 29.119,2.17C31.064,4.115 31.064,7.27 29.119,9.215L19.664,18.67C19.136,19.198 18.805,19.529 18.436,19.817C18.001,20.156 17.53,20.447 17.033,20.684C16.61,20.886 16.166,21.033 15.458,21.27L11.327,22.646C10.564,22.901 9.723,22.702 9.155,22.134C8.587,21.565 8.388,20.724 8.642,19.962L10.019,15.831C10.255,15.122 10.403,14.679 10.605,14.256C10.842,13.758 11.133,13.288 11.472,12.853C11.76,12.484 12.09,12.153 12.619,11.625L22.074,2.17ZM27.61,3.679C26.498,2.566 24.694,2.566 23.582,3.679L23.047,4.214C23.079,4.35 23.124,4.513 23.187,4.694C23.391,5.282 23.776,6.055 24.505,6.784C25.233,7.512 26.007,7.898 26.595,8.102C26.776,8.165 26.938,8.21 27.075,8.242L27.61,7.707C28.723,6.594 28.723,4.791 27.61,3.679ZM25.394,9.923C24.66,9.607 23.805,9.101 22.996,8.292C22.187,7.483 21.681,6.629 21.366,5.895L14.176,13.085C13.584,13.677 13.351,13.912 13.154,14.165C12.91,14.478 12.701,14.816 12.53,15.174C12.392,15.464 12.286,15.776 12.021,16.571L11.407,18.414L12.875,19.882L14.718,19.268C15.512,19.003 15.825,18.896 16.115,18.758C16.473,18.588 16.811,18.379 17.124,18.135C17.377,17.937 17.612,17.705 18.204,17.113L25.394,9.923Z" clip-rule="evenodd" fill-rule="evenodd" fill="#000000"/>
</svg>
