<svg width="178" height="126" viewBox="0 0 178 126" fill="none" xmlns="http://www.w3.org/2000/svg" xmlns:xlink="http://www.w3.org/1999/xlink">
<path d="M148.031,54.183C149.166,51.22 149.803,47.979 149.803,44.6C149.803,29.92 137.893,18.01 123.213,18.01C117.757,18.01 112.66,19.672 108.45,22.497C100.778,9.202 86.458,0.283 70.033,0.283C45.549,0.283 25.717,20.115 25.717,44.6C25.717,45.348 25.745,46.095 25.772,46.843C10.261,52.3 -0.873,67.09 -0.873,84.485C-0.873,106.504 16.992,124.37 39.012,124.37L140.94,124.37C160.522,124.37 176.393,108.499 176.393,88.916C176.393,71.771 164.206,57.452 148.031,54.183ZM108.09,71.19L89.976,71.19L89.976,102.211C89.976,104.649 87.982,106.643 85.544,106.643L72.249,106.643C69.812,106.643 67.818,104.649 67.818,102.211L67.818,71.19L49.703,71.19C45.742,71.19 43.776,66.426 46.573,63.628L75.767,34.435C77.484,32.717 80.309,32.717 82.027,34.435L111.22,63.628C114.018,66.426 112.023,71.19 108.09,71.19L108.09,71.19Z" fill="#5E9BFF"/>
</svg>
