<svg width="40" height="32" viewBox="0 0 40 32" fill="none" xmlns="http://www.w3.org/2000/svg" xmlns:xlink="http://www.w3.org/1999/xlink">
<path d="M32,18L32,14L40,14L40,18L32,18ZM34.4,32L28,27.2L30.4,24L36.8,28.8L34.4,32ZM30.4,8L28,4.8L34.4,0L36.8,3.2L30.4,8ZM6,30L6,22L4,22C2.9,22 1.958,21.608 1.175,20.825C0.392,20.042 0,19.1 0,18L0,14C0,12.9 0.392,11.958 1.175,11.175C1.958,10.392 2.9,10 4,10L12,10L22,4L22,28L12,22L10,22L10,30L6,30ZM18,20.9L18,11.1L13.1,14L4,14L4,18L13.1,18L18,20.9ZM24,22.7L24,9.3C24.9,10.1 25.625,11.075 26.175,12.225C26.725,13.375 27,14.633 27,16C27,17.367 26.725,18.625 26.175,19.775C25.625,20.925 24.9,21.9 24,22.7Z" fill="#000000"/>
</svg>
