<svg width="26" height="26" viewBox="0 0 26 26" fill="none" xmlns="http://www.w3.org/2000/svg" xmlns:xlink="http://www.w3.org/1999/xlink">
<path d="M24.769,0.885L19.532,-0.324C18.963,-0.455 18.379,-0.158 18.147,0.376L15.73,6.016C15.518,6.51 15.659,7.089 16.077,7.426L19.129,9.924C17.316,13.787 14.148,16.999 10.205,18.847L7.708,15.796C7.365,15.378 6.791,15.237 6.298,15.448L0.658,17.865C0.119,18.102 -0.178,18.686 -0.047,19.255L1.161,24.493C1.287,25.037 1.771,25.429 2.34,25.429C15.236,25.429 25.705,14.98 25.705,2.063C25.705,1.499 25.318,1.011 24.769,0.885Z" fill="#FFFFFF"/>
</svg>
