<svg width="22" height="22" viewBox="0 0 22 22" fill="none" xmlns="http://www.w3.org/2000/svg" xmlns:xlink="http://www.w3.org/1999/xlink">
<path d="M10.889,0.453C5.092,0.453 0.396,5.15 0.396,10.947C0.396,16.744 5.092,21.441 10.889,21.441C16.686,21.441 21.383,16.744 21.383,10.947C21.383,5.15 16.686,0.453 10.889,0.453ZM20.029,10.947C20.029,15.97 15.963,20.087 10.889,20.087C5.867,20.087 1.75,16.02 1.75,10.947C1.75,5.924 5.816,1.807 10.889,1.807C15.912,1.807 20.029,5.874 20.029,10.947ZM13.729,14.683L10.293,12.187C10.162,12.089 10.085,11.937 10.085,11.776L10.085,5.023C10.085,4.744 10.314,4.515 10.593,4.515L11.186,4.515C11.465,4.515 11.693,4.744 11.693,5.023L11.693,11.214L14.676,13.384C14.905,13.549 14.951,13.867 14.786,14.095L14.439,14.573C14.274,14.798 13.957,14.848 13.729,14.683L13.729,14.683Z" fill="#5272E9"/>
</svg>
