<svg width="72" height="70" viewBox="0 0 72 70" fill="none" xmlns="http://www.w3.org/2000/svg" xmlns:xlink="http://www.w3.org/1999/xlink">
<path d="M31.1,50.1L55.775,25.425L50.875,20.525L31.1,40.3L21.125,30.325L16.225,35.225L31.1,50.1ZM36,69C31.158,69 26.608,68.081 22.35,66.244C18.092,64.406 14.388,61.912 11.237,58.763C8.087,55.612 5.594,51.908 3.756,47.65C1.919,43.392 1,38.842 1,34C1,29.158 1.919,24.608 3.756,20.35C5.594,16.092 8.087,12.388 11.237,9.237C14.388,6.087 18.092,3.594 22.35,1.756C26.608,-0.081 31.158,-1 36,-1C40.842,-1 45.392,-0.081 49.65,1.756C53.908,3.594 57.612,6.087 60.763,9.237C63.912,12.388 66.406,16.092 68.244,20.35C70.081,24.608 71,29.158 71,34C71,38.842 70.081,43.392 68.244,47.65C66.406,51.908 63.912,55.612 60.763,58.763C57.612,61.912 53.908,64.406 49.65,66.244C45.392,68.081 40.842,69 36,69ZM36,62C43.817,62 50.438,59.287 55.862,53.862C61.287,48.438 64,41.817 64,34C64,26.183 61.287,19.562 55.862,14.138C50.438,8.712 43.817,6 36,6C28.183,6 21.562,8.712 16.138,14.138C10.712,19.562 8,26.183 8,34C8,41.817 10.712,48.438 16.138,53.862C21.562,59.287 28.183,62 36,62Z" fill="#000000"/>
</svg>
