<svg width="22" height="20" viewBox="0 0 22 20" fill="none" xmlns="http://www.w3.org/2000/svg" xmlns:xlink="http://www.w3.org/1999/xlink">
<path d="M10.399,0.544C4.403,0.544 -0.455,4.873 -0.455,10.216C-0.455,15.558 4.403,19.887 10.399,19.887C16.395,19.887 21.254,15.558 21.254,10.216C21.254,4.873 16.395,0.544 10.399,0.544ZM19.853,10.216C19.853,14.845 15.647,18.639 10.399,18.639C5.204,18.639 0.945,14.891 0.945,10.216C0.945,5.586 5.152,1.792 10.399,1.792C15.594,1.792 19.853,5.54 19.853,10.216ZM13.336,13.659L9.782,11.358C9.646,11.268 9.568,11.128 9.568,10.98L9.568,4.756C9.568,4.498 9.804,4.288 10.093,4.288L10.706,4.288C10.994,4.288 11.231,4.498 11.231,4.756L11.231,10.461L14.316,12.462C14.553,12.614 14.601,12.906 14.43,13.117L14.071,13.558C13.901,13.764 13.572,13.811 13.336,13.659L13.336,13.659Z" fill="#24B0C9"/>
</svg>
