<svg width="22" height="22" viewBox="0 0 22 22" fill="none" xmlns="http://www.w3.org/2000/svg" xmlns:xlink="http://www.w3.org/1999/xlink">
<path d="M10.229,0.865C4.432,0.865 -0.265,5.562 -0.265,11.359C-0.265,17.156 4.432,21.853 10.229,21.853C16.026,21.853 20.723,17.156 20.723,11.359C20.723,5.562 16.026,0.865 10.229,0.865ZM19.369,11.359C19.369,16.382 15.303,20.499 10.229,20.499C5.207,20.499 1.089,16.433 1.089,11.359C1.089,6.336 5.156,2.219 10.229,2.219C15.252,2.219 19.369,6.286 19.369,11.359ZM13.068,15.095L9.633,12.599C9.501,12.502 9.425,12.349 9.425,12.188L9.425,5.435C9.425,5.156 9.654,4.927 9.933,4.927L10.525,4.927C10.805,4.927 11.033,5.156 11.033,5.435L11.033,11.626L14.016,13.796C14.245,13.961 14.291,14.279 14.126,14.507L13.779,14.985C13.614,15.21 13.297,15.26 13.068,15.095L13.068,15.095Z" fill="#24B0C9"/>
</svg>
