<svg width="34" height="36" viewBox="0 0 34 36" fill="none" xmlns="http://www.w3.org/2000/svg" xmlns:xlink="http://www.w3.org/1999/xlink">
<path d="M31.92,1.635L25.005,0.039C24.254,-0.134 23.482,0.259 23.176,0.963L19.985,8.411C19.705,9.062 19.892,9.827 20.443,10.273L24.473,13.571C22.079,18.671 17.897,22.913 12.69,25.354L9.392,21.324C8.94,20.772 8.182,20.586 7.53,20.865L0.083,24.057C-0.629,24.369 -1.021,25.141 -0.848,25.892L0.748,32.808C0.914,33.526 1.552,34.044 2.304,34.044C19.333,34.044 33.157,20.247 33.157,3.191C33.157,2.446 32.645,1.801 31.92,1.635Z" fill="#FFFFFF"/>
</svg>
