<svg width="60" height="20" viewBox="0 0 60 20" fill="none" xmlns="http://www.w3.org/2000/svg" xmlns:xlink="http://www.w3.org/1999/xlink">
<path d="M2.439,11.574C0.425,12.481 -0.473,14.849 0.434,16.863C1.341,18.878 3.709,19.775 5.724,18.868L2.439,11.574ZM29.566,3.747L31.208,0.1C30.163,-0.37 28.968,-0.37 27.923,0.1L29.566,3.747ZM53.408,18.868C55.422,19.775 57.79,18.878 58.697,16.863C59.604,14.849 58.706,12.481 56.692,11.574L53.408,18.868ZM5.724,18.868L31.208,7.394L27.923,0.1L2.439,11.574L5.724,18.868ZM27.923,7.394L53.408,18.868L56.692,11.574L31.208,0.1L27.923,7.394Z" transform="rotate(-180 29.566 9.484)" fill="#0060FF"/>
</svg>
