<svg width="14" height="28" viewBox="0 0 14 28" fill="none" xmlns="http://www.w3.org/2000/svg" xmlns:xlink="http://www.w3.org/1999/xlink">
<path d="M-0.467,25.718C-0.8,25.385 -0.967,24.99 -0.967,24.534C-0.967,24.079 -0.8,23.685 -0.467,23.351L9.3,13.585L-0.5,3.785C-0.811,3.474 -0.967,3.085 -0.967,2.618C-0.967,2.151 -0.8,1.751 -0.467,1.418C-0.133,1.085 0.261,0.918 0.717,0.918C1.172,0.918 1.567,1.085 1.9,1.418L13.1,12.651C13.233,12.785 13.328,12.929 13.384,13.085C13.439,13.24 13.467,13.407 13.467,13.585C13.467,13.762 13.439,13.929 13.384,14.085C13.328,14.24 13.233,14.385 13.1,14.518L1.867,25.751C1.555,26.062 1.172,26.218 0.717,26.218C0.261,26.218 -0.133,26.051 -0.467,25.718Z" fill="#FFFFFF"/>
</svg>
