<svg width="38" height="10" viewBox="0 0 38 10" fill="none" xmlns="http://www.w3.org/2000/svg" xmlns:xlink="http://www.w3.org/1999/xlink">
<path d="M18.001,-0.667C15.434,-0.667 13.334,1.433 13.334,4C13.334,6.567 15.434,8.667 18.001,8.667C20.567,8.667 22.667,6.567 22.667,4C22.667,1.433 20.567,-0.667 18.001,-0.667ZM32.001,-0.667C29.434,-0.667 27.334,1.433 27.334,4C27.334,6.567 29.434,8.667 32.001,8.667C34.567,8.667 36.667,6.567 36.667,4C36.667,1.433 34.567,-0.667 32.001,-0.667ZM4.001,-0.667C1.434,-0.667 -0.666,1.433 -0.666,4C-0.666,6.567 1.434,8.667 4.001,8.667C6.567,8.667 8.667,6.567 8.667,4C8.667,1.433 6.567,-0.667 4.001,-0.667Z" fill="#0060FF"/>
</svg>
