<svg width="14" height="26" viewBox="0 0 14 26" fill="none" xmlns="http://www.w3.org/2000/svg" xmlns:xlink="http://www.w3.org/1999/xlink">
<path d="M-0.467,24.648C-0.8,24.314 -0.967,23.92 -0.967,23.464C-0.967,23.008 -0.8,22.614 -0.467,22.281L9.3,12.514L-0.5,2.714C-0.811,2.403 -0.967,2.014 -0.967,1.548C-0.967,1.081 -0.8,0.681 -0.467,0.348C-0.133,0.014 0.261,-0.152 0.717,-0.152C1.172,-0.152 1.567,0.014 1.9,0.348L13.1,11.581C13.233,11.714 13.328,11.859 13.384,12.014C13.439,12.17 13.467,12.337 13.467,12.514C13.467,12.692 13.439,12.859 13.384,13.014C13.328,13.17 13.233,13.314 13.1,13.448L1.867,24.681C1.555,24.992 1.172,25.148 0.717,25.148C0.261,25.148 -0.133,24.981 -0.467,24.648Z" fill="#FFFFFF"/>
</svg>
