<svg width="16" height="26" viewBox="0 0 16 26" fill="none" xmlns="http://www.w3.org/2000/svg" xmlns:xlink="http://www.w3.org/1999/xlink">
<path d="M0.783,24.913C0.45,24.58 0.283,24.185 0.283,23.729C0.283,23.274 0.45,22.88 0.783,22.547L10.55,12.78L0.75,2.98C0.439,2.669 0.283,2.28 0.283,1.813C0.283,1.347 0.45,0.947 0.783,0.613C1.117,0.28 1.511,0.113 1.967,0.113C2.422,0.113 2.817,0.28 3.15,0.613L14.35,11.847C14.483,11.98 14.578,12.124 14.634,12.28C14.689,12.436 14.717,12.602 14.717,12.78C14.717,12.958 14.689,13.124 14.634,13.28C14.578,13.436 14.483,13.58 14.35,13.713L3.117,24.947C2.805,25.258 2.422,25.413 1.967,25.413C1.511,25.413 1.117,25.247 0.783,24.913Z" fill="#FFFFFF"/>
</svg>
