<svg width="22" height="20" viewBox="0 0 22 20" fill="none" xmlns="http://www.w3.org/2000/svg" xmlns:xlink="http://www.w3.org/1999/xlink">
<path d="M10.919,0.148C4.923,0.148 0.064,4.477 0.064,9.82C0.064,15.163 4.923,19.492 10.919,19.492C16.915,19.492 21.773,15.163 21.773,9.82C21.773,4.477 16.915,0.148 10.919,0.148ZM20.372,9.82C20.372,14.449 16.166,18.244 10.919,18.244C5.724,18.244 1.465,14.496 1.465,9.82C1.465,5.191 5.671,1.396 10.919,1.396C16.114,1.396 20.372,5.144 20.372,9.82ZM13.856,13.264L10.302,10.963C10.166,10.873 10.087,10.733 10.087,10.584L10.087,4.36C10.087,4.103 10.324,3.892 10.612,3.892L11.225,3.892C11.514,3.892 11.75,4.103 11.75,4.36L11.75,10.066L14.836,12.066C15.072,12.218 15.12,12.511 14.95,12.721L14.591,13.162C14.42,13.369 14.092,13.416 13.856,13.264L13.856,13.264Z" fill="#5272E9"/>
</svg>
