<svg width="14" height="26" viewBox="0 0 14 26" fill="none" xmlns="http://www.w3.org/2000/svg" xmlns:xlink="http://www.w3.org/1999/xlink">
<path d="M-0.467,24.396C-0.8,24.062 -0.967,23.668 -0.967,23.212C-0.967,22.757 -0.8,22.362 -0.467,22.029L9.3,12.262L-0.5,2.462C-0.811,2.151 -0.967,1.762 -0.967,1.296C-0.967,0.829 -0.8,0.429 -0.467,0.096C-0.133,-0.238 0.261,-0.404 0.717,-0.404C1.172,-0.404 1.567,-0.238 1.9,0.096L13.1,11.329C13.233,11.462 13.328,11.607 13.384,11.762C13.439,11.918 13.467,12.085 13.467,12.262C13.467,12.44 13.439,12.607 13.384,12.762C13.328,12.918 13.233,13.062 13.1,13.196L1.867,24.429C1.555,24.74 1.172,24.896 0.717,24.896C0.261,24.896 -0.133,24.729 -0.467,24.396Z" fill="#FFFFFF"/>
</svg>
