<svg width="32" height="32" viewBox="0 0 32 32" fill="none" xmlns="http://www.w3.org/2000/svg" xmlns:xlink="http://www.w3.org/1999/xlink">
<path d="M16,16C13.8,16 11.917,15.217 10.35,13.65C8.783,12.083 8,10.2 8,8C8,5.8 8.783,3.917 10.35,2.35C11.917,0.783 13.8,0 16,0C18.2,0 20.083,0.783 21.65,2.35C23.217,3.917 24,5.8 24,8C24,10.2 23.217,12.083 21.65,13.65C20.083,15.217 18.2,16 16,16ZM0,32L0,26.4C0,25.267 0.292,24.225 0.875,23.275C1.458,22.325 2.233,21.6 3.2,21.1C5.267,20.067 7.367,19.292 9.5,18.775C11.633,18.258 13.8,18 16,18C18.2,18 20.367,18.258 22.5,18.775C24.633,19.292 26.733,20.067 28.8,21.1C29.767,21.6 30.542,22.325 31.125,23.275C31.708,24.225 32,25.267 32,26.4L32,32L0,32ZM4,28L28,28L28,26.4C28,26.033 27.908,25.7 27.725,25.4C27.542,25.1 27.3,24.867 27,24.7C25.2,23.8 23.383,23.125 21.55,22.675C19.717,22.225 17.867,22 16,22C14.133,22 12.283,22.225 10.45,22.675C8.617,23.125 6.8,23.8 5,24.7C4.7,24.867 4.458,25.1 4.275,25.4C4.092,25.7 4,26.033 4,26.4L4,28ZM16,12C17.1,12 18.042,11.608 18.825,10.825C19.608,10.042 20,9.1 20,8C20,6.9 19.608,5.958 18.825,5.175C18.042,4.392 17.1,4 16,4C14.9,4 13.958,4.392 13.175,5.175C12.392,5.958 12,6.9 12,8C12,9.1 12.392,10.042 13.175,10.825C13.958,11.608 14.9,12 16,12Z" fill="#000000"/>
</svg>
