<svg width="56" height="56" viewBox="0 0 56 56" fill="none" xmlns="http://www.w3.org/2000/svg" xmlns:xlink="http://www.w3.org/1999/xlink">
<path d="M39.06,37.824L41.31,37.824L39.06,37.824ZM29.237,45.397L14.49,45.397L14.49,49.897L29.237,49.897L29.237,45.397ZM14.49,45.397C11.342,45.397 9.572,44.377 8.542,43.141C7.451,41.832 6.917,39.953 6.917,37.824L2.417,37.824C2.417,40.618 3.108,43.65 5.085,46.022C7.123,48.467 10.265,49.897 14.49,49.897L14.49,45.397ZM6.917,37.824L6.917,18.177L2.417,18.177L2.417,37.824L6.917,37.824ZM6.917,18.177C6.917,14.613 7.538,12.957 8.405,12.091C9.271,11.225 10.927,10.604 14.49,10.604L14.49,6.104C10.681,6.104 7.425,6.707 5.223,8.909C3.021,11.111 2.417,14.367 2.417,18.177L6.917,18.177ZM14.49,10.604L29.237,10.604L29.237,6.104L14.49,6.104L14.49,10.604ZM29.237,10.604C32.801,10.604 34.456,11.225 35.323,12.091C36.189,12.957 36.81,14.613 36.81,18.177L41.31,18.177C41.31,14.367 40.707,11.111 38.505,8.909C36.303,6.707 33.047,6.104 29.237,6.104L29.237,10.604ZM36.81,18.177L36.81,37.824L41.31,37.824L41.31,18.177L36.81,18.177ZM36.81,37.824C36.81,41.383 36.185,43.04 35.315,43.908C34.445,44.776 32.787,45.397 29.237,45.397L29.237,49.897C33.037,49.897 36.291,49.292 38.494,47.093C40.699,44.892 41.31,41.638 41.31,37.824L36.81,37.824Z" fill="#FFFFFF"/>
<path d="M45.547,39.9L46.844,38.062L46.839,38.058L45.547,39.9ZM39.06,35.35L36.81,35.35C36.81,36.083 37.168,36.771 37.768,37.192L39.06,35.35ZM39.06,20.626L37.768,18.784C37.168,19.206 36.81,19.893 36.81,20.626L39.06,20.626ZM45.547,16.076L44.258,14.232L44.255,14.234L45.547,16.076ZM46.839,38.058L40.352,33.508L37.768,37.192L44.255,41.742L46.839,38.058ZM41.31,35.35L41.31,20.626L36.81,20.626L36.81,35.35L41.31,35.35ZM40.352,22.469L46.839,17.919L44.255,14.234L37.768,18.784L40.352,22.469ZM46.835,17.921C47.432,17.504 47.891,17.335 48.187,17.282C48.466,17.232 48.571,17.286 48.589,17.295C48.606,17.304 48.712,17.361 48.831,17.621C48.958,17.897 49.083,18.374 49.083,19.11L53.583,19.11C53.583,16.758 52.784,14.409 50.672,13.306C48.559,12.203 46.178,12.891 44.258,14.232L46.835,17.921ZM49.083,19.11L49.083,36.89L53.583,36.89L53.583,19.11L49.083,19.11ZM49.083,36.89C49.083,37.626 48.958,38.103 48.832,38.378C48.712,38.637 48.608,38.692 48.593,38.699C48.578,38.707 48.475,38.761 48.197,38.71C47.902,38.655 47.442,38.484 46.844,38.062L44.249,41.738C46.165,43.091 48.549,43.793 50.667,42.693C52.784,41.593 53.583,39.239 53.583,36.89L49.083,36.89Z" fill="#FFFFFF"/>
<path d="M28.083,22.167C28.083,22.857 27.524,23.417 26.833,23.417L26.833,27.917C30.009,27.917 32.583,25.342 32.583,22.167L28.083,22.167ZM26.833,23.417C26.143,23.417 25.583,22.857 25.583,22.167L21.083,22.167C21.083,25.342 23.658,27.917 26.833,27.917L26.833,23.417ZM25.583,22.167C25.583,21.476 26.143,20.917 26.833,20.917L26.833,16.417C23.658,16.417 21.083,18.991 21.083,22.167L25.583,22.167ZM26.833,20.917C27.524,20.917 28.083,21.476 28.083,22.167L32.583,22.167C32.583,18.991 30.009,16.417 26.833,16.417L26.833,20.917Z" fill="#FFFFFF"/>
</svg>
