<svg width="56" height="56" viewBox="0 0 56 56" fill="none" xmlns="http://www.w3.org/2000/svg" xmlns:xlink="http://www.w3.org/1999/xlink">
<path d="M49.013,28C49.013,39.644 39.574,49.083 27.93,49.083L27.93,53.583C42.059,53.583 53.513,42.129 53.513,28L49.013,28ZM27.93,49.083C16.286,49.083 6.847,39.644 6.847,28L2.347,28C2.347,42.129 13.801,53.583 27.93,53.583L27.93,49.083ZM6.847,28C6.847,16.356 16.286,6.917 27.93,6.917L27.93,2.417C13.801,2.417 2.347,13.871 2.347,28L6.847,28ZM27.93,6.917C39.574,6.917 49.013,16.356 49.013,28L53.513,28C53.513,13.871 42.059,2.417 27.93,2.417L27.93,6.917Z" fill="#EB5757"/>
<path d="M35.62,28C35.62,32.208 32.209,35.62 28,35.62L28,40.12C34.694,40.12 40.12,34.694 40.12,28L35.62,28ZM28,35.62C23.792,35.62 20.38,32.208 20.38,28L15.88,28C15.88,34.694 21.307,40.12 28,40.12L28,35.62ZM20.38,28C20.38,23.791 23.792,20.38 28,20.38L28,15.88C21.307,15.88 15.88,21.306 15.88,28L20.38,28ZM28,20.38C32.209,20.38 35.62,23.791 35.62,28L40.12,28C40.12,21.306 34.694,15.88 28,15.88L28,20.38Z" fill="#EB5757"/>
<circle cx="28" cy="28" r="8" fill="#EB5757" fill-opacity="0.6"/>
</svg>
